Notdef-Regular.ufo
<glyph name="exclam" format="2">
  <advance width="231"/>
  <unicode hex="0021"/>
  <outline>
    <contour>
      <point x="101" y="159" type="line"/>
      <point x="93" y="295"/>
      <point x="69" y="509"/>
      <point x="54" y="587" type="qcurve"/>
      <point x="64" y="601"/>
      <point x="76" y="618"/>
      <point x="85" y="634"/>
      <point x="95" y="653"/>
      <point x="103" y="668" type="qcurve"/>
      <point x="107" y="674"/>
      <point x="113" y="674" type="qcurve"/>
      <point x="116" y="674"/>
      <point x="130" y="663"/>
      <point x="135" y="654" type="qcurve"/>
      <point x="146" y="631"/>
      <point x="163" y="603"/>
      <point x="178" y="590" type="qcurve"/>
      <point x="169" y="536"/>
      <point x="153" y="435"/>
      <point x="141" y="332"/>
      <point x="132" y="222"/>
      <point x="129" y="159" type="qcurve"/>
    </contour>
    <contour>
      <point x="116" y="-11" type="qcurve"/>
      <point x="99" y="-11"/>
      <point x="74" y="18"/>
      <point x="74" y="41" type="qcurve"/>
      <point x="74" y="63"/>
      <point x="100" y="92"/>
      <point x="117" y="92" type="qcurve"/>
      <point x="134" y="92"/>
      <point x="159" y="61"/>
      <point x="159" y="41" type="qcurve"/>
      <point x="159" y="17"/>
      <point x="133" y="-11"/>
    </contour>
  </outline>
</glyph>
<glyph name="quotedbl" format="2">
  <advance width="276"/>
  <unicode hex="0022"/>
  <outline>
    <contour>
      <point x="57" y="433" type="line"/>
      <point x="33" y="637" type="line"/>
      <point x="39" y="649"/>
      <point x="58" y="681"/>
      <point x="69" y="686" type="qcurve"/>
      <point x="75" y="689"/>
      <point x="79" y="689" type="qcurve"/>
      <point x="90" y="689"/>
      <point x="107" y="676"/>
      <point x="112" y="671" type="qcurve"/>
      <point x="122" y="662"/>
      <point x="126" y="649"/>
      <point x="126" y="644" type="qcurve"/>
      <point x="126" y="638"/>
      <point x="118" y="607"/>
      <point x="106" y="562"/>
      <point x="92" y="505"/>
      <point x="86" y="474" type="qcurve"/>
      <point x="77" y="433" type="line"/>
    </contour>
    <contour>
      <point x="183" y="433" type="line"/>
      <point x="159" y="637" type="line"/>
      <point x="165" y="649"/>
      <point x="184" y="681"/>
      <point x="195" y="686" type="qcurve"/>
      <point x="201" y="689"/>
      <point x="205" y="689" type="qcurve"/>
      <point x="216" y="689"/>
      <point x="233" y="676"/>
      <point x="238" y="671" type="qcurve"/>
      <point x="248" y="662"/>
      <point x="252" y="649"/>
      <point x="252" y="644" type="qcurve"/>
      <point x="252" y="638"/>
      <point x="244" y="607"/>
      <point x="232" y="562"/>
      <point x="218" y="505"/>
      <point x="212" y="474" type="qcurve"/>
      <point x="203" y="433" type="line"/>
    </contour>
  </outline>
</glyph>
<glyph name="numbersign" format="2">
  <advance width="652"/>
  <unicode hex="0023"/>
  <outline>
    <contour>
      <point x="443" y="409" type="line"/>
      <point x="276" y="409" type="line"/>
      <point x="229" y="247" type="line"/>
      <point x="396" y="247" type="line"/>
    </contour>
    <contour>
      <point x="325" y="0" type="line"/>
      <point x="372" y="163" type="line"/>
      <point x="205" y="163" type="line"/>
      <point x="158" y="0" type="line"/>
      <point x="129" y="0" type="line"/>
      <point x="176" y="163" type="line"/>
      <point x="38" y="163" type="line"/>
      <point x="63" y="247" type="line"/>
      <point x="200" y="247" type="line"/>
      <point x="247" y="409" type="line"/>
      <point x="109" y="409" type="line"/>
      <point x="134" y="492" type="line"/>
      <point x="271" y="492" type="line"/>
      <point x="310" y="627" type="line"/>
      <point x="339" y="627" type="line"/>
      <point x="300" y="492" type="line"/>
      <point x="467" y="492" type="line"/>
      <point x="506" y="627" type="line"/>
      <point x="535" y="627" type="line"/>
      <point x="496" y="492" type="line"/>
      <point x="632" y="492" type="line"/>
      <point x="607" y="409" type="line"/>
      <point x="472" y="409" type="line"/>
      <point x="425" y="247" type="line"/>
      <point x="561" y="247" type="line"/>
      <point x="536" y="163" type="line"/>
      <point x="401" y="163" type="line"/>
      <point x="354" y="0" type="line"/>
    </contour>
  </outline>
</glyph>
<glyph name="dollar" format="2">
  <advance width="470"/>
  <unicode hex="0024"/>
  <outline>
    <contour>
      <point x="257" y="-64" type="line"/>
      <point x="257" y="-13" type="line"/>
      <point x="239" y="-13"/>
      <point x="213" y="-11"/>
      <point x="198" y="-7" type="qcurve"/>
      <point x="198" y="-64" type="line"/>
      <point x="178" y="-64" type="line"/>
      <point x="178" y="0" type="line"/>
      <point x="145" y="12"/>
      <point x="105" y="37"/>
      <point x="87" y="37" type="qcurve"/>
      <point x="76" y="37"/>
      <point x="67" y="6"/>
      <point x="66" y="-7" type="qcurve"/>
      <point x="51" y="-7" type="line"/>
      <point x="51" y="238" type="line"/>
      <point x="66" y="238" type="line"/>
      <point x="72" y="161"/>
      <point x="120" y="52"/>
      <point x="173" y="28" type="qcurve"/>
      <point x="178" y="25" type="line"/>
      <point x="178" y="257" type="line"/>
      <point x="150" y="272"/>
      <point x="102" y="311"/>
      <point x="66" y="362"/>
      <point x="46" y="427"/>
      <point x="46" y="468" type="qcurve"/>
      <point x="46" y="489"/>
      <point x="53" y="534"/>
      <point x="67" y="578"/>
      <point x="89" y="616"/>
      <point x="104" y="631" type="qcurve"/>
      <point x="135" y="658"/>
      <point x="178" y="668" type="qcurve"/>
      <point x="178" y="712" type="line"/>
      <point x="198" y="712" type="line"/>
      <point x="198" y="672" type="line"/>
      <point x="223" y="674" type="line"/>
      <point x="232" y="674"/>
      <point x="249" y="673"/>
      <point x="257" y="672" type="qcurve"/>
      <point x="257" y="712" type="line"/>
      <point x="277" y="712" type="line"/>
      <point x="277" y="667" type="line"/>
      <point x="286" y="665"/>
      <point x="293" y="661" type="qcurve"/>
      <point x="320" y="648"/>
      <point x="356" y="620"/>
      <point x="367" y="620" type="qcurve"/>
      <point x="381" y="620"/>
      <point x="387" y="646"/>
      <point x="387" y="659" type="qcurve"/>
      <point x="403" y="659" type="line"/>
      <point x="403" y="458" type="line"/>
      <point x="386" y="458" type="line"/>
      <point x="375" y="525"/>
      <point x="331" y="619"/>
      <point x="288" y="640" type="qcurve"/>
      <point x="285" y="643"/>
      <point x="277" y="645" type="qcurve"/>
      <point x="277" y="387" type="line"/>
      <point x="303" y="376"/>
      <point x="355" y="345"/>
      <point x="399" y="298"/>
      <point x="429" y="234"/>
      <point x="434" y="191" type="qcurve"/>
      <point x="434" y="153"/>
      <point x="415" y="83"/>
      <point x="377" y="29"/>
      <point x="317" y="-7"/>
      <point x="277" y="-11" type="qcurve"/>
      <point x="277" y="-64" type="line"/>
    </contour>
    <contour>
      <point x="257" y="651" type="line"/>
      <point x="252" y="652"/>
      <point x="240" y="652"/>
      <point x="234" y="653" type="qcurve"/>
      <point x="227" y="653"/>
      <point x="220" y="654" type="qcurve"/>
      <point x="209" y="654" type="line"/>
      <point x="198" y="653" type="line"/>
      <point x="198" y="420" type="line"/>
      <point x="206" y="416"/>
      <point x="224" y="410"/>
      <point x="233" y="406" type="qcurve"/>
      <point x="234" y="405" type="line"/>
      <point x="236" y="405" type="line"/>
      <point x="239" y="403" type="line"/>
      <point x="241" y="403" type="line"/>
      <point x="244" y="401" type="line"/>
      <point x="246" y="401" type="line"/>
      <point x="249" y="399" type="line"/>
      <point x="251" y="399" type="line"/>
      <point x="254" y="397" type="line"/>
      <point x="256" y="397" type="line"/>
      <point x="257" y="396" type="line"/>
    </contour>
    <contour>
      <point x="178" y="649" type="line"/>
      <point x="171" y="647" type="line"/>
      <point x="126" y="634"/>
      <point x="95" y="576"/>
      <point x="95" y="533" type="qcurve"/>
      <point x="98" y="497"/>
      <point x="143" y="447"/>
      <point x="178" y="429" type="qcurve"/>
    </contour>
    <contour>
      <point x="257" y="218" type="line"/>
      <point x="255" y="219" type="line"/>
      <point x="241" y="226"/>
      <point x="212" y="239"/>
      <point x="198" y="247" type="qcurve"/>
      <point x="198" y="18" type="line"/>
      <point x="223" y="11"/>
      <point x="257" y="11" type="qcurve"/>
    </contour>
    <contour>
      <point x="277" y="13" type="line"/>
      <point x="305" y="16"/>
      <point x="341" y="39"/>
      <point x="361" y="67"/>
      <point x="369" y="96"/>
      <point x="369" y="106" type="qcurve"/>
      <point x="369" y="128"/>
      <point x="355" y="158"/>
      <point x="331" y="180"/>
      <point x="297" y="199"/>
      <point x="277" y="209" type="qcurve"/>
    </contour>
  </outline>
</glyph>
<glyph name="percent" format="2">
  <advance width="888"/>
  <unicode hex="0025"/>
  <outline>
    <contour>
      <point x="282" y="0" type="line"/>
      <point x="550" y="700" type="line"/>
      <point x="590" y="700" type="line"/>
      <point x="323" y="0" type="line"/>
    </contour>
    <contour>
      <point x="211" y="287" type="qcurve"/>
      <point x="166" y="287"/>
      <point x="91" y="322"/>
      <point x="38" y="379"/>
      <point x="9" y="451"/>
      <point x="9" y="487" type="qcurve"/>
      <point x="9" y="523"/>
      <point x="42" y="592"/>
      <point x="97" y="647"/>
      <point x="170" y="680"/>
      <point x="211" y="680" type="qcurve"/>
      <point x="256" y="680"/>
      <point x="330" y="645"/>
      <point x="383" y="588"/>
      <point x="412" y="517"/>
      <point x="412" y="482" type="qcurve"/>
      <point x="412" y="446"/>
      <point x="382" y="376"/>
      <point x="328" y="321"/>
      <point x="254" y="287"/>
    </contour>
    <contour>
      <point x="210" y="302" type="qcurve"/>
      <point x="247" y="302"/>
      <point x="288" y="342"/>
      <point x="307" y="399"/>
      <point x="310" y="462"/>
      <point x="310" y="485" type="qcurve"/>
      <point x="310" y="504"/>
      <point x="305" y="565"/>
      <point x="285" y="623"/>
      <point x="246" y="665"/>
      <point x="213" y="665" type="qcurve"/>
      <point x="178" y="665"/>
      <point x="135" y="626"/>
      <point x="113" y="570"/>
      <point x="106" y="508"/>
      <point x="106" y="484" type="qcurve"/>
      <point x="106" y="460"/>
      <point x="111" y="397"/>
      <point x="132" y="341"/>
      <point x="174" y="302"/>
    </contour>
    <contour>
      <point x="641" y="-12" type="qcurve"/>
      <point x="596" y="-12"/>
      <point x="521" y="23"/>
      <point x="468" y="80"/>
      <point x="439" y="152"/>
      <point x="439" y="188" type="qcurve"/>
      <point x="439" y="224"/>
      <point x="472" y="293"/>
      <point x="527" y="348"/>
      <point x="600" y="381"/>
      <point x="641" y="381" type="qcurve"/>
      <point x="686" y="381"/>
      <point x="760" y="346"/>
      <point x="813" y="289"/>
      <point x="842" y="218"/>
      <point x="842" y="183" type="qcurve"/>
      <point x="842" y="147"/>
      <point x="812" y="77"/>
      <point x="758" y="22"/>
      <point x="684" y="-12"/>
    </contour>
    <contour>
      <point x="640" y="3" type="qcurve"/>
      <point x="677" y="3"/>
      <point x="718" y="43"/>
      <point x="737" y="100"/>
      <point x="740" y="163"/>
      <point x="740" y="186" type="qcurve"/>
      <point x="740" y="205"/>
      <point x="735" y="266"/>
      <point x="715" y="324"/>
      <point x="676" y="366"/>
      <point x="643" y="366" type="qcurve"/>
      <point x="608" y="366"/>
      <point x="565" y="327"/>
      <point x="543" y="271"/>
      <point x="536" y="209"/>
      <point x="536" y="185" type="qcurve"/>
      <point x="536" y="161"/>
      <point x="541" y="98"/>
      <point x="562" y="42"/>
      <point x="604" y="3"/>
    </contour>
  </outline>
</glyph>
<glyph name="ampersand" format="2">
  <advance width="666"/>
  <unicode hex="0026"/>
  <outline>
    <contour>
      <point x="258" y="-9" type="qcurve"/>
      <point x="219" y="-9"/>
      <point x="133" y="17"/>
      <point x="61" y="66"/>
      <point x="13" y="137"/>
      <point x="13" y="183" type="qcurve"/>
      <point x="13" y="210"/>
      <point x="36" y="264"/>
      <point x="75" y="311"/>
      <point x="125" y="348"/>
      <point x="151" y="358" type="qcurve"/>
      <point x="124" y="385"/>
      <point x="93" y="432"/>
      <point x="76" y="469"/>
      <point x="71" y="499"/>
      <point x="71" y="510" type="qcurve"/>
      <point x="71" y="558"/>
      <point x="110" y="623"/>
      <point x="173" y="663"/>
      <point x="251" y="680"/>
      <point x="291" y="680" type="qcurve"/>
      <point x="322" y="680"/>
      <point x="384" y="661"/>
      <point x="434" y="623"/>
      <point x="465" y="569"/>
      <point x="465" y="535" type="qcurve"/>
      <point x="465" y="499"/>
      <point x="426" y="453"/>
      <point x="368" y="423"/>
      <point x="300" y="405"/>
      <point x="272" y="397" type="qcurve"/>
      <point x="494" y="129" type="line"/>
      <point x="511" y="146"/>
      <point x="542" y="191"/>
      <point x="569" y="242"/>
      <point x="588" y="297"/>
      <point x="593" y="323" type="qcurve"/>
      <point x="530" y="323" type="line"/>
      <point x="530" y="343" type="line"/>
      <point x="672" y="343" type="line"/>
      <point x="672" y="323" type="line"/>
      <point x="608" y="323" type="line"/>
      <point x="600" y="266"/>
      <point x="548" y="158"/>
      <point x="505" y="115" type="qcurve"/>
      <point x="587" y="20" type="line"/>
      <point x="635" y="20" type="line"/>
      <point x="635" y="0" type="line"/>
      <point x="410" y="0" type="line"/>
      <point x="410" y="20" type="line"/>
      <point x="440" y="20" type="line"/>
      <point x="417" y="47" type="line"/>
      <point x="380" y="25"/>
      <point x="303" y="-9"/>
    </contour>
    <contour>
      <point x="260" y="411" type="qcurve"/>
      <point x="284" y="426"/>
      <point x="326" y="448"/>
      <point x="358" y="475"/>
      <point x="376" y="512"/>
      <point x="376" y="542" type="qcurve"/>
      <point x="376" y="567"/>
      <point x="366" y="611"/>
      <point x="343" y="644"/>
      <point x="306" y="663"/>
      <point x="279" y="663" type="qcurve"/>
      <point x="233" y="663"/>
      <point x="170" y="608"/>
      <point x="170" y="557" type="qcurve"/>
      <point x="170" y="535"/>
      <point x="181" y="503"/>
      <point x="204" y="472"/>
      <point x="237" y="436"/>
    </contour>
    <contour>
      <point x="276" y="24" type="qcurve"/>
      <point x="310" y="24"/>
      <point x="373" y="47"/>
      <point x="402" y="63" type="qcurve"/>
      <point x="176" y="329" type="line"/>
      <point x="168" y="315"/>
      <point x="155" y="280"/>
      <point x="145" y="241"/>
      <point x="139" y="204"/>
      <point x="139" y="189" type="qcurve"/>
      <point x="139" y="159"/>
      <point x="157" y="100"/>
      <point x="192" y="53"/>
      <point x="243" y="24"/>
    </contour>
  </outline>
</glyph>
<glyph name="quotesingle" format="2">
  <advance width="164"/>
  <unicode hex="0027"/>
  <outline>
    <contour>
      <point x="57" y="433" type="line"/>
      <point x="33" y="637" type="line"/>
      <point x="39" y="649"/>
      <point x="58" y="681"/>
      <point x="69" y="686" type="qcurve"/>
      <point x="75" y="689"/>
      <point x="79" y="689" type="qcurve"/>
      <point x="90" y="689"/>
      <point x="107" y="676"/>
      <point x="112" y="671" type="qcurve"/>
      <point x="122" y="662"/>
      <point x="126" y="649"/>
      <point x="126" y="644" type="qcurve"/>
      <point x="126" y="638"/>
      <point x="118" y="607"/>
      <point x="106" y="562"/>
      <point x="92" y="505"/>
      <point x="86" y="474" type="qcurve"/>
      <point x="77" y="433" type="line"/>
    </contour>
  </outline>
</glyph>
<glyph name="parenleft" format="2">
  <advance width="283"/>
  <unicode hex="0028"/>
  <outline>
    <contour>
      <point x="303" y="-155" type="line"/>
      <point x="263" y="-154"/>
      <point x="186" y="-114"/>
      <point x="119" y="-39"/>
      <point x="65" y="70"/>
      <point x="49" y="141" type="qcurve"/>
      <point x="28" y="229"/>
      <point x="28" y="310" type="qcurve"/>
      <point x="28" y="401"/>
      <point x="73" y="567"/>
      <point x="107" y="626" type="qcurve"/>
      <point x="125" y="654"/>
      <point x="175" y="711"/>
      <point x="196" y="728" type="qcurve"/>
      <point x="221" y="746"/>
      <point x="274" y="766"/>
      <point x="303" y="767" type="qcurve"/>
      <point x="303" y="746" type="line"/>
      <point x="268" y="744"/>
      <point x="220" y="709"/>
      <point x="187" y="651"/>
      <point x="168" y="576"/>
      <point x="162" y="535" type="qcurve"/>
      <point x="153" y="473"/>
      <point x="150" y="350"/>
      <point x="150" y="305" type="qcurve"/>
      <point x="150" y="285"/>
      <point x="152" y="222"/>
      <point x="157" y="147"/>
      <point x="166" y="67"/>
      <point x="174" y="31" type="qcurve"/>
      <point x="183" y="-11"/>
      <point x="218" y="-88"/>
      <point x="243" y="-111" type="qcurve"/>
      <point x="254" y="-121"/>
      <point x="285" y="-133"/>
      <point x="303" y="-134" type="qcurve"/>
      <point x="303" y="-155" type="line"/>
    </contour>
  </outline>
</glyph>
<glyph name="parenright" format="2">
  <advance width="283"/>
  <unicode hex="0029"/>
  <outline>
    <contour>
      <point x="-31" y="-134" type="line"/>
      <point x="7" y="-132"/>
      <point x="60" y="-85"/>
      <point x="94" y="-10"/>
      <point x="112" y="83"/>
      <point x="121" y="180"/>
      <point x="122" y="272"/>
      <point x="122" y="307" type="qcurve"/>
      <point x="122" y="327"/>
      <point x="120" y="390"/>
      <point x="115" y="465"/>
      <point x="106" y="545"/>
      <point x="98" y="581" type="qcurve"/>
      <point x="89" y="623"/>
      <point x="54" y="700"/>
      <point x="29" y="723" type="qcurve"/>
      <point x="18" y="733"/>
      <point x="-13" y="745"/>
      <point x="-31" y="746" type="qcurve"/>
      <point x="-31" y="767" type="line"/>
      <point x="9" y="765"/>
      <point x="86" y="726"/>
      <point x="153" y="651"/>
      <point x="206" y="542"/>
      <point x="223" y="471" type="qcurve"/>
      <point x="244" y="382"/>
      <point x="244" y="302" type="qcurve"/>
      <point x="244" y="211"/>
      <point x="199" y="45"/>
      <point x="165" y="-14" type="qcurve"/>
      <point x="147" y="-42"/>
      <point x="97" y="-99"/>
      <point x="76" y="-116" type="qcurve"/>
      <point x="51" y="-134"/>
      <point x="-2" y="-154"/>
      <point x="-31" y="-155" type="qcurve"/>
    </contour>
  </outline>
</glyph>
<glyph name="asterisk" format="2">
  <advance width="343"/>
  <unicode hex="002A"/>
  <outline>
    <contour>
      <point x="158" y="316" type="line"/>
      <point x="136" y="324"/>
      <point x="126" y="339"/>
      <point x="126" y="346" type="qcurve"/>
      <point x="126" y="351"/>
      <point x="130" y="373"/>
      <point x="136" y="401"/>
      <point x="144" y="432"/>
      <point x="149" y="445" type="qcurve"/>
      <point x="89" y="385" type="line"/>
      <point x="78" y="378"/>
      <point x="58" y="374"/>
      <point x="53" y="374" type="qcurve"/>
      <point x="48" y="374"/>
      <point x="36" y="380"/>
      <point x="32" y="391" type="qcurve"/>
      <point x="31" y="406" type="line"/>
      <point x="31" y="414"/>
      <point x="33" y="426"/>
      <point x="44" y="437"/>
      <point x="66" y="447"/>
      <point x="87" y="453" type="qcurve"/>
      <point x="97" y="456"/>
      <point x="116" y="462"/>
      <point x="125" y="466" type="qcurve"/>
      <point x="62" y="490" type="line"/>
      <point x="44" y="499"/>
      <point x="35" y="520"/>
      <point x="35" y="524" type="qcurve"/>
      <point x="35" y="531"/>
      <point x="44" y="542"/>
      <point x="57" y="550"/>
      <point x="70" y="555"/>
      <point x="74" y="555" type="qcurve"/>
      <point x="84" y="555"/>
      <point x="98" y="544" type="qcurve"/>
      <point x="149" y="493" type="line"/>
      <point x="131" y="577" type="line"/>
      <point x="131" y="600"/>
      <point x="148" y="620"/>
      <point x="158" y="620" type="qcurve"/>
      <point x="167" y="619" type="line"/>
      <point x="189" y="611"/>
      <point x="199" y="596"/>
      <point x="199" y="589" type="qcurve"/>
      <point x="199" y="585"/>
      <point x="194" y="565"/>
      <point x="192" y="554" type="qcurve"/>
      <point x="188" y="542"/>
      <point x="185" y="527" type="qcurve"/>
      <point x="185" y="524"/>
      <point x="184" y="523"/>
      <point x="184" y="521" type="qcurve"/>
      <point x="184" y="519"/>
      <point x="183" y="518"/>
      <point x="183" y="516" type="qcurve"/>
      <point x="183" y="515" type="line"/>
      <point x="182" y="515" type="line"/>
      <point x="182" y="511" type="line"/>
      <point x="181" y="510" type="line"/>
      <point x="180" y="504" type="line"/>
      <point x="180" y="496"/>
      <point x="175" y="482"/>
      <point x="173" y="475" type="qcurve"/>
      <point x="233" y="538" type="line"/>
      <point x="249" y="548"/>
      <point x="265" y="548" type="qcurve"/>
      <point x="276" y="548" type="line"/>
      <point x="281" y="547"/>
      <point x="291" y="537"/>
      <point x="291" y="514" type="qcurve"/>
      <point x="291" y="501"/>
      <point x="283" y="488"/>
      <point x="266" y="481" type="qcurve"/>
      <point x="257" y="476"/>
      <point x="224" y="464"/>
      <point x="206" y="457" type="qcurve"/>
      <point x="263" y="439" type="line"/>
      <point x="283" y="428"/>
      <point x="291" y="407"/>
      <point x="291" y="403" type="qcurve"/>
      <point x="291" y="395"/>
      <point x="281" y="383"/>
      <point x="268" y="375"/>
      <point x="254" y="371"/>
      <point x="251" y="371" type="qcurve"/>
      <point x="239" y="371"/>
      <point x="205" y="404"/>
      <point x="179" y="430" type="qcurve"/>
      <point x="194" y="358" type="line"/>
      <point x="194" y="335"/>
      <point x="177" y="315"/>
      <point x="167" y="315" type="qcurve"/>
    </contour>
  </outline>
</glyph>
<glyph name="plus" format="2">
  <advance width="431"/>
  <unicode hex="002B"/>
  <outline>
    <contour>
      <point x="197" y="161" type="line"/>
      <point x="197" y="340" type="line"/>
      <point x="21" y="340" type="line"/>
      <point x="21" y="377" type="line"/>
      <point x="197" y="377" type="line"/>
      <point x="197" y="547" type="line"/>
      <point x="234" y="547" type="line"/>
      <point x="234" y="377" type="line"/>
      <point x="407" y="377" type="line"/>
      <point x="407" y="340" type="line"/>
      <point x="234" y="340" type="line"/>
      <point x="234" y="161" type="line"/>
    </contour>
  </outline>
</glyph>
<glyph name="hyphenminus" format="2">
  <advance width="394"/>
  <unicode hex="002D"/>
  <outline>
    <contour>
      <point x="45" y="317" type="line"/>
      <point x="45" y="359" type="line"/>
      <point x="348" y="359" type="line"/>
      <point x="348" y="317" type="line"/>
    </contour>
  </outline>
</glyph>
<glyph name="period" format="2">
  <advance width="208"/>
  <unicode hex="002E"/>
  <outline>
    <contour>
      <point x="106" y="-11" type="qcurve"/>
      <point x="89" y="-11"/>
      <point x="64" y="18"/>
      <point x="64" y="41" type="qcurve"/>
      <point x="64" y="63"/>
      <point x="90" y="92"/>
      <point x="107" y="92" type="qcurve"/>
      <point x="124" y="92"/>
      <point x="149" y="61"/>
      <point x="149" y="41" type="qcurve"/>
      <point x="149" y="17"/>
      <point x="123" y="-11"/>
    </contour>
  </outline>
</glyph>
<glyph name="slash" format="2">
  <advance width="485"/>
  <unicode hex="002F"/>
  <outline>
    <contour>
      <point x="27" y="-130" type="line"/>
      <point x="416" y="785" type="line"/>
      <point x="452" y="785" type="line"/>
      <point x="63" y="-130" type="line"/>
    </contour>
  </outline>
</glyph>
<glyph name="zero" format="2">
  <advance width="454"/>
  <unicode hex="0030"/>
  <outline>
    <contour>
      <point x="227" y="-6" type="qcurve"/>
      <point x="175" y="-6"/>
      <point x="103" y="59"/>
      <point x="58" y="160"/>
      <point x="37" y="282"/>
      <point x="37" y="339" type="qcurve"/>
      <point x="37" y="388"/>
      <point x="53" y="482"/>
      <point x="85" y="564"/>
      <point x="135" y="630"/>
      <point x="169" y="652" type="qcurve"/>
      <point x="197" y="670"/>
      <point x="231" y="670" type="qcurve"/>
      <point x="265" y="670"/>
      <point x="323" y="635"/>
      <point x="368" y="578"/>
      <point x="399" y="507"/>
      <point x="407" y="471" type="qcurve"/>
      <point x="414" y="437"/>
      <point x="420" y="370"/>
      <point x="420" y="337" type="qcurve"/>
      <point x="420" y="286"/>
      <point x="405" y="188"/>
      <point x="374" y="103"/>
      <point x="323" y="33"/>
      <point x="287" y="11" type="qcurve"/>
      <point x="258" y="-6"/>
    </contour>
    <contour>
      <point x="224" y="9" type="qcurve"/>
      <point x="257" y="9"/>
      <point x="293" y="57"/>
      <point x="311" y="134"/>
      <point x="315" y="230"/>
      <point x="315" y="278" type="qcurve"/>
      <point x="315" y="396" type="line"/>
      <point x="315" y="432"/>
      <point x="312" y="504"/>
      <point x="304" y="568"/>
      <point x="290" y="619"/>
      <point x="278" y="635" type="qcurve"/>
      <point x="261" y="655"/>
      <point x="230" y="655" type="qcurve"/>
      <point x="198" y="655"/>
      <point x="162" y="610"/>
      <point x="143" y="539"/>
      <point x="138" y="451"/>
      <point x="138" y="407" type="qcurve"/>
      <point x="137" y="353" type="line"/>
      <point x="137" y="330" type="line"/>
      <point x="137" y="305"/>
      <point x="138" y="234"/>
      <point x="141" y="162"/>
      <point x="148" y="97"/>
      <point x="154" y="78" type="qcurve"/>
      <point x="164" y="49"/>
      <point x="196" y="9"/>
    </contour>
  </outline>
</glyph>
<glyph name="one" format="2">
  <advance width="454"/>
  <unicode hex="0031"/>
  <outline>
    <contour>
      <point x="138" y="0" type="line"/>
      <point x="137" y="17" type="line"/>
      <point x="211" y="17" type="line"/>
      <point x="210" y="580" type="line"/>
      <point x="181" y="560"/>
      <point x="112" y="509"/>
      <point x="81" y="489" type="qcurve"/>
      <point x="81" y="511" type="line"/>
      <point x="180" y="584"/>
      <point x="263" y="667" type="qcurve"/>
      <point x="305" y="667" type="line"/>
      <point x="305" y="17" type="line"/>
      <point x="377" y="17" type="line"/>
      <point x="377" y="0" type="line"/>
    </contour>
  </outline>
</glyph>
<glyph name="two" format="2">
  <advance width="454"/>
  <unicode hex="0032"/>
  <outline>
    <contour>
      <point x="26" y="0" type="line"/>
      <point x="36" y="44"/>
      <point x="84" y="114"/>
      <point x="143" y="177"/>
      <point x="206" y="241"/>
      <point x="258" y="318"/>
      <point x="292" y="415"/>
      <point x="292" y="480" type="qcurve"/>
      <point x="292" y="512"/>
      <point x="279" y="574"/>
      <point x="251" y="622"/>
      <point x="208" y="652"/>
      <point x="178" y="652" type="qcurve"/>
      <point x="160" y="652"/>
      <point x="118" y="634"/>
      <point x="83" y="602"/>
      <point x="60" y="558"/>
      <point x="60" y="533" type="qcurve"/>
      <point x="60" y="515"/>
      <point x="64" y="514" type="qcurve"/>
      <point x="68" y="511"/>
      <point x="73" y="511" type="qcurve"/>
      <point x="98" y="511"/>
      <point x="127" y="495"/>
      <point x="127" y="463" type="qcurve"/>
      <point x="127" y="441"/>
      <point x="104" y="414"/>
      <point x="87" y="414" type="qcurve"/>
      <point x="73" y="414"/>
      <point x="53" y="429"/>
      <point x="41" y="453"/>
      <point x="35" y="482"/>
      <point x="35" y="496" type="qcurve"/>
      <point x="35" y="539"/>
      <point x="64" y="605"/>
      <point x="112" y="649"/>
      <point x="174" y="671"/>
      <point x="207" y="671" type="qcurve"/>
      <point x="241" y="671"/>
      <point x="310" y="649"/>
      <point x="365" y="604"/>
      <point x="399" y="533"/>
      <point x="399" y="484" type="qcurve"/>
      <point x="399" y="428"/>
      <point x="354" y="340"/>
      <point x="283" y="264"/>
      <point x="197" y="197"/>
      <point x="157" y="162" type="qcurve"/>
      <point x="128" y="137"/>
      <point x="98" y="101" type="qcurve"/>
      <point x="385" y="100" type="line"/>
      <point x="400" y="185" type="line"/>
      <point x="415" y="185" type="line"/>
      <point x="408" y="142"/>
      <point x="400" y="47"/>
      <point x="394" y="0" type="qcurve"/>
    </contour>
  </outline>
</glyph>
<glyph name="three" format="2">
  <advance width="454"/>
  <unicode hex="0033"/>
  <outline>
    <contour>
      <point x="193" y="-6" type="qcurve"/>
      <point x="169" y="-6"/>
      <point x="113" y="6"/>
      <point x="65" y="34"/>
      <point x="32" y="82"/>
      <point x="32" y="117" type="qcurve"/>
      <point x="32" y="146"/>
      <point x="57" y="191"/>
      <point x="84" y="191" type="qcurve"/>
      <point x="103" y="191"/>
      <point x="125" y="162"/>
      <point x="125" y="142" type="qcurve"/>
      <point x="125" y="114"/>
      <point x="96" y="94"/>
      <point x="82" y="94" type="qcurve"/>
      <point x="78" y="94"/>
      <point x="72" y="95"/>
      <point x="68" y="96" type="qcurve"/>
      <point x="60" y="86" type="line"/>
      <point x="61" y="63"/>
      <point x="93" y="35"/>
      <point x="134" y="19"/>
      <point x="176" y="13"/>
      <point x="188" y="13" type="qcurve"/>
      <point x="216" y="13"/>
      <point x="260" y="43"/>
      <point x="291" y="91"/>
      <point x="308" y="151"/>
      <point x="308" y="181" type="qcurve"/>
      <point x="308" y="246"/>
      <point x="274" y="320"/>
      <point x="216" y="358"/>
      <point x="138" y="367"/>
      <point x="93" y="367" type="qcurve"/>
      <point x="94" y="369"/>
      <point x="94" y="382" type="qcurve"/>
      <point x="120" y="382"/>
      <point x="154" y="382"/>
      <point x="179" y="384" type="qcurve"/>
      <point x="204" y="385"/>
      <point x="246" y="401"/>
      <point x="277" y="434"/>
      <point x="295" y="489"/>
      <point x="295" y="530" type="qcurve"/>
      <point x="295" y="556"/>
      <point x="284" y="602"/>
      <point x="260" y="635"/>
      <point x="224" y="654"/>
      <point x="199" y="654" type="qcurve"/>
      <point x="189" y="654"/>
      <point x="155" y="646"/>
      <point x="123" y="630"/>
      <point x="98" y="606"/>
      <point x="97" y="591" type="qcurve"/>
      <point x="99" y="579" type="line"/>
      <point x="115" y="582" type="line"/>
      <point x="131" y="575"/>
      <point x="149" y="559"/>
      <point x="149" y="539" type="qcurve"/>
      <point x="149" y="519"/>
      <point x="124" y="493"/>
      <point x="110" y="493" type="qcurve"/>
      <point x="90" y="493"/>
      <point x="69" y="528"/>
      <point x="69" y="550" type="qcurve"/>
      <point x="69" y="583"/>
      <point x="98" y="630"/>
      <point x="143" y="658"/>
      <point x="194" y="671"/>
      <point x="217" y="671" type="qcurve"/>
      <point x="243" y="671"/>
      <point x="304" y="656"/>
      <point x="357" y="622"/>
      <point x="393" y="567"/>
      <point x="393" y="526" type="qcurve"/>
      <point x="393" y="494"/>
      <point x="372" y="446"/>
      <point x="336" y="410"/>
      <point x="289" y="385"/>
      <point x="262" y="375" type="qcurve"/>
      <point x="293" y="364"/>
      <point x="350" y="333"/>
      <point x="392" y="290"/>
      <point x="417" y="232"/>
      <point x="417" y="194" type="qcurve"/>
      <point x="417" y="143"/>
      <point x="373" y="68"/>
      <point x="307" y="19"/>
      <point x="228" y="-6"/>
    </contour>
  </outline>
</glyph>
<glyph name="four" format="2">
  <advance width="454"/>
  <unicode hex="0034"/>
  <outline>
    <contour>
      <point x="165" y="0" type="line"/>
      <point x="165" y="17" type="line"/>
      <point x="240" y="17" type="line"/>
      <point x="240" y="235" type="line"/>
      <point x="19" y="235" type="line"/>
      <point x="12" y="235"/>
      <point x="12" y="239" type="qcurve"/>
      <point x="15" y="245" type="line"/>
      <point x="15" y="244" type="line"/>
      <point x="304" y="683" type="line"/>
      <point x="321" y="683" type="line"/>
      <point x="77" y="304" type="line"/>
      <point x="242" y="304" type="line"/>
      <point x="242" y="457" type="line"/>
      <point x="339" y="589" type="line"/>
      <point x="339" y="304" type="line"/>
      <point x="418" y="304" type="line"/>
      <point x="418" y="235" type="line"/>
      <point x="339" y="235" type="line"/>
      <point x="339" y="17" type="line"/>
      <point x="416" y="17" type="line"/>
      <point x="416" y="0" type="line"/>
    </contour>
  </outline>
</glyph>
<glyph name="five" format="2">
  <advance width="454"/>
  <unicode hex="0035"/>
  <outline>
    <contour>
      <point x="187" y="-6" type="qcurve"/>
      <point x="161" y="-6"/>
      <point x="106" y="8"/>
      <point x="61" y="39"/>
      <point x="32" y="90"/>
      <point x="32" y="126" type="qcurve"/>
      <point x="32" y="152"/>
      <point x="57" y="192"/>
      <point x="81" y="192" type="qcurve"/>
      <point x="98" y="192"/>
      <point x="122" y="166"/>
      <point x="122" y="146" type="qcurve"/>
      <point x="122" y="118"/>
      <point x="91" y="104"/>
      <point x="72" y="104" type="qcurve"/>
      <point x="64" y="104"/>
      <point x="60" y="92"/>
      <point x="60" y="84" type="qcurve"/>
      <point x="60" y="62"/>
      <point x="89" y="34"/>
      <point x="129" y="17"/>
      <point x="170" y="10"/>
      <point x="182" y="10" type="qcurve"/>
      <point x="215" y="10"/>
      <point x="264" y="42"/>
      <point x="297" y="94"/>
      <point x="313" y="163"/>
      <point x="313" y="200" type="qcurve"/>
      <point x="313" y="236"/>
      <point x="301" y="305"/>
      <point x="271" y="360"/>
      <point x="222" y="394"/>
      <point x="185" y="394" type="qcurve"/>
      <point x="155" y="394"/>
      <point x="101" y="374"/>
      <point x="77" y="351" type="qcurve"/>
      <point x="68" y="357" type="line"/>
      <point x="83" y="421"/>
      <point x="83" y="490" type="qcurve"/>
      <point x="83" y="533"/>
      <point x="69" y="615"/>
      <point x="69" y="650" type="qcurve"/>
      <point x="69" y="658"/>
      <point x="97" y="667"/>
      <point x="133" y="672"/>
      <point x="166" y="673"/>
      <point x="172" y="673" type="qcurve"/>
      <point x="213" y="673"/>
      <point x="294" y="655"/>
      <point x="335" y="655" type="qcurve"/>
      <point x="344" y="655"/>
      <point x="349" y="675"/>
      <point x="349" y="683" type="qcurve"/>
      <point x="363" y="683" type="line"/>
      <point x="363" y="650"/>
      <point x="355" y="606"/>
      <point x="338" y="586" type="qcurve"/>
      <point x="313" y="555"/>
      <point x="271" y="555" type="qcurve"/>
      <point x="242" y="555"/>
      <point x="182" y="570"/>
      <point x="150" y="570" type="qcurve"/>
      <point x="138" y="570"/>
      <point x="112" y="563"/>
      <point x="97" y="555" type="qcurve"/>
      <point x="98" y="545"/>
      <point x="99" y="522"/>
      <point x="99" y="512" type="qcurve"/>
      <point x="99" y="481"/>
      <point x="91" y="424"/>
      <point x="91" y="385" type="qcurve"/>
      <point x="146" y="413"/>
      <point x="200" y="413" type="qcurve"/>
      <point x="239" y="413"/>
      <point x="318" y="389"/>
      <point x="381" y="339"/>
      <point x="421" y="261"/>
      <point x="421" y="208" type="qcurve"/>
      <point x="421" y="148"/>
      <point x="379" y="66"/>
      <point x="313" y="16"/>
      <point x="229" y="-6"/>
    </contour>
  </outline>
</glyph>
<glyph name="six" format="2">
  <advance width="454"/>
  <unicode hex="0036"/>
  <outline>
    <contour>
      <point x="232" y="-5" type="qcurve"/>
      <point x="189" y="-5"/>
      <point x="117" y="36"/>
      <point x="66" y="108"/>
      <point x="37" y="204"/>
      <point x="37" y="259" type="qcurve"/>
      <point x="37" y="340"/>
      <point x="68" y="420" type="qcurve"/>
      <point x="82" y="462"/>
      <point x="130" y="535"/>
      <point x="165" y="573" type="qcurve"/>
      <point x="228" y="645"/>
      <point x="378" y="684" type="qcurve"/>
      <point x="380" y="670" type="line"/>
      <point x="327" y="655"/>
      <point x="248" y="609"/>
      <point x="193" y="541"/>
      <point x="158" y="450"/>
      <point x="150" y="390" type="qcurve"/>
      <point x="204" y="423"/>
      <point x="247" y="423" type="qcurve"/>
      <point x="286" y="423"/>
      <point x="350" y="393"/>
      <point x="397" y="340"/>
      <point x="422" y="266"/>
      <point x="422" y="222" type="qcurve"/>
      <point x="422" y="175"/>
      <point x="392" y="93"/>
      <point x="340" y="31"/>
      <point x="271" y="-5"/>
    </contour>
    <contour>
      <point x="235" y="10" type="qcurve"/>
      <point x="274" y="10"/>
      <point x="329" y="107"/>
      <point x="332" y="215" type="qcurve"/>
      <point x="326" y="399"/>
      <point x="237" y="404" type="qcurve"/>
      <point x="175" y="404"/>
      <point x="154" y="345" type="qcurve"/>
      <point x="146" y="319"/>
      <point x="134" y="253"/>
      <point x="134" y="217" type="qcurve"/>
      <point x="138" y="104"/>
      <point x="185" y="10"/>
    </contour>
  </outline>
</glyph>
<glyph name="seven" format="2">
  <advance width="454"/>
  <unicode hex="0037"/>
  <outline>
    <contour>
      <point x="251" y="-6" type="qcurve"/>
      <point x="224" y="-6"/>
      <point x="203" y="40"/>
      <point x="203" y="68" type="qcurve"/>
      <point x="203" y="89"/>
      <point x="220" y="168"/>
      <point x="247" y="264"/>
      <point x="281" y="369"/>
      <point x="313" y="465"/>
      <point x="341" y="542"/>
      <point x="349" y="563" type="qcurve"/>
      <point x="66" y="563" type="line"/>
      <point x="58" y="552"/>
      <point x="50" y="521"/>
      <point x="47" y="508" type="qcurve"/>
      <point x="47" y="506" type="line"/>
      <point x="32" y="506" type="line"/>
      <point x="37" y="543"/>
      <point x="41" y="614"/>
      <point x="47" y="649" type="qcurve"/>
      <point x="49" y="667" type="line"/>
      <point x="436" y="667" type="line"/>
      <point x="326" y="396" type="line"/>
      <point x="327" y="396" type="line"/>
      <point x="318" y="375"/>
      <point x="284" y="287"/>
      <point x="250" y="191"/>
      <point x="225" y="105"/>
      <point x="225" y="86" type="qcurve"/>
      <point x="225" y="76"/>
      <point x="232" y="76" type="qcurve"/>
      <point x="238" y="77" type="line"/>
      <point x="238" y="78" type="line"/>
      <point x="241" y="78"/>
      <point x="247" y="82"/>
      <point x="252" y="82" type="qcurve"/>
      <point x="268" y="82"/>
      <point x="289" y="57"/>
      <point x="289" y="38" type="qcurve"/>
      <point x="289" y="-6"/>
    </contour>
  </outline>
</glyph>
<glyph name="eight" format="2">
  <advance width="454"/>
  <unicode hex="0038"/>
  <outline>
    <contour>
      <point x="226" y="-6" type="qcurve"/>
      <point x="194" y="-6"/>
      <point x="126" y="12"/>
      <point x="69" y="52"/>
      <point x="33" y="117"/>
      <point x="33" y="164" type="qcurve"/>
      <point x="33" y="204"/>
      <point x="62" y="263"/>
      <point x="107" y="308"/>
      <point x="163" y="339"/>
      <point x="189" y="351" type="qcurve"/>
      <point x="188" y="364" type="line"/>
      <point x="165" y="372"/>
      <point x="119" y="396"/>
      <point x="83" y="432"/>
      <point x="60" y="480"/>
      <point x="60" y="511" type="qcurve"/>
      <point x="60" y="551"/>
      <point x="92" y="611"/>
      <point x="141" y="650"/>
      <point x="202" y="670"/>
      <point x="232" y="670" type="qcurve"/>
      <point x="260" y="670"/>
      <point x="319" y="652"/>
      <point x="367" y="614"/>
      <point x="397" y="555"/>
      <point x="397" y="515" type="qcurve"/>
      <point x="397" y="484"/>
      <point x="371" y="435"/>
      <point x="330" y="397"/>
      <point x="279" y="368"/>
      <point x="253" y="358" type="qcurve"/>
      <point x="282" y="346"/>
      <point x="343" y="313"/>
      <point x="392" y="268"/>
      <point x="424" y="209"/>
      <point x="424" y="172" type="qcurve"/>
      <point x="424" y="126"/>
      <point x="387" y="59"/>
      <point x="329" y="15"/>
      <point x="259" y="-6"/>
    </contour>
    <contour>
      <point x="232" y="365" type="qcurve"/>
      <point x="257" y="365"/>
      <point x="285" y="396"/>
      <point x="299" y="443"/>
      <point x="302" y="496"/>
      <point x="302" y="517" type="qcurve"/>
      <point x="302" y="538"/>
      <point x="297" y="587"/>
      <point x="282" y="628"/>
      <point x="254" y="655"/>
      <point x="232" y="655" type="qcurve"/>
      <point x="208" y="655"/>
      <point x="176" y="630"/>
      <point x="158" y="590"/>
      <point x="151" y="541"/>
      <point x="151" y="517" type="qcurve"/>
      <point x="151" y="492"/>
      <point x="154" y="438"/>
      <point x="170" y="394"/>
      <point x="203" y="365"/>
    </contour>
    <contour>
      <point x="232" y="9" type="qcurve"/>
      <point x="262" y="9"/>
      <point x="299" y="35"/>
      <point x="321" y="78"/>
      <point x="329" y="135"/>
      <point x="329" y="165" type="qcurve"/>
      <point x="329" y="194"/>
      <point x="324" y="259"/>
      <point x="304" y="313"/>
      <point x="264" y="349"/>
      <point x="230" y="349" type="qcurve"/>
      <point x="197" y="349"/>
      <point x="157" y="316"/>
      <point x="137" y="265"/>
      <point x="131" y="202"/>
      <point x="131" y="173" type="qcurve"/>
      <point x="131" y="140"/>
      <point x="138" y="81"/>
      <point x="159" y="36"/>
      <point x="199" y="9"/>
    </contour>
  </outline>
</glyph>
<glyph name="nine" format="2">
  <advance width="454"/>
  <unicode hex="0039"/>
  <outline>
    <contour>
      <point x="77" y="-5" type="line"/>
      <point x="132" y="10"/>
      <point x="212" y="58"/>
      <point x="266" y="127"/>
      <point x="298" y="217"/>
      <point x="306" y="274" type="qcurve"/>
      <point x="253" y="242"/>
      <point x="210" y="242" type="qcurve"/>
      <point x="172" y="242"/>
      <point x="107" y="271"/>
      <point x="60" y="323"/>
      <point x="34" y="398"/>
      <point x="34" y="443" type="qcurve"/>
      <point x="34" y="486"/>
      <point x="62" y="568"/>
      <point x="113" y="631"/>
      <point x="183" y="670"/>
      <point x="224" y="670" type="qcurve"/>
      <point x="269" y="670"/>
      <point x="342" y="627"/>
      <point x="392" y="554"/>
      <point x="419" y="458"/>
      <point x="419" y="406" type="qcurve"/>
      <point x="419" y="318"/>
      <point x="357" y="166"/>
      <point x="291" y="92" type="qcurve"/>
      <point x="224" y="20"/>
      <point x="80" y="-19" type="qcurve"/>
    </contour>
    <contour>
      <point x="219" y="261" type="qcurve"/>
      <point x="251" y="261"/>
      <point x="291" y="293"/>
      <point x="314" y="345"/>
      <point x="322" y="413"/>
      <point x="322" y="448" type="qcurve"/>
      <point x="318" y="559"/>
      <point x="272" y="655"/>
      <point x="222" y="655" type="qcurve"/>
      <point x="181" y="655"/>
      <point x="128" y="556"/>
      <point x="124" y="450" type="qcurve"/>
      <point x="131" y="266"/>
    </contour>
  </outline>
</glyph>
<glyph name="colon" format="2">
  <advance width="208"/>
  <unicode hex="003A"/>
  <outline>
    <contour>
      <point x="103" y="257" type="qcurve"/>
      <point x="86" y="257"/>
      <point x="61" y="286"/>
      <point x="61" y="309" type="qcurve"/>
      <point x="61" y="331"/>
      <point x="87" y="359"/>
      <point x="104" y="359" type="qcurve"/>
      <point x="121" y="359"/>
      <point x="146" y="331"/>
      <point x="146" y="309" type="qcurve"/>
      <point x="146" y="285"/>
      <point x="120" y="257"/>
    </contour>
    <contour>
      <point x="105" y="-9" type="qcurve"/>
      <point x="86" y="-9"/>
      <point x="62" y="21"/>
      <point x="62" y="43" type="qcurve"/>
      <point x="62" y="65"/>
      <point x="88" y="94"/>
      <point x="105" y="94" type="qcurve"/>
      <point x="122" y="94"/>
      <point x="148" y="65"/>
      <point x="148" y="43" type="qcurve"/>
      <point x="148" y="19"/>
      <point x="122" y="-9"/>
    </contour>
  </outline>
</glyph>
<glyph name="semicolon" format="2">
  <advance width="209"/>
  <unicode hex="003B"/>
  <outline>
    <contour>
      <point x="97" y="257" type="qcurve"/>
      <point x="78" y="257"/>
      <point x="55" y="287"/>
      <point x="55" y="309" type="qcurve"/>
      <point x="55" y="331"/>
      <point x="81" y="359"/>
      <point x="98" y="359" type="qcurve"/>
      <point x="115" y="359"/>
      <point x="140" y="331"/>
      <point x="140" y="309" type="qcurve"/>
      <point x="140" y="285"/>
      <point x="114" y="257"/>
    </contour>
    <contour>
      <point x="90" y="-155" type="line"/>
      <point x="107" y="-134"/>
      <point x="143" y="-67"/>
      <point x="143" y="-26" type="qcurve"/>
      <point x="143" y="-9"/>
      <point x="133" y="29"/>
      <point x="121" y="49" type="qcurve"/>
      <point x="114" y="43" type="line"/>
      <point x="118" y="35"/>
      <point x="118" y="24" type="qcurve"/>
      <point x="118" y="13"/>
      <point x="103" y="-9"/>
      <point x="80" y="-9" type="qcurve"/>
      <point x="63" y="-9"/>
      <point x="41" y="18"/>
      <point x="41" y="38" type="qcurve"/>
      <point x="41" y="63"/>
      <point x="72" y="91"/>
      <point x="91" y="91" type="qcurve"/>
      <point x="109" y="91"/>
      <point x="137" y="72"/>
      <point x="155" y="41"/>
      <point x="164" y="3"/>
      <point x="164" y="-15" type="qcurve"/>
      <point x="164" y="-43"/>
      <point x="157" y="-86"/>
      <point x="141" y="-121"/>
      <point x="117" y="-152"/>
      <point x="100" y="-169" type="qcurve"/>
    </contour>
  </outline>
</glyph>
<glyph name="less" format="2">
  <advance width="250"/>
  <unicode hex="003C"/>
  <outline>
    <contour>
      <point x="28" y="297" type="line"/>
      <point x="28" y="356" type="line"/>
      <point x="215" y="501" type="line"/>
      <point x="238" y="462" type="line"/>
      <point x="63" y="327" type="line"/>
      <point x="238" y="191" type="line"/>
      <point x="215" y="152" type="line"/>
    </contour>
  </outline>
</glyph>
<glyph name="equal" format="2">
  <advance width="388"/>
  <unicode hex="003D"/>
  <outline>
    <contour>
      <point x="45" y="257" type="line"/>
      <point x="45" y="299" type="line"/>
      <point x="348" y="299" type="line"/>
      <point x="348" y="257" type="line"/>
    </contour>
    <contour>
      <point x="45" y="397" type="line"/>
      <point x="45" y="439" type="line"/>
      <point x="348" y="439" type="line"/>
      <point x="348" y="397" type="line"/>
    </contour>
  </outline>
</glyph>
<glyph name="greater" format="2">
  <advance width="250"/>
  <unicode hex="003E"/>
  <outline>
    <contour>
      <point x="28" y="191" type="line"/>
      <point x="203" y="326" type="line"/>
      <point x="28" y="462" type="line"/>
      <point x="51" y="501" type="line"/>
      <point x="238" y="356" type="line"/>
      <point x="238" y="297" type="line"/>
      <point x="51" y="152" type="line"/>
    </contour>
  </outline>
</glyph>
<glyph name="question" format="2">
  <advance width="330"/>
  <unicode hex="003F"/>
  <outline>
    <contour>
      <point x="101" y="153" type="line"/>
      <point x="89" y="185"/>
      <point x="75" y="245"/>
      <point x="75" y="268" type="qcurve"/>
      <point x="75" y="306"/>
      <point x="104" y="366"/>
      <point x="147" y="415"/>
      <point x="198" y="457"/>
      <point x="241" y="497"/>
      <point x="270" y="539"/>
      <point x="270" y="564" type="qcurve"/>
      <point x="270" y="590"/>
      <point x="250" y="629"/>
      <point x="218" y="654"/>
      <point x="179" y="667"/>
      <point x="161" y="667" type="qcurve"/>
      <point x="152" y="667"/>
      <point x="124" y="660"/>
      <point x="96" y="647"/>
      <point x="76" y="625"/>
      <point x="76" y="610" type="qcurve"/>
      <point x="76" y="602"/>
      <point x="90" y="597"/>
      <point x="94" y="597" type="qcurve"/>
      <point x="129" y="589"/>
      <point x="129" y="550" type="qcurve"/>
      <point x="129" y="530"/>
      <point x="107" y="505"/>
      <point x="90" y="505" type="qcurve"/>
      <point x="69" y="505"/>
      <point x="46" y="548"/>
      <point x="46" y="572" type="qcurve"/>
      <point x="46" y="599"/>
      <point x="67" y="641"/>
      <point x="101" y="669"/>
      <point x="141" y="684"/>
      <point x="161" y="684" type="qcurve"/>
      <point x="221" y="684"/>
      <point x="297" y="597"/>
      <point x="297" y="520" type="qcurve"/>
      <point x="297" y="502"/>
      <point x="294" y="464"/>
      <point x="288" y="446" type="qcurve"/>
      <point x="278" y="415"/>
      <point x="244" y="368"/>
      <point x="205" y="330"/>
      <point x="165" y="297"/>
      <point x="132" y="262"/>
      <point x="112" y="221"/>
      <point x="112" y="194" type="qcurve"/>
      <point x="112" y="171"/>
      <point x="116" y="156" type="qcurve"/>
    </contour>
    <contour>
      <point x="116" y="156" type="line"/>
      <point x="127" y="159" type="line"/>
      <point x="119" y="149" type="line"/>
    </contour>
    <contour>
      <point x="116" y="-11" type="qcurve"/>
      <point x="97" y="-11"/>
      <point x="74" y="19"/>
      <point x="74" y="41" type="qcurve"/>
      <point x="74" y="61"/>
      <point x="98" y="92"/>
      <point x="117" y="92" type="qcurve"/>
      <point x="134" y="92"/>
      <point x="159" y="61"/>
      <point x="159" y="41" type="qcurve"/>
      <point x="159" y="17"/>
      <point x="133" y="-11"/>
    </contour>
  </outline>
</glyph>
<glyph name="at" format="2">
  <advance width="796"/>
  <unicode hex="0040"/>
  <outline>
    <contour>
      <point x="398" y="-81" type="qcurve"/>
      <point x="314" y="-81"/>
      <point x="176" y="-21"/>
      <point x="76" y="78"/>
      <point x="21" y="205"/>
      <point x="21" y="273" type="qcurve"/>
      <point x="21" y="344"/>
      <point x="78" y="472"/>
      <point x="179" y="570"/>
      <point x="317" y="627"/>
      <point x="398" y="627" type="qcurve"/>
      <point x="458" y="627"/>
      <point x="566" y="594"/>
      <point x="656" y="537"/>
      <point x="725" y="457"/>
      <point x="746" y="411" type="qcurve"/>
      <point x="775" y="341"/>
      <point x="775" y="273" type="qcurve"/>
      <point x="775" y="248"/>
      <point x="768" y="203"/>
      <point x="759" y="175" type="qcurve"/>
      <point x="756" y="165"/>
      <point x="747" y="145"/>
      <point x="740" y="135" type="qcurve"/>
      <point x="729" y="112"/>
      <point x="671" y="70"/>
      <point x="621" y="64" type="qcurve"/>
      <point x="598" y="61"/>
      <point x="565" y="60"/>
      <point x="562" y="60" type="qcurve"/>
      <point x="545" y="60"/>
      <point x="505" y="65"/>
      <point x="470" y="79"/>
      <point x="446" y="103"/>
      <point x="446" y="123" type="qcurve"/>
      <point x="432" y="116"/>
      <point x="397" y="102"/>
      <point x="361" y="91"/>
      <point x="326" y="83"/>
      <point x="313" y="83" type="qcurve"/>
      <point x="291" y="82" type="line"/>
      <point x="261" y="82"/>
      <point x="201" y="96"/>
      <point x="183" y="119" type="qcurve"/>
      <point x="164" y="142"/>
      <point x="156" y="190"/>
      <point x="156" y="210" type="qcurve"/>
      <point x="156" y="234"/>
      <point x="171" y="303"/>
      <point x="202" y="372"/>
      <point x="249" y="432"/>
      <point x="281" y="448" type="qcurve"/>
      <point x="322" y="468"/>
      <point x="346" y="470" type="qcurve"/>
      <point x="375" y="471" type="line"/>
      <point x="400" y="471"/>
      <point x="444" y="461"/>
      <point x="481" y="448"/>
      <point x="507" y="435"/>
      <point x="514" y="431" type="qcurve"/>
      <point x="514" y="433" type="line"/>
      <point x="515" y="434" type="line"/>
      <point x="612" y="441" type="line"/>
      <point x="548" y="171" type="line"/>
      <point x="545" y="160"/>
      <point x="544" y="146"/>
      <point x="544" y="136" type="qcurve"/>
      <point x="545" y="122"/>
      <point x="559" y="98"/>
      <point x="579" y="95" type="qcurve"/>
      <point x="586" y="94"/>
      <point x="600" y="93"/>
      <point x="608" y="93" type="qcurve"/>
      <point x="612" y="93"/>
      <point x="638" y="95"/>
      <point x="671" y="107"/>
      <point x="705" y="133"/>
      <point x="719" y="157" type="qcurve"/>
      <point x="733" y="181"/>
      <point x="748" y="242"/>
      <point x="748" y="273" type="qcurve"/>
      <point x="748" y="342"/>
      <point x="693" y="462"/>
      <point x="597" y="551"/>
      <point x="470" y="602"/>
      <point x="398" y="602" type="qcurve"/>
      <point x="325" y="602"/>
      <point x="197" y="550"/>
      <point x="103" y="460"/>
      <point x="48" y="340"/>
      <point x="48" y="273" type="qcurve"/>
      <point x="48" y="204"/>
      <point x="103" y="84"/>
      <point x="199" y="-5"/>
      <point x="326" y="-56"/>
      <point x="398" y="-56" type="qcurve"/>
      <point x="437" y="-56"/>
      <point x="520" y="-39"/>
      <point x="559" y="-19" type="qcurve"/>
      <point x="569" y="-24"/>
      <point x="574" y="-29"/>
      <point x="585" y="-35" type="qcurve"/>
      <point x="532" y="-61"/>
      <point x="447" y="-81"/>
    </contour>
    <contour>
      <point x="327" y="112" type="qcurve"/>
      <point x="335" y="112"/>
      <point x="367" y="120"/>
      <point x="403" y="132"/>
      <point x="437" y="145"/>
      <point x="446" y="150" type="qcurve"/>
      <point x="448" y="177"/>
      <point x="463" y="249"/>
      <point x="482" y="321"/>
      <point x="501" y="387"/>
      <point x="507" y="408" type="qcurve"/>
      <point x="478" y="421"/>
      <point x="440" y="433"/>
      <point x="430" y="434" type="qcurve"/>
      <point x="409" y="434" type="line"/>
      <point x="364" y="434"/>
      <point x="307" y="384"/>
      <point x="276" y="315"/>
      <point x="265" y="240"/>
      <point x="265" y="216" type="qcurve"/>
      <point x="265" y="210"/>
      <point x="266" y="191"/>
      <point x="270" y="168"/>
      <point x="277" y="143"/>
      <point x="284" y="132" type="qcurve"/>
      <point x="291" y="121"/>
      <point x="313" y="112"/>
    </contour>
  </outline>
</glyph>
<glyph name="E" format="2">
  <advance width="558"/>
  <unicode hex="0045"/>
  <outline>
    <contour>
      <point x="27" y="0" type="line"/>
      <point x="27" y="17" type="line"/>
      <point x="77" y="17" type="line"/>
      <point x="77" y="650" type="line"/>
      <point x="27" y="650" type="line"/>
      <point x="27" y="667" type="line"/>
      <point x="528" y="667" type="line"/>
      <point x="529" y="503" type="line"/>
      <point x="512" y="503" type="line"/>
      <point x="504" y="557"/>
      <point x="465" y="615"/>
      <point x="406" y="642"/>
      <point x="330" y="647"/>
      <point x="286" y="647" type="qcurve"/>
      <point x="198" y="647" type="line"/>
      <point x="198" y="352" type="line"/>
      <point x="224" y="352" type="line"/>
      <point x="255" y="352"/>
      <point x="302" y="356"/>
      <point x="333" y="378"/>
      <point x="350" y="424"/>
      <point x="351" y="467" type="qcurve"/>
      <point x="367" y="467" type="line"/>
      <point x="367" y="215" type="line"/>
      <point x="351" y="215" type="line"/>
      <point x="350" y="253"/>
      <point x="336" y="298"/>
      <point x="312" y="321"/>
      <point x="278" y="328"/>
      <point x="257" y="328" type="qcurve"/>
      <point x="198" y="328" type="line"/>
      <point x="198" y="20" type="line"/>
      <point x="295" y="20" type="line"/>
      <point x="341" y="20"/>
      <point x="420" y="26"/>
      <point x="478" y="59"/>
      <point x="512" y="131"/>
      <point x="512" y="197" type="qcurve"/>
      <point x="529" y="197" type="line"/>
      <point x="529" y="0" type="line"/>
    </contour>
  </outline>
</glyph>
<glyph name="F" format="2">
  <advance width="509"/>
  <unicode hex="0046"/>
  <outline>
    <contour>
      <point x="27" y="0" type="line"/>
      <point x="27" y="17" type="line"/>
      <point x="76" y="17" type="line"/>
      <point x="76" y="650" type="line"/>
      <point x="27" y="650" type="line"/>
      <point x="27" y="667" type="line"/>
      <point x="489" y="667" type="line"/>
      <point x="490" y="491" type="line"/>
      <point x="472" y="491" type="line"/>
      <point x="470" y="549"/>
      <point x="442" y="614"/>
      <point x="394" y="644"/>
      <point x="327" y="650"/>
      <point x="286" y="650" type="qcurve"/>
      <point x="192" y="650" type="line"/>
      <point x="192" y="353" type="line"/>
      <point x="225" y="353" type="line"/>
      <point x="259" y="353"/>
      <point x="311" y="357"/>
      <point x="345" y="380"/>
      <point x="363" y="429"/>
      <point x="363" y="475" type="qcurve"/>
      <point x="379" y="475" type="line"/>
      <point x="379" y="213" type="line"/>
      <point x="363" y="213" type="line"/>
      <point x="362" y="251"/>
      <point x="346" y="298"/>
      <point x="319" y="323"/>
      <point x="280" y="332"/>
      <point x="256" y="332" type="qcurve"/>
      <point x="192" y="331" type="line"/>
      <point x="192" y="17" type="line"/>
      <point x="251" y="17" type="line"/>
      <point x="251" y="0" type="line"/>
    </contour>
  </outline>
</glyph>
<glyph name="H" format="2">
  <advance width="678"/>
  <unicode hex="0048"/>
  <outline>
    <contour>
      <point x="414" y="0" type="line"/>
      <point x="414" y="17" type="line"/>
      <point x="477" y="17" type="line"/>
      <point x="477" y="330" type="line"/>
      <point x="206" y="330" type="line"/>
      <point x="206" y="17" type="line"/>
      <point x="271" y="17" type="line"/>
      <point x="271" y="0" type="line"/>
      <point x="27" y="0" type="line"/>
      <point x="27" y="17" type="line"/>
      <point x="87" y="17" type="line"/>
      <point x="82" y="650" type="line"/>
      <point x="27" y="650" type="line"/>
      <point x="27" y="667" type="line"/>
      <point x="271" y="667" type="line"/>
      <point x="271" y="650" type="line"/>
      <point x="206" y="650" type="line"/>
      <point x="206" y="351" type="line"/>
      <point x="477" y="351" type="line"/>
      <point x="477" y="650" type="line"/>
      <point x="414" y="650" type="line"/>
      <point x="414" y="667" type="line"/>
      <point x="658" y="667" type="line"/>
      <point x="658" y="650" type="line"/>
      <point x="595" y="650" type="line"/>
      <point x="595" y="17" type="line"/>
      <point x="658" y="17" type="line"/>
      <point x="658" y="0" type="line"/>
    </contour>
  </outline>
</glyph>
<glyph name="K" format="2">
  <advance width="599"/>
  <unicode hex="004B"/>
  <outline>
    <contour>
      <point x="345" y="0" type="line"/>
      <point x="345" y="17" type="line"/>
      <point x="415" y="17" type="line"/>
      <point x="207" y="341" type="line"/>
      <point x="200" y="321" type="line"/>
      <point x="200" y="17" type="line"/>
      <point x="256" y="17" type="line"/>
      <point x="256" y="0" type="line"/>
      <point x="27" y="0" type="line"/>
      <point x="27" y="17" type="line"/>
      <point x="85" y="17" type="line"/>
      <point x="85" y="650" type="line"/>
      <point x="27" y="650" type="line"/>
      <point x="27" y="667" type="line"/>
      <point x="252" y="667" type="line"/>
      <point x="252" y="650" type="line"/>
      <point x="200" y="650" type="line"/>
      <point x="200" y="348" type="line"/>
      <point x="401" y="567" type="line"/>
      <point x="401" y="566" type="line"/>
      <point x="443" y="611"/>
      <point x="443" y="630" type="qcurve"/>
      <point x="443" y="642"/>
      <point x="424" y="650"/>
      <point x="405" y="650" type="qcurve"/>
      <point x="364" y="650" type="line"/>
      <point x="364" y="667" type="line"/>
      <point x="594" y="667" type="line"/>
      <point x="594" y="650" type="line"/>
      <point x="552" y="650"/>
      <point x="496" y="637"/>
      <point x="473" y="617" type="qcurve"/>
      <point x="396" y="540"/>
      <point x="294" y="420" type="qcurve"/>
      <point x="550" y="17" type="line"/>
      <point x="609" y="17" type="line"/>
      <point x="609" y="0" type="line"/>
    </contour>
  </outline>
</glyph>
<glyph name="L" format="2">
  <advance width="540"/>
  <unicode hex="004C"/>
  <outline>
    <contour>
      <point x="27" y="0" type="line"/>
      <point x="27" y="17" type="line"/>
      <point x="90" y="17" type="line"/>
      <point x="90" y="650" type="line"/>
      <point x="27" y="650" type="line"/>
      <point x="27" y="667" type="line"/>
      <point x="273" y="667" type="line"/>
      <point x="273" y="650" type="line"/>
      <point x="203" y="650" type="line"/>
      <point x="203" y="17" type="line"/>
      <point x="320" y="17" type="line"/>
      <point x="366" y="17"/>
      <point x="435" y="26"/>
      <point x="481" y="66"/>
      <point x="504" y="148"/>
      <point x="504" y="221" type="qcurve"/>
      <point x="520" y="221" type="line"/>
      <point x="520" y="0" type="line"/>
    </contour>
  </outline>
</glyph>
<glyph name="N" format="2">
  <advance width="626"/>
  <unicode hex="004E"/>
  <outline>
    <contour>
      <point x="481" y="-5" type="line"/>
      <point x="122" y="589" type="line"/>
      <point x="122" y="122" type="line"/>
      <point x="123" y="61" type="line"/>
      <point x="124" y="44"/>
      <point x="132" y="27"/>
      <point x="150" y="18"/>
      <point x="181" y="17"/>
      <point x="205" y="17" type="qcurve"/>
      <point x="205" y="0" type="line"/>
      <point x="21" y="0" type="line"/>
      <point x="21" y="17" type="line"/>
      <point x="45" y="17"/>
      <point x="75" y="19"/>
      <point x="93" y="27"/>
      <point x="101" y="42"/>
      <point x="102" y="55" type="qcurve"/>
      <point x="103" y="105" type="line"/>
      <point x="103" y="637" type="line"/>
      <point x="90" y="650" type="line"/>
      <point x="21" y="650" type="line"/>
      <point x="21" y="667" type="line"/>
      <point x="222" y="667" type="line"/>
      <point x="512" y="191" type="line"/>
      <point x="512" y="567" type="line"/>
      <point x="512" y="591"/>
      <point x="510" y="622"/>
      <point x="504" y="640"/>
      <point x="494" y="648"/>
      <point x="486" y="649" type="qcurve"/>
      <point x="454" y="650" type="line"/>
      <point x="432" y="650" type="line"/>
      <point x="432" y="667" type="line"/>
      <point x="613" y="667" type="line"/>
      <point x="613" y="650" type="line"/>
      <point x="590" y="650" type="line"/>
      <point x="558" y="649" type="line"/>
      <point x="549" y="648"/>
      <point x="538" y="640"/>
      <point x="533" y="622"/>
      <point x="531" y="591"/>
      <point x="531" y="567" type="qcurve"/>
      <point x="531" y="-5" type="line"/>
    </contour>
  </outline>
</glyph>
<glyph name="P" format="2">
  <advance width="515"/>
  <unicode hex="0050"/>
  <outline>
    <contour>
      <point x="27" y="0" type="line"/>
      <point x="27" y="17" type="line"/>
      <point x="87" y="17" type="line"/>
      <point x="87" y="650" type="line"/>
      <point x="27" y="650" type="line"/>
      <point x="27" y="667" type="line"/>
      <point x="261" y="667" type="line"/>
      <point x="297" y="667"/>
      <point x="380" y="654"/>
      <point x="452" y="615"/>
      <point x="499" y="543"/>
      <point x="499" y="484" type="qcurve"/>
      <point x="499" y="432"/>
      <point x="458" y="359"/>
      <point x="394" y="314"/>
      <point x="317" y="293"/>
      <point x="281" y="293" type="qcurve"/>
      <point x="261" y="293"/>
      <point x="222" y="299"/>
      <point x="202" y="313" type="qcurve"/>
      <point x="201" y="17" type="line"/>
      <point x="265" y="17" type="line"/>
      <point x="265" y="0" type="line"/>
    </contour>
    <contour>
      <point x="263" y="312" type="qcurve"/>
      <point x="292" y="312"/>
      <point x="340" y="336"/>
      <point x="374" y="379"/>
      <point x="392" y="438"/>
      <point x="392" y="473" type="qcurve"/>
      <point x="392" y="568"/>
      <point x="303" y="652"/>
      <point x="227" y="652" type="qcurve"/>
      <point x="203" y="649" type="line"/>
      <point x="202" y="332" type="line"/>
      <point x="231" y="312"/>
    </contour>
  </outline>
</glyph>
<glyph name="T" format="2">
  <advance width="526"/>
  <unicode hex="0054"/>
  <outline>
    <contour>
      <point x="136" y="0" type="line"/>
      <point x="136" y="17" type="line"/>
      <point x="207" y="17" type="line"/>
      <point x="207" y="650" type="line"/>
      <point x="156" y="650"/>
      <point x="89" y="638"/>
      <point x="48" y="599"/>
      <point x="31" y="527"/>
      <point x="31" y="466" type="qcurve"/>
      <point x="13" y="466" type="line"/>
      <point x="15" y="520"/>
      <point x="16" y="614"/>
      <point x="18" y="667" type="qcurve"/>
      <point x="513" y="667" type="line"/>
      <point x="516" y="466" type="line"/>
      <point x="500" y="466" type="line"/>
      <point x="500" y="526"/>
      <point x="486" y="598"/>
      <point x="447" y="637"/>
      <point x="379" y="650"/>
      <point x="325" y="650" type="qcurve"/>
      <point x="325" y="17" type="line"/>
      <point x="393" y="17" type="line"/>
      <point x="393" y="0" type="line"/>
    </contour>
  </outline>
</glyph>
<glyph name="W" format="2">
  <advance width="735"/>
  <unicode hex="0057"/>
  <outline>
    <contour>
      <point x="37" y="650" type="line"/>
      <point x="-13" y="650" type="line"/>
      <point x="-13" y="667" type="line"/>
      <point x="547" y="667" type="line"/>
      <point x="547" y="650" type="line"/>
      <point x="517" y="650"/>
      <point x="479" y="640"/>
      <point x="456" y="616"/>
      <point x="443" y="578"/>
      <point x="436" y="551" type="qcurve"/>
      <point x="420" y="491" type="line"/>
      <point x="511" y="168" type="line"/>
      <point x="523" y="201"/>
      <point x="553" y="290"/>
      <point x="584" y="385"/>
      <point x="615" y="478"/>
      <point x="638" y="557"/>
      <point x="653" y="611"/>
      <point x="653" y="620" type="qcurve"/>
      <point x="653" y="639"/>
      <point x="621" y="650"/>
      <point x="607" y="650" type="qcurve"/>
      <point x="588" y="650" type="line"/>
      <point x="588" y="667" type="line"/>
      <point x="766" y="667" type="line"/>
      <point x="766" y="650" type="line"/>
      <point x="737" y="650"/>
      <point x="705" y="647"/>
      <point x="686" y="632"/>
      <point x="672" y="600"/>
      <point x="662" y="570" type="qcurve"/>
      <point x="471" y="-23" type="line"/>
      <point x="455" y="-23" type="line"/>
      <point x="361" y="305" type="line"/>
      <point x="268" y="-23" type="line"/>
      <point x="244" y="-24" type="line"/>
    </contour>
    <contour>
      <point x="349" y="332" type="line"/>
      <point x="251" y="650" type="line"/>
      <point x="149" y="650" type="line"/>
      <point x="297" y="157" type="line"/>
    </contour>
    <contour>
      <point x="411" y="516" type="line"/>
      <point x="412" y="518"/>
      <point x="421" y="550"/>
      <point x="432" y="588"/>
      <point x="441" y="622"/>
      <point x="441" y="626" type="qcurve"/>
      <point x="441" y="635"/>
      <point x="432" y="644"/>
      <point x="419" y="649"/>
      <point x="406" y="650"/>
      <point x="402" y="650" type="qcurve"/>
      <point x="373" y="650" type="line"/>
    </contour>
  </outline>
</glyph>
<glyph name="bracketleft" format="2">
  <advance width="211"/>
  <unicode hex="005B"/>
  <outline>
    <contour>
      <point x="54" y="-158" type="line"/>
      <point x="54" y="783" type="line"/>
      <point x="284" y="783" type="line"/>
      <point x="284" y="760" type="line"/>
      <point x="162" y="760" type="line"/>
      <point x="162" y="-130" type="line"/>
      <point x="284" y="-130" type="line"/>
      <point x="284" y="-158" type="line"/>
    </contour>
  </outline>
</glyph>
<glyph name="backslash" format="2">
  <advance width="419"/>
  <unicode hex="005C"/>
  <outline>
    <contour>
      <point x="323" y="0" type="line"/>
      <point x="56" y="700" type="line"/>
      <point x="96" y="700" type="line"/>
      <point x="364" y="0" type="line"/>
    </contour>
  </outline>
</glyph>
<glyph name="bracketright" format="2">
  <advance width="211"/>
  <unicode hex="005D"/>
  <outline>
    <contour>
      <point x="-69" y="-158" type="line"/>
      <point x="-69" y="-130" type="line"/>
      <point x="53" y="-130" type="line"/>
      <point x="53" y="760" type="line"/>
      <point x="-69" y="760" type="line"/>
      <point x="-69" y="783" type="line"/>
      <point x="161" y="783" type="line"/>
      <point x="161" y="-158" type="line"/>
    </contour>
  </outline>
</glyph>
<glyph name="asciicircum" format="2">
  <advance width="383"/>
  <unicode hex="005E"/>
  <outline>
    <contour>
      <point x="195" y="622" type="line"/>
      <point x="59" y="447" type="line"/>
      <point x="20" y="470" type="line"/>
      <point x="165" y="657" type="line"/>
      <point x="224" y="657" type="line"/>
      <point x="369" y="470" type="line"/>
      <point x="330" y="447" type="line"/>
    </contour>
  </outline>
</glyph>
<glyph name="underscore" format="2">
  <advance width="439"/>
  <unicode hex="005F"/>
  <outline>
    <contour>
      <point x="10" y="-71" type="line"/>
      <point x="10" y="-29" type="line"/>
      <point x="427" y="-29" type="line"/>
      <point x="427" y="-71" type="line"/>
    </contour>
  </outline>
</glyph>
<glyph name="grave" format="2">
  <advance width="225"/>
  <unicode hex="0060"/>
  <outline>
    <contour>
      <point x="188" y="450" type="line"/>
      <point x="167" y="468"/>
      <point x="124" y="507"/>
      <point x="85" y="541"/>
      <point x="53" y="569"/>
      <point x="43" y="576" type="qcurve"/>
      <point x="22" y="590"/>
      <point x="21" y="599" type="qcurve"/>
      <point x="19" y="610" type="line"/>
      <point x="19" y="615"/>
      <point x="22" y="631"/>
      <point x="27" y="646"/>
      <point x="35" y="657"/>
      <point x="41" y="659" type="qcurve"/>
      <point x="53" y="660" type="line"/>
      <point x="62" y="660"/>
      <point x="91" y="649"/>
      <point x="105" y="641" type="qcurve"/>
      <point x="204" y="461" type="line"/>
      <point x="188" y="450" type="line"/>
    </contour>
  </outline>
</glyph>
<glyph name="a" format="2">
  <advance width="536"/>
  <unicode hex="0061"/>
  <outline>
    <contour>
      <point x="310" y="0" type="line"/>
      <point x="310" y="17" type="line"/>
      <point x="377" y="17" type="line"/>
      <point x="313" y="218" type="line"/>
      <point x="139" y="218" type="line"/>
      <point x="133" y="202"/>
      <point x="117" y="151"/>
      <point x="101" y="99"/>
      <point x="90" y="55"/>
      <point x="90" y="46" type="qcurve"/>
      <point x="90" y="29"/>
      <point x="129" y="17"/>
      <point x="149" y="17" type="qcurve"/>
      <point x="172" y="17" type="line"/>
      <point x="172" y="0" type="line"/>
      <point x="-5" y="0" type="line"/>
      <point x="-5" y="17" type="line"/>
      <point x="18" y="17"/>
      <point x="45" y="24"/>
      <point x="63" y="41"/>
      <point x="75" y="71"/>
      <point x="83" y="94" type="qcurve"/>
      <point x="128" y="246"/>
      <point x="214" y="533"/>
      <point x="258" y="677" type="qcurve"/>
      <point x="292" y="677" type="line"/>
      <point x="505" y="17" type="line"/>
      <point x="549" y="17" type="line"/>
      <point x="549" y="0" type="line"/>
    </contour>
    <contour>
      <point x="224" y="497" type="line"/>
      <point x="144" y="235" type="line"/>
      <point x="308" y="235" type="line"/>
    </contour>
  </outline>
</glyph>
<glyph name="b" format="2">
  <advance width="535"/>
  <unicode hex="0062"/>
  <outline>
    <contour>
      <point x="27" y="0" type="line"/>
      <point x="27" y="17" type="line"/>
      <point x="81" y="17" type="line"/>
      <point x="81" y="650" type="line"/>
      <point x="27" y="650" type="line"/>
      <point x="27" y="667" type="line"/>
      <point x="228" y="667" type="line"/>
      <point x="257" y="667"/>
      <point x="320" y="664"/>
      <point x="381" y="651"/>
      <point x="435" y="623"/>
      <point x="455" y="598" type="qcurve"/>
      <point x="480" y="566"/>
      <point x="480" y="506" type="qcurve"/>
      <point x="480" y="443"/>
      <point x="418" y="370"/>
      <point x="371" y="357" type="qcurve"/>
      <point x="371" y="347" type="line"/>
      <point x="398" y="339"/>
      <point x="445" y="314"/>
      <point x="481" y="274"/>
      <point x="502" y="219"/>
      <point x="502" y="181" type="qcurve"/>
      <point x="502" y="121"/>
      <point x="460" y="49"/>
      <point x="393" y="12"/>
      <point x="312" y="0"/>
      <point x="273" y="0" type="qcurve"/>
    </contour>
    <contour>
      <point x="206" y="363" type="line"/>
      <point x="233" y="363"/>
      <point x="291" y="372"/>
      <point x="339" y="401"/>
      <point x="370" y="456"/>
      <point x="370" y="501" type="qcurve"/>
      <point x="370" y="536"/>
      <point x="346" y="592"/>
      <point x="305" y="632"/>
      <point x="254" y="654"/>
      <point x="227" y="654" type="qcurve"/>
      <point x="219" y="654"/>
      <point x="202" y="651"/>
      <point x="192" y="649" type="qcurve"/>
      <point x="192" y="363" type="line"/>
    </contour>
    <contour>
      <point x="247" y="17" type="line"/>
      <point x="306" y="17"/>
      <point x="384" y="95"/>
      <point x="384" y="174" type="qcurve"/>
      <point x="384" y="228"/>
      <point x="357" y="295"/>
      <point x="307" y="333"/>
      <point x="236" y="347"/>
      <point x="192" y="347" type="qcurve"/>
      <point x="192" y="17" type="line"/>
    </contour>
  </outline>
</glyph>
<glyph name="c" format="2">
  <advance width="551"/>
  <unicode hex="0063"/>
  <outline>
    <contour>
      <point x="297" y="-11" type="qcurve"/>
      <point x="237" y="-11"/>
      <point x="142" y="43"/>
      <point x="76" y="135"/>
      <point x="41" y="255"/>
      <point x="41" y="321" type="qcurve"/>
      <point x="41" y="385"/>
      <point x="74" y="512"/>
      <point x="138" y="614"/>
      <point x="235" y="677"/>
      <point x="300" y="677" type="qcurve"/>
      <point x="327" y="677"/>
      <point x="369" y="660"/>
      <point x="405" y="640"/>
      <point x="437" y="623"/>
      <point x="455" y="623" type="qcurve"/>
      <point x="476" y="623"/>
      <point x="481" y="650" type="qcurve"/>
      <point x="499" y="650" type="line"/>
      <point x="499" y="448" type="line"/>
      <point x="479" y="448" type="line"/>
      <point x="477" y="483"/>
      <point x="451" y="556"/>
      <point x="409" y="615"/>
      <point x="352" y="653"/>
      <point x="319" y="653" type="qcurve"/>
      <point x="287" y="653"/>
      <point x="241" y="619"/>
      <point x="210" y="564"/>
      <point x="190" y="494"/>
      <point x="180" y="420"/>
      <point x="176" y="349"/>
      <point x="176" y="321" type="qcurve"/>
      <point x="176" y="271"/>
      <point x="187" y="166"/>
      <point x="223" y="79"/>
      <point x="289" y="23"/>
      <point x="344" y="23" type="qcurve"/>
      <point x="373" y="23"/>
      <point x="421" y="67"/>
      <point x="457" y="131"/>
      <point x="480" y="206"/>
      <point x="484" y="238" type="qcurve"/>
      <point x="499" y="238" type="line"/>
      <point x="499" y="0" type="line"/>
      <point x="484" y="0" type="line"/>
      <point x="484" y="9"/>
      <point x="482" y="29"/>
      <point x="476" y="46"/>
      <point x="465" y="58"/>
      <point x="456" y="58" type="qcurve"/>
      <point x="448" y="58"/>
      <point x="421" y="36"/>
      <point x="382" y="11"/>
      <point x="330" y="-11"/>
    </contour>
  </outline>
</glyph>
<glyph name="d" format="2">
  <advance width="616"/>
  <unicode hex="0064"/>
  <outline>
    <contour>
      <point x="27" y="0" type="line"/>
      <point x="27" y="17" type="line"/>
      <point x="84" y="17" type="line"/>
      <point x="84" y="649" type="line"/>
      <point x="27" y="649" type="line"/>
      <point x="27" y="667" type="line"/>
      <point x="234" y="667" type="line"/>
      <point x="300" y="667"/>
      <point x="425" y="638"/>
      <point x="522" y="562"/>
      <point x="581" y="432"/>
      <point x="581" y="331" type="qcurve"/>
      <point x="581" y="238"/>
      <point x="529" y="111"/>
      <point x="438" y="33"/>
      <point x="316" y="0"/>
      <point x="247" y="0" type="qcurve"/>
    </contour>
    <contour>
      <point x="202" y="17" type="line"/>
      <point x="274" y="17"/>
      <point x="372" y="56"/>
      <point x="432" y="136"/>
      <point x="458" y="257"/>
      <point x="458" y="339" type="qcurve"/>
      <point x="458" y="404"/>
      <point x="431" y="517"/>
      <point x="375" y="601"/>
      <point x="288" y="650"/>
      <point x="227" y="650" type="qcurve"/>
      <point x="202" y="649" type="line"/>
    </contour>
  </outline>
</glyph>
<glyph name="g" format="2">
  <advance width="605"/>
  <unicode hex="0067"/>
  <outline>
    <contour>
      <point x="314" y="-9" type="qcurve"/>
      <point x="253" y="-9"/>
      <point x="153" y="38"/>
      <point x="81" y="125"/>
      <point x="41" y="247"/>
      <point x="41" y="322" type="qcurve"/>
      <point x="41" y="389"/>
      <point x="79" y="516"/>
      <point x="149" y="614"/>
      <point x="249" y="674"/>
      <point x="311" y="674" type="qcurve"/>
      <point x="335" y="674"/>
      <point x="375" y="658"/>
      <point x="411" y="639"/>
      <point x="443" y="623"/>
      <point x="460" y="623" type="qcurve"/>
      <point x="474" y="623"/>
      <point x="482" y="642"/>
      <point x="483" y="656" type="qcurve"/>
      <point x="502" y="656" type="line"/>
      <point x="502" y="453" type="line"/>
      <point x="482" y="453" type="line"/>
      <point x="477" y="489"/>
      <point x="456" y="558"/>
      <point x="420" y="612"/>
      <point x="368" y="646"/>
      <point x="332" y="646" type="qcurve"/>
      <point x="295" y="646"/>
      <point x="243" y="615"/>
      <point x="207" y="565"/>
      <point x="186" y="499"/>
      <point x="174" y="429"/>
      <point x="170" y="360"/>
      <point x="169" y="332" type="qcurve"/>
      <point x="169" y="313" type="line"/>
      <point x="169" y="292"/>
      <point x="173" y="233"/>
      <point x="184" y="167"/>
      <point x="204" y="103"/>
      <point x="238" y="51"/>
      <point x="286" y="19"/>
      <point x="319" y="19" type="qcurve"/>
      <point x="341" y="19"/>
      <point x="380" y="31"/>
      <point x="410" y="58"/>
      <point x="428" y="102"/>
      <point x="428" y="133" type="qcurve"/>
      <point x="428" y="299" type="line"/>
      <point x="369" y="299" type="line"/>
      <point x="369" y="316" type="line"/>
      <point x="603" y="316" type="line"/>
      <point x="603" y="299" type="line"/>
      <point x="545" y="299" type="line"/>
      <point x="543" y="5" type="line"/>
      <point x="532" y="30"/>
      <point x="512" y="45"/>
      <point x="502" y="45" type="qcurve"/>
      <point x="496" y="45"/>
      <point x="459" y="28"/>
      <point x="408" y="8"/>
      <point x="345" y="-9"/>
    </contour>
  </outline>
</glyph>
<glyph name="j" format="2">
  <advance width="318"/>
  <unicode hex="006A"/>
  <outline>
    <contour>
      <point x="110" y="-70" type="qcurve"/>
      <point x="94" y="-70"/>
      <point x="62" y="-61"/>
      <point x="37" y="-41"/>
      <point x="22" y="-10"/>
      <point x="22" y="12" type="qcurve"/>
      <point x="22" y="35"/>
      <point x="44" y="70"/>
      <point x="66" y="70" type="qcurve"/>
      <point x="82" y="70"/>
      <point x="98" y="44"/>
      <point x="98" y="24" type="qcurve"/>
      <point x="98" y="4"/>
      <point x="75" y="-13"/>
      <point x="55" y="-22" type="qcurve"/>
      <point x="82" y="-51"/>
      <point x="105" y="-51" type="qcurve"/>
      <point x="122" y="-51"/>
      <point x="148" y="-22"/>
      <point x="148" y="11" type="qcurve"/>
      <point x="148" y="22"/>
      <point x="140" y="48"/>
      <point x="130" y="77"/>
      <point x="122" y="108"/>
      <point x="122" y="124" type="qcurve"/>
      <point x="122" y="650" type="line"/>
      <point x="54" y="650" type="line"/>
      <point x="54" y="667" type="line"/>
      <point x="301" y="667" type="line"/>
      <point x="301" y="650" type="line"/>
      <point x="238" y="650" type="line"/>
      <point x="238" y="111" type="line"/>
      <point x="238" y="73"/>
      <point x="224" y="8"/>
      <point x="194" y="-42"/>
      <point x="145" y="-70"/>
    </contour>
  </outline>
</glyph>
<glyph name="m" format="2">
  <advance width="714"/>
  <unicode hex="006D"/>
  <outline>
    <contour>
      <point x="463" y="0" type="line"/>
      <point x="463" y="18" type="line"/>
      <point x="519" y="18" type="line"/>
      <point x="520" y="552" type="line"/>
      <point x="512" y="554" type="line"/>
      <point x="467" y="420"/>
      <point x="375" y="152"/>
      <point x="325" y="11" type="qcurve"/>
      <point x="129" y="566" type="line"/>
      <point x="121" y="564" type="line"/>
      <point x="121" y="68" type="line"/>
      <point x="121" y="54"/>
      <point x="128" y="30"/>
      <point x="141" y="24" type="qcurve"/>
      <point x="156" y="17"/>
      <point x="176" y="17" type="qcurve"/>
      <point x="207" y="17" type="line"/>
      <point x="207" y="0" type="line"/>
      <point x="21" y="0" type="line"/>
      <point x="21" y="18" type="line"/>
      <point x="62" y="18" type="line"/>
      <point x="76" y="18"/>
      <point x="97" y="31"/>
      <point x="100" y="52" type="qcurve"/>
      <point x="101" y="59"/>
      <point x="103" y="95"/>
      <point x="104" y="147"/>
      <point x="104" y="213"/>
      <point x="104" y="249" type="qcurve"/>
      <point x="104" y="349" type="line"/>
      <point x="104" y="401"/>
      <point x="103" y="507"/>
      <point x="102" y="593"/>
      <point x="99" y="648"/>
      <point x="97" y="650" type="qcurve"/>
      <point x="24" y="650" type="line"/>
      <point x="24" y="667" type="line"/>
      <point x="217" y="667" type="line"/>
      <point x="374" y="216" type="line"/>
      <point x="530" y="667" type="line"/>
      <point x="694" y="667" type="line"/>
      <point x="694" y="650" type="line"/>
      <point x="640" y="650" type="line"/>
      <point x="640" y="17" type="line"/>
      <point x="694" y="17" type="line"/>
      <point x="694" y="0" type="line"/>
    </contour>
    <contour>
      <point x="17" y="18" type="line"/>
      <point x="21" y="24" type="line"/>
      <point x="21" y="18" type="line"/>
    </contour>
  </outline>
</glyph>
<glyph name="o" format="2">
  <advance width="595"/>
  <unicode hex="006F"/>
  <outline>
    <contour>
      <point x="301" y="-12" type="qcurve"/>
      <point x="241" y="-12"/>
      <point x="145" y="51"/>
      <point x="78" y="151"/>
      <point x="41" y="277"/>
      <point x="41" y="340" type="qcurve"/>
      <point x="41" y="402"/>
      <point x="82" y="524"/>
      <point x="152" y="620"/>
      <point x="247" y="680"/>
      <point x="301" y="680" type="qcurve"/>
      <point x="360" y="680"/>
      <point x="456" y="617"/>
      <point x="523" y="517"/>
      <point x="560" y="393"/>
      <point x="560" y="332" type="qcurve"/>
      <point x="560" y="269"/>
      <point x="522" y="146"/>
      <point x="454" y="48"/>
      <point x="359" y="-12"/>
    </contour>
    <contour>
      <point x="300" y="4" type="qcurve"/>
      <point x="333" y="4"/>
      <point x="378" y="38"/>
      <point x="408" y="93"/>
      <point x="425" y="164"/>
      <point x="433" y="238"/>
      <point x="435" y="308"/>
      <point x="435" y="336" type="qcurve"/>
      <point x="435" y="369"/>
      <point x="430" y="457"/>
      <point x="413" y="546"/>
      <point x="381" y="624"/>
      <point x="354" y="647" type="qcurve"/>
      <point x="332" y="664"/>
      <point x="303" y="664" type="qcurve"/>
      <point x="271" y="664"/>
      <point x="225" y="631"/>
      <point x="193" y="576"/>
      <point x="174" y="506"/>
      <point x="163" y="433"/>
      <point x="159" y="363"/>
      <point x="159" y="335" type="qcurve"/>
      <point x="159" y="306"/>
      <point x="162" y="235"/>
      <point x="171" y="162"/>
      <point x="190" y="92"/>
      <point x="221" y="37"/>
      <point x="267" y="4"/>
    </contour>
  </outline>
</glyph>
<glyph name="q" format="2">
  <advance width="595"/>
  <unicode hex="0071"/>
  <outline>
    <contour>
      <point x="436" y="-200" type="qcurve"/>
      <point x="424" y="-200"/>
      <point x="380" y="-195"/>
      <point x="332" y="-184"/>
      <point x="290" y="-170"/>
      <point x="281" y="-161" type="qcurve"/>
      <point x="264" y="-147"/>
      <point x="252" y="-89"/>
      <point x="252" y="-60" type="qcurve"/>
      <point x="251" y="-25" type="line"/>
      <point x="251" y="-8" type="line"/>
      <point x="201" y="8"/>
      <point x="123" y="78"/>
      <point x="69" y="171"/>
      <point x="41" y="281"/>
      <point x="41" y="337" type="qcurve"/>
      <point x="41" y="398"/>
      <point x="80" y="520"/>
      <point x="149" y="618"/>
      <point x="244" y="680"/>
      <point x="300" y="680" type="qcurve"/>
      <point x="358" y="680"/>
      <point x="453" y="618"/>
      <point x="522" y="519"/>
      <point x="560" y="394"/>
      <point x="560" y="332" type="qcurve"/>
      <point x="560" y="274"/>
      <point x="531" y="167"/>
      <point x="477" y="77"/>
      <point x="402" y="10"/>
      <point x="356" y="-8" type="qcurve"/>
      <point x="355" y="-103" type="line"/>
      <point x="355" y="-128"/>
      <point x="369" y="-159"/>
      <point x="393" y="-176"/>
      <point x="424" y="-182"/>
      <point x="441" y="-182" type="qcurve"/>
      <point x="453" y="-182"/>
      <point x="474" y="-180"/>
      <point x="485" y="-179" type="qcurve"/>
      <point x="485" y="-198" type="line"/>
      <point x="471" y="-199"/>
      <point x="450" y="-200"/>
    </contour>
    <contour>
      <point x="306" y="4" type="qcurve"/>
      <point x="336" y="4"/>
      <point x="379" y="39"/>
      <point x="409" y="96"/>
      <point x="426" y="168"/>
      <point x="435" y="242"/>
      <point x="438" y="310"/>
      <point x="438" y="335" type="qcurve"/>
      <point x="438" y="362"/>
      <point x="434" y="432"/>
      <point x="423" y="505"/>
      <point x="405" y="575"/>
      <point x="375" y="630"/>
      <point x="332" y="664"/>
      <point x="303" y="664" type="qcurve"/>
      <point x="270" y="664"/>
      <point x="223" y="631"/>
      <point x="190" y="578"/>
      <point x="170" y="508"/>
      <point x="160" y="435"/>
      <point x="156" y="364"/>
      <point x="156" y="335" type="qcurve"/>
      <point x="156" y="305"/>
      <point x="160" y="233"/>
      <point x="172" y="159"/>
      <point x="192" y="90"/>
      <point x="226" y="36"/>
      <point x="273" y="4"/>
    </contour>
  </outline>
</glyph>
<glyph name="r" format="2">
  <advance width="583"/>
  <unicode hex="0072"/>
  <outline>
    <contour>
      <point x="497" y="-7" type="qcurve"/>
      <point x="452" y="-7"/>
      <point x="401" y="20"/>
      <point x="375" y="71"/>
      <point x="366" y="145"/>
      <point x="362" y="193" type="qcurve"/>
      <point x="360" y="220"/>
      <point x="350" y="270"/>
      <point x="339" y="287" type="qcurve"/>
      <point x="327" y="306"/>
      <point x="294" y="327"/>
      <point x="256" y="337"/>
      <point x="214" y="339"/>
      <point x="192" y="339" type="qcurve"/>
      <point x="192" y="17" type="line"/>
      <point x="253" y="17" type="line"/>
      <point x="253" y="0" type="line"/>
      <point x="27" y="0" type="line"/>
      <point x="27" y="17" type="line"/>
      <point x="82" y="17" type="line"/>
      <point x="82" y="650" type="line"/>
      <point x="27" y="650" type="line"/>
      <point x="27" y="667" type="line"/>
      <point x="316" y="667" type="line"/>
      <point x="349" y="667"/>
      <point x="412" y="651"/>
      <point x="462" y="614"/>
      <point x="493" y="553"/>
      <point x="493" y="507" type="qcurve"/>
      <point x="493" y="473"/>
      <point x="472" y="421"/>
      <point x="436" y="383"/>
      <point x="388" y="359"/>
      <point x="361" y="353" type="qcurve"/>
      <point x="361" y="342" type="line"/>
      <point x="408" y="330"/>
      <point x="456" y="271"/>
      <point x="477" y="198"/>
      <point x="480" y="120"/>
      <point x="485" y="55"/>
      <point x="500" y="13"/>
      <point x="523" y="13" type="qcurve"/>
      <point x="532" y="13"/>
      <point x="548" y="18"/>
      <point x="556" y="21" type="qcurve"/>
      <point x="558" y="22" type="line"/>
      <point x="564" y="7" type="line"/>
      <point x="547" y="-1"/>
      <point x="514" y="-7"/>
    </contour>
    <contour>
      <point x="224" y="355" type="line"/>
      <point x="252" y="355"/>
      <point x="306" y="370"/>
      <point x="349" y="405"/>
      <point x="375" y="460"/>
      <point x="375" y="501" type="qcurve"/>
      <point x="375" y="546"/>
      <point x="351" y="603"/>
      <point x="309" y="637"/>
      <point x="253" y="650"/>
      <point x="221" y="650" type="qcurve"/>
      <point x="192" y="650" type="line"/>
      <point x="192" y="355" type="line"/>
    </contour>
  </outline>
</glyph>
<glyph name="s" format="2">
  <advance width="470"/>
  <unicode hex="0073"/>
  <outline>
    <contour>
      <point x="251" y="-13" type="qcurve"/>
      <point x="217" y="-13"/>
      <point x="167" y="3"/>
      <point x="130" y="21"/>
      <point x="100" y="37"/>
      <point x="87" y="37" type="qcurve"/>
      <point x="76" y="37"/>
      <point x="67" y="6"/>
      <point x="66" y="-7" type="qcurve"/>
      <point x="51" y="-7" type="line"/>
      <point x="51" y="238" type="line"/>
      <point x="66" y="238" type="line"/>
      <point x="70" y="187"/>
      <point x="95" y="103"/>
      <point x="140" y="43"/>
      <point x="207" y="11"/>
      <point x="254" y="11" type="qcurve"/>
      <point x="301" y="11"/>
      <point x="358" y="53"/>
      <point x="365" y="79" type="qcurve"/>
      <point x="369" y="94"/>
      <point x="369" y="106" type="qcurve"/>
      <point x="369" y="136"/>
      <point x="335" y="177"/>
      <point x="280" y="209"/>
      <point x="212" y="239"/>
      <point x="145" y="277"/>
      <point x="85" y="330"/>
      <point x="66" y="370" type="qcurve"/>
      <point x="46" y="412"/>
      <point x="46" y="468" type="qcurve"/>
      <point x="46" y="511"/>
      <point x="74" y="603"/>
      <point x="104" y="631" type="qcurve"/>
      <point x="126" y="650"/>
      <point x="188" y="674"/>
      <point x="229" y="674" type="qcurve"/>
      <point x="258" y="674"/>
      <point x="302" y="657"/>
      <point x="335" y="637"/>
      <point x="359" y="620"/>
      <point x="367" y="620" type="qcurve"/>
      <point x="381" y="620"/>
      <point x="387" y="646"/>
      <point x="387" y="659" type="qcurve"/>
      <point x="403" y="659" type="line"/>
      <point x="403" y="458" type="line"/>
      <point x="386" y="458" type="line"/>
      <point x="379" y="500"/>
      <point x="356" y="571"/>
      <point x="318" y="624"/>
      <point x="261" y="654"/>
      <point x="221" y="654" type="qcurve"/>
      <point x="95" y="654"/>
      <point x="95" y="533" type="qcurve"/>
      <point x="98" y="490"/>
      <point x="155" y="441"/>
      <point x="234" y="405"/>
      <point x="324" y="368"/>
      <point x="362" y="336" type="qcurve"/>
      <point x="391" y="310"/>
      <point x="434" y="235"/>
      <point x="434" y="179" type="qcurve"/>
      <point x="434" y="138"/>
      <point x="407" y="68"/>
      <point x="359" y="16"/>
      <point x="292" y="-13"/>
    </contour>
  </outline>
</glyph>
<glyph name="v" format="2">
  <advance width="523"/>
  <unicode hex="0076"/>
  <outline>
    <contour>
      <point x="41" y="650" type="line"/>
      <point x="-12" y="650" type="line"/>
      <point x="-12" y="667" type="line"/>
      <point x="234" y="667" type="line"/>
      <point x="234" y="650" type="line"/>
      <point x="170" y="650" type="line"/>
      <point x="309" y="190" type="line"/>
      <point x="341" y="286"/>
      <point x="386" y="422"/>
      <point x="416" y="514"/>
      <point x="432" y="568"/>
      <point x="440" y="599"/>
      <point x="442" y="613"/>
      <point x="442" y="618" type="qcurve"/>
      <point x="442" y="637"/>
      <point x="411" y="650"/>
      <point x="392" y="650" type="qcurve"/>
      <point x="367" y="650" type="line"/>
      <point x="367" y="667" type="line"/>
      <point x="551" y="667" type="line"/>
      <point x="551" y="650" type="line"/>
      <point x="535" y="650"/>
      <point x="515" y="650"/>
      <point x="506" y="649" type="qcurve"/>
      <point x="486" y="646"/>
      <point x="469" y="612"/>
      <point x="456" y="572" type="qcurve"/>
      <point x="260" y="-26" type="line"/>
    </contour>
  </outline>
</glyph>
<glyph name="x" format="2">
  <advance width="558"/>
  <unicode hex="0078"/>
  <outline>
    <contour>
      <point x="318" y="0" type="line"/>
      <point x="318" y="17" type="line"/>
      <point x="385" y="17" type="line"/>
      <point x="249" y="293" type="line"/>
      <point x="169" y="140" type="line"/>
      <point x="141" y="90"/>
      <point x="121" y="45"/>
      <point x="121" y="39" type="qcurve"/>
      <point x="121" y="25"/>
      <point x="142" y="17"/>
      <point x="152" y="17" type="qcurve"/>
      <point x="201" y="17" type="line"/>
      <point x="201" y="0" type="line"/>
      <point x="-15" y="0" type="line"/>
      <point x="-15" y="17" type="line"/>
      <point x="9" y="17" type="line"/>
      <point x="16" y="17"/>
      <point x="33" y="18"/>
      <point x="43" y="19" type="qcurve"/>
      <point x="56" y="20"/>
      <point x="81" y="31"/>
      <point x="99" y="57" type="qcurve"/>
      <point x="107" y="69"/>
      <point x="130" y="107"/>
      <point x="163" y="168"/>
      <point x="209" y="254"/>
      <point x="239" y="313" type="qcurve"/>
      <point x="79" y="650" type="line"/>
      <point x="26" y="650" type="line"/>
      <point x="26" y="667" type="line"/>
      <point x="268" y="667" type="line"/>
      <point x="268" y="650" type="line"/>
      <point x="207" y="650" type="line"/>
      <point x="315" y="427" type="line"/>
      <point x="349" y="488"/>
      <point x="389" y="562"/>
      <point x="410" y="604"/>
      <point x="417" y="623"/>
      <point x="417" y="629" type="qcurve"/>
      <point x="417" y="645"/>
      <point x="397" y="650"/>
      <point x="389" y="650" type="qcurve"/>
      <point x="343" y="650" type="line"/>
      <point x="343" y="667" type="line"/>
      <point x="535" y="667" type="line"/>
      <point x="535" y="650" type="line"/>
      <point x="524" y="650"/>
      <point x="506" y="650"/>
      <point x="493" y="648" type="qcurve"/>
      <point x="483" y="646"/>
      <point x="469" y="644"/>
      <point x="455" y="632"/>
      <point x="436" y="607"/>
      <point x="422" y="583" type="qcurve"/>
      <point x="408" y="560"/>
      <point x="362" y="476"/>
      <point x="325" y="407" type="qcurve"/>
      <point x="515" y="17" type="line"/>
      <point x="579" y="17" type="line"/>
      <point x="579" y="0" type="line"/>
    </contour>
  </outline>
</glyph>
<glyph name="z" format="2">
  <advance width="519"/>
  <unicode hex="007A"/>
  <outline>
    <contour>
      <point x="32" y="0" type="line"/>
      <point x="353" y="647" type="line"/>
      <point x="306" y="647"/>
      <point x="235" y="645"/>
      <point x="182" y="640"/>
      <point x="144" y="631"/>
      <point x="130" y="623" type="qcurve"/>
      <point x="130" y="624" type="line"/>
      <point x="113" y="615"/>
      <point x="93" y="590"/>
      <point x="83" y="556"/>
      <point x="81" y="511"/>
      <point x="81" y="482" type="qcurve"/>
      <point x="65" y="482" type="line"/>
      <point x="65" y="667" type="line"/>
      <point x="496" y="667" type="line"/>
      <point x="167" y="17" type="line"/>
      <point x="240" y="17" type="line"/>
      <point x="305" y="17"/>
      <point x="397" y="32"/>
      <point x="455" y="63"/>
      <point x="481" y="113"/>
      <point x="481" y="148" type="qcurve"/>
      <point x="481" y="193" type="line"/>
      <point x="498" y="193" type="line"/>
      <point x="498" y="0" type="line"/>
    </contour>
  </outline>
</glyph>
<glyph name="braceleft" format="2">
  <advance width="212"/>
  <unicode hex="007B"/>
  <outline>
    <contour>
      <point x="186" y="-84" type="line"/>
      <point x="166" y="-79"/>
      <point x="117" y="-60"/>
      <point x="72" y="-30"/>
      <point x="39" y="14"/>
      <point x="35" y="43" type="qcurve"/>
      <point x="35" y="57"/>
      <point x="49" y="122"/>
      <point x="65" y="187" type="qcurve"/>
      <point x="66" y="197"/>
      <point x="71" y="222"/>
      <point x="75" y="246"/>
      <point x="78" y="265"/>
      <point x="78" y="270" type="qcurve"/>
      <point x="75" y="291"/>
      <point x="42" y="319"/>
      <point x="26" y="327" type="qcurve"/>
      <point x="26" y="350" type="line"/>
      <point x="43" y="358"/>
      <point x="78" y="389"/>
      <point x="78" y="412" type="qcurve"/>
      <point x="78" y="415"/>
      <point x="76" y="434"/>
      <point x="71" y="459"/>
      <point x="66" y="486"/>
      <point x="63" y="497" type="qcurve"/>
      <point x="63" y="509"/>
      <point x="57" y="521" type="qcurve"/>
      <point x="50" y="548"/>
      <point x="46" y="571" type="qcurve"/>
      <point x="41" y="591"/>
      <point x="35" y="627"/>
      <point x="35" y="634" type="qcurve"/>
      <point x="39" y="663"/>
      <point x="73" y="707"/>
      <point x="118" y="737"/>
      <point x="167" y="756"/>
      <point x="186" y="761" type="qcurve"/>
      <point x="188" y="742" type="line"/>
      <point x="192" y="742" type="line"/>
      <point x="169" y="731"/>
      <point x="138" y="700"/>
      <point x="138" y="675" type="qcurve"/>
      <point x="138" y="660"/>
      <point x="150" y="603"/>
      <point x="165" y="538"/>
      <point x="178" y="477"/>
      <point x="178" y="458" type="qcurve"/>
      <point x="175" y="433"/>
      <point x="150" y="394"/>
      <point x="115" y="364"/>
      <point x="75" y="344"/>
      <point x="56" y="338" type="qcurve"/>
      <point x="75" y="332"/>
      <point x="118" y="310"/>
      <point x="154" y="279"/>
      <point x="178" y="237"/>
      <point x="178" y="210" type="qcurve"/>
      <point x="178" y="195"/>
      <point x="165" y="137"/>
      <point x="150" y="73"/>
      <point x="138" y="15"/>
      <point x="138" y="2" type="qcurve"/>
      <point x="138" y="-6" type="line"/>
      <point x="140" y="-26"/>
      <point x="175" y="-57"/>
      <point x="192" y="-65" type="qcurve"/>
      <point x="188" y="-65" type="line"/>
      <point x="186" y="-84" type="line"/>
    </contour>
  </outline>
</glyph>
<glyph name="bar" format="2">
  <advance width="89"/>
  <unicode hex="007C"/>
  <outline>
    <contour>
      <point x="23" y="-96" type="line"/>
      <point x="23" y="757" type="line"/>
      <point x="65" y="757" type="line"/>
      <point x="65" y="-96" type="line"/>
    </contour>
  </outline>
</glyph>
<glyph name="braceright" format="2">
  <advance width="212"/>
  <unicode hex="007D"/>
  <outline>
    <contour>
      <point x="30" y="-65" type="line"/>
      <point x="26" y="-65" type="line"/>
      <point x="49" y="-54"/>
      <point x="80" y="-23"/>
      <point x="80" y="2" type="qcurve"/>
      <point x="80" y="17"/>
      <point x="67" y="74"/>
      <point x="52" y="139"/>
      <point x="40" y="200"/>
      <point x="40" y="219" type="qcurve"/>
      <point x="43" y="243"/>
      <point x="68" y="282"/>
      <point x="102" y="312"/>
      <point x="143" y="332"/>
      <point x="162" y="338" type="qcurve"/>
      <point x="144" y="344"/>
      <point x="101" y="365"/>
      <point x="64" y="396"/>
      <point x="40" y="439"/>
      <point x="40" y="467" type="qcurve"/>
      <point x="40" y="482"/>
      <point x="52" y="542"/>
      <point x="67" y="607"/>
      <point x="80" y="667"/>
      <point x="80" y="683" type="qcurve"/>
      <point x="78" y="703"/>
      <point x="43" y="734"/>
      <point x="26" y="742" type="qcurve"/>
      <point x="30" y="742" type="line"/>
      <point x="32" y="761" type="line"/>
      <point x="52" y="756"/>
      <point x="101" y="737"/>
      <point x="146" y="707"/>
      <point x="179" y="663"/>
      <point x="183" y="634" type="qcurve"/>
      <point x="183" y="623"/>
      <point x="176" y="575"/>
      <point x="161" y="523" type="qcurve"/>
      <point x="161" y="521" type="line"/>
      <point x="159" y="518"/>
      <point x="158" y="515"/>
      <point x="158" y="510" type="qcurve"/>
      <point x="158" y="507"/>
      <point x="157" y="503"/>
      <point x="156" y="500" type="qcurve"/>
      <point x="155" y="498" type="line"/>
      <point x="155" y="494"/>
      <point x="153" y="490" type="qcurve"/>
      <point x="150" y="465"/>
      <point x="140" y="416"/>
      <point x="140" y="407" type="qcurve"/>
      <point x="143" y="386"/>
      <point x="176" y="358"/>
      <point x="192" y="350" type="qcurve"/>
      <point x="192" y="327" type="line"/>
      <point x="175" y="319"/>
      <point x="140" y="288"/>
      <point x="140" y="265" type="qcurve"/>
      <point x="140" y="262"/>
      <point x="143" y="243"/>
      <point x="148" y="218"/>
      <point x="152" y="194"/>
      <point x="153" y="187" type="qcurve"/>
      <point x="169" y="124"/>
      <point x="183" y="57"/>
      <point x="183" y="43" type="qcurve"/>
      <point x="179" y="14"/>
      <point x="145" y="-30"/>
      <point x="100" y="-60"/>
      <point x="51" y="-79"/>
      <point x="32" y="-84" type="qcurve"/>
    </contour>
  </outline>
</glyph>
<glyph name="asciitilde" format="2">
  <advance width="467"/>
  <unicode hex="007E"/>
  <outline>
    <contour>
      <point x="22" y="275" type="line"/>
      <point x="27" y="293"/>
      <point x="47" y="344"/>
      <point x="80" y="391"/>
      <point x="127" y="423"/>
      <point x="160" y="423" type="qcurve"/>
      <point x="176" y="423"/>
      <point x="235" y="410"/>
      <point x="298" y="393"/>
      <point x="354" y="380"/>
      <point x="368" y="380" type="qcurve"/>
      <point x="375" y="380" type="line"/>
      <point x="397" y="382"/>
      <point x="427" y="416"/>
      <point x="436" y="433" type="qcurve"/>
      <point x="436" y="429" type="line"/>
      <point x="454" y="428" type="line"/>
      <point x="449" y="409"/>
      <point x="429" y="358"/>
      <point x="397" y="311"/>
      <point x="351" y="278"/>
      <point x="320" y="278" type="qcurve"/>
      <point x="311" y="278"/>
      <point x="283" y="285"/>
      <point x="240" y="296"/>
      <point x="180" y="310"/>
      <point x="139" y="317" type="qcurve"/>
      <point x="116" y="321"/>
      <point x="104" y="323"/>
      <point x="99" y="323" type="qcurve"/>
      <point x="78" y="320"/>
      <point x="49" y="288"/>
      <point x="41" y="272" type="qcurve"/>
    </contour>
  </outline>
</glyph>
<glyph name="exclamdown" format="2">
  <advance width="231"/>
  <unicode hex="00A1"/>
  <outline>
    <contour>
      <point x="117" y="573" type="qcurve"/>
      <point x="100" y="573"/>
      <point x="74" y="602"/>
      <point x="74" y="624" type="qcurve"/>
      <point x="74" y="647"/>
      <point x="99" y="676"/>
      <point x="116" y="676" type="qcurve"/>
      <point x="133" y="676"/>
      <point x="159" y="648"/>
      <point x="159" y="624" type="qcurve"/>
      <point x="159" y="604"/>
      <point x="134" y="573"/>
    </contour>
    <contour>
      <point x="113" y="-9" type="line"/>
      <point x="107" y="-9"/>
      <point x="103" y="-3" type="qcurve"/>
      <point x="95" y="11"/>
      <point x="87" y="29"/>
      <point x="78" y="45"/>
      <point x="65" y="64"/>
      <point x="54" y="78" type="qcurve"/>
      <point x="69" y="156"/>
      <point x="93" y="370"/>
      <point x="101" y="506" type="qcurve"/>
      <point x="129" y="506" type="line"/>
      <point x="132" y="446"/>
      <point x="140" y="340"/>
      <point x="152" y="236"/>
      <point x="168" y="132"/>
      <point x="178" y="75" type="qcurve"/>
      <point x="164" y="64"/>
      <point x="148" y="37"/>
      <point x="135" y="11" type="qcurve"/>
      <point x="132" y="6"/>
      <point x="125" y="-6"/>
      <point x="120" y="-7" type="qcurve"/>
    </contour>
  </outline>
</glyph>
<glyph name="cent" format="2">
  <advance width="446"/>
  <unicode hex="00A2"/>
  <outline>
    <contour>
      <point x="124" y="-24" type="line"/>
      <point x="160" y="81" type="line"/>
      <point x="130" y="91"/>
      <point x="77" y="125"/>
      <point x="38" y="171"/>
      <point x="16" y="232"/>
      <point x="16" y="271" type="qcurve"/>
      <point x="16" y="330"/>
      <point x="58" y="412"/>
      <point x="127" y="463"/>
      <point x="215" y="486"/>
      <point x="262" y="486" type="qcurve"/>
      <point x="278" y="486"/>
      <point x="298" y="483" type="qcurve"/>
      <point x="333" y="585" type="line"/>
      <point x="354" y="579" type="line"/>
      <point x="319" y="478" type="line"/>
      <point x="340" y="473"/>
      <point x="378" y="453"/>
      <point x="408" y="423"/>
      <point x="425" y="380"/>
      <point x="425" y="353" type="qcurve"/>
      <point x="425" y="327"/>
      <point x="399" y="287"/>
      <point x="374" y="287" type="qcurve"/>
      <point x="357" y="287"/>
      <point x="331" y="313"/>
      <point x="331" y="333" type="qcurve"/>
      <point x="331" y="361"/>
      <point x="363" y="375"/>
      <point x="383" y="375" type="qcurve"/>
      <point x="392" y="375"/>
      <point x="396" y="387"/>
      <point x="396" y="395" type="qcurve"/>
      <point x="396" y="416"/>
      <point x="366" y="445"/>
      <point x="324" y="462"/>
      <point x="281" y="469"/>
      <point x="268" y="469" type="qcurve"/>
      <point x="233" y="469"/>
      <point x="182" y="437"/>
      <point x="147" y="385"/>
      <point x="130" y="316"/>
      <point x="130" y="279" type="qcurve"/>
      <point x="130" y="244"/>
      <point x="142" y="175"/>
      <point x="173" y="120"/>
      <point x="225" y="85"/>
      <point x="264" y="85" type="qcurve"/>
      <point x="280" y="85"/>
      <point x="317" y="90"/>
      <point x="354" y="101"/>
      <point x="390" y="117"/>
      <point x="405" y="129" type="qcurve"/>
      <point x="411" y="121" type="line"/>
      <point x="371" y="89"/>
      <point x="295" y="66"/>
      <point x="249" y="66" type="qcurve"/>
      <point x="214" y="66"/>
      <point x="181" y="75" type="qcurve"/>
      <point x="145" y="-30" type="line"/>
    </contour>
  </outline>
</glyph>
<glyph name="sterling" format="2">
  <advance width="507"/>
  <unicode hex="00A3"/>
  <outline>
    <contour>
      <point x="121" y="-11" type="qcurve"/>
      <point x="113" y="-11"/>
      <point x="98" y="-7" type="qcurve"/>
      <point x="87" y="-5"/>
      <point x="65" y="25"/>
      <point x="65" y="45" type="qcurve"/>
      <point x="65" y="55"/>
      <point x="78" y="94"/>
      <point x="103" y="108" type="qcurve"/>
      <point x="114" y="115"/>
      <point x="133" y="118"/>
      <point x="139" y="118" type="qcurve"/>
      <point x="150" y="117" type="line"/>
      <point x="151" y="123"/>
      <point x="152" y="135"/>
      <point x="152" y="140" type="qcurve"/>
      <point x="152" y="167"/>
      <point x="128" y="229"/>
      <point x="109" y="266" type="qcurve"/>
      <point x="109" y="269"/>
      <point x="105" y="272"/>
      <point x="105" y="274" type="qcurve"/>
      <point x="23" y="274" type="line"/>
      <point x="23" y="303" type="line"/>
      <point x="90" y="303" type="line"/>
      <point x="76" y="329"/>
      <point x="56" y="391"/>
      <point x="56" y="421" type="qcurve"/>
      <point x="56" y="493"/>
      <point x="99" y="591"/>
      <point x="168" y="652"/>
      <point x="256" y="679"/>
      <point x="301" y="679" type="qcurve"/>
      <point x="327" y="679"/>
      <point x="384" y="662"/>
      <point x="432" y="624"/>
      <point x="463" y="563"/>
      <point x="463" y="519" type="qcurve"/>
      <point x="463" y="487"/>
      <point x="436" y="441"/>
      <point x="411" y="441" type="qcurve"/>
      <point x="393" y="441"/>
      <point x="368" y="471"/>
      <point x="368" y="496" type="qcurve"/>
      <point x="368" y="528"/>
      <point x="401" y="547"/>
      <point x="421" y="547" type="qcurve"/>
      <point x="429" y="547"/>
      <point x="433" y="559"/>
      <point x="433" y="570" type="qcurve"/>
      <point x="433" y="596"/>
      <point x="402" y="630"/>
      <point x="360" y="651"/>
      <point x="318" y="660"/>
      <point x="307" y="660" type="qcurve"/>
      <point x="271" y="660"/>
      <point x="219" y="621"/>
      <point x="186" y="557"/>
      <point x="170" y="474"/>
      <point x="170" y="431" type="qcurve"/>
      <point x="170" y="303" type="line"/>
      <point x="311" y="303" type="line"/>
      <point x="311" y="274" type="line"/>
      <point x="170" y="274" type="line"/>
      <point x="170" y="160" type="line"/>
      <point x="170" y="154"/>
      <point x="168" y="130"/>
      <point x="166" y="111" type="qcurve"/>
      <point x="169" y="109"/>
      <point x="173" y="107"/>
      <point x="174" y="105" type="qcurve"/>
      <point x="188" y="113"/>
      <point x="216" y="124"/>
      <point x="238" y="124" type="qcurve"/>
      <point x="252" y="124"/>
      <point x="290" y="109"/>
      <point x="316" y="95" type="qcurve"/>
      <point x="345" y="78"/>
      <point x="380" y="69"/>
      <point x="388" y="69" type="qcurve"/>
      <point x="391" y="69"/>
      <point x="414" y="70"/>
      <point x="418" y="71" type="qcurve"/>
      <point x="435" y="73"/>
      <point x="453" y="106"/>
      <point x="461" y="120" type="qcurve"/>
      <point x="461" y="118" type="line"/>
      <point x="476" y="116" type="line"/>
      <point x="472" y="99"/>
      <point x="456" y="58"/>
      <point x="430" y="20"/>
      <point x="394" y="-7"/>
      <point x="370" y="-10" type="qcurve"/>
      <point x="362" y="-10"/>
      <point x="344" y="-7"/>
      <point x="318" y="1"/>
      <point x="280" y="17"/>
      <point x="253" y="31" type="qcurve"/>
      <point x="245" y="35"/>
      <point x="207" y="53"/>
      <point x="193" y="58" type="qcurve"/>
      <point x="191" y="31"/>
      <point x="150" y="-11"/>
    </contour>
  </outline>
</glyph>
<glyph name="yen" format="2">
  <advance width="483"/>
  <unicode hex="00A5"/>
  <outline>
    <contour>
      <point x="124" y="0" type="line"/>
      <point x="124" y="17" type="line"/>
      <point x="187" y="17" type="line"/>
      <point x="187" y="197" type="line"/>
      <point x="93" y="197" type="line"/>
      <point x="93" y="227" type="line"/>
      <point x="187" y="227" type="line"/>
      <point x="187" y="243" type="line"/>
      <point x="177" y="270" type="line"/>
      <point x="93" y="270" type="line"/>
      <point x="93" y="300" type="line"/>
      <point x="165" y="300" type="line"/>
      <point x="30" y="650" type="line"/>
      <point x="-23" y="650" type="line"/>
      <point x="-23" y="667" type="line"/>
      <point x="216" y="667" type="line"/>
      <point x="216" y="650" type="line"/>
      <point x="153" y="650" type="line"/>
      <point x="286" y="304" type="line"/>
      <point x="383" y="541" type="line"/>
      <point x="386" y="547"/>
      <point x="395" y="570"/>
      <point x="402" y="596"/>
      <point x="408" y="619"/>
      <point x="408" y="625" type="qcurve"/>
      <point x="408" y="642"/>
      <point x="376" y="651"/>
      <point x="359" y="651" type="qcurve"/>
      <point x="333" y="650" type="line"/>
      <point x="333" y="667" type="line"/>
      <point x="510" y="667" type="line"/>
      <point x="510" y="651" type="line"/>
      <point x="489" y="651" type="line"/>
      <point x="475" y="651"/>
      <point x="457" y="646"/>
      <point x="443" y="631"/>
      <point x="429" y="604"/>
      <point x="420" y="581" type="qcurve"/>
      <point x="308" y="300" type="line"/>
      <point x="396" y="300" type="line"/>
      <point x="396" y="270" type="line"/>
      <point x="297" y="270" type="line"/>
      <point x="295" y="266" type="line"/>
      <point x="295" y="227" type="line"/>
      <point x="396" y="227" type="line"/>
      <point x="396" y="197" type="line"/>
      <point x="295" y="197" type="line"/>
      <point x="295" y="17" type="line"/>
      <point x="359" y="17" type="line"/>
      <point x="359" y="0" type="line"/>
    </contour>
  </outline>
</glyph>
<glyph name="section" format="2">
  <advance width="513"/>
  <unicode hex="00A7"/>
  <outline>
    <contour>
      <point x="269" y="-23" type="qcurve"/>
      <point x="249" y="-23"/>
      <point x="201" y="-13"/>
      <point x="151" y="14"/>
      <point x="104" y="61"/>
      <point x="85" y="99" type="qcurve"/>
      <point x="80" y="108"/>
      <point x="74" y="129"/>
      <point x="72" y="139" type="qcurve"/>
      <point x="70" y="150"/>
      <point x="69" y="162" type="qcurve"/>
      <point x="69" y="169" type="line"/>
      <point x="69" y="175"/>
      <point x="74" y="192"/>
      <point x="85" y="209"/>
      <point x="103" y="221"/>
      <point x="116" y="221" type="qcurve"/>
      <point x="126" y="221"/>
      <point x="156" y="208"/>
      <point x="168" y="185" type="qcurve"/>
      <point x="176" y="164"/>
      <point x="176" y="153" type="qcurve"/>
      <point x="176" y="145"/>
      <point x="167" y="120"/>
      <point x="145" y="109" type="qcurve"/>
      <point x="137" y="104"/>
      <point x="129" y="103"/>
      <point x="128" y="100" type="qcurve"/>
      <point x="126" y="94" type="line"/>
      <point x="126" y="85"/>
      <point x="137" y="63"/>
      <point x="156" y="40"/>
      <point x="181" y="19"/>
      <point x="195" y="13" type="qcurve"/>
      <point x="214" y="4"/>
      <point x="254" y="-5"/>
      <point x="271" y="-5" type="qcurve"/>
      <point x="290" y="-4" type="line"/>
      <point x="300" y="-4"/>
      <point x="324" y="5"/>
      <point x="348" y="20"/>
      <point x="367" y="39"/>
      <point x="373" y="50" type="qcurve"/>
      <point x="383" y="67"/>
      <point x="390" y="99"/>
      <point x="390" y="122" type="qcurve"/>
      <point x="390" y="144"/>
      <point x="387" y="168" type="qcurve"/>
      <point x="337" y="178"/>
      <point x="236" y="205"/>
      <point x="145" y="250"/>
      <point x="70" y="318"/>
      <point x="46" y="368" type="qcurve"/>
      <point x="28" y="406"/>
      <point x="19" y="448"/>
      <point x="19" y="457" type="qcurve"/>
      <point x="20" y="468" type="line"/>
      <point x="20" y="518"/>
      <point x="62" y="599"/>
      <point x="123" y="656"/>
      <point x="192" y="690"/>
      <point x="219" y="693" type="qcurve"/>
      <point x="244" y="696"/>
      <point x="256" y="696" type="qcurve"/>
      <point x="278" y="696"/>
      <point x="327" y="685"/>
      <point x="375" y="657"/>
      <point x="420" y="610"/>
      <point x="439" y="574" type="qcurve"/>
      <point x="446" y="560"/>
      <point x="454" y="525"/>
      <point x="454" y="510" type="qcurve"/>
      <point x="454" y="504" type="line"/>
      <point x="454" y="496"/>
      <point x="443" y="465"/>
      <point x="425" y="456" type="qcurve"/>
      <point x="418" y="452"/>
      <point x="408" y="452" type="qcurve"/>
      <point x="398" y="452"/>
      <point x="367" y="466"/>
      <point x="355" y="488" type="qcurve"/>
      <point x="347" y="510"/>
      <point x="347" y="521" type="qcurve"/>
      <point x="347" y="531"/>
      <point x="358" y="555"/>
      <point x="384" y="568" type="qcurve"/>
      <point x="395" y="571"/>
      <point x="396" y="575" type="qcurve"/>
      <point x="397" y="580" type="line"/>
      <point x="397" y="588"/>
      <point x="379" y="624"/>
      <point x="365" y="637" type="qcurve"/>
      <point x="339" y="660"/>
      <point x="278" y="679"/>
      <point x="252" y="679" type="qcurve"/>
      <point x="234" y="679" type="line"/>
      <point x="215" y="678"/>
      <point x="164" y="647"/>
      <point x="151" y="624" type="qcurve"/>
      <point x="140" y="604"/>
      <point x="133" y="571"/>
      <point x="133" y="548" type="qcurve"/>
      <point x="133" y="538"/>
      <point x="135" y="516"/>
      <point x="137" y="505" type="qcurve"/>
      <point x="146" y="503"/>
      <point x="146" y="503" type="qcurve"/>
      <point x="146" y="503"/>
      <point x="155" y="501" type="qcurve"/>
      <point x="156" y="500" type="line"/>
      <point x="162" y="499" type="line"/>
      <point x="166" y="499"/>
      <point x="168" y="498"/>
      <point x="174" y="496" type="qcurve"/>
      <point x="175" y="495" type="line"/>
      <point x="185" y="493"/>
      <point x="194" y="491"/>
      <point x="200" y="490"/>
      <point x="206" y="487"/>
      <point x="212" y="486" type="qcurve"/>
      <point x="217" y="486"/>
      <point x="217" y="484"/>
      <point x="221" y="484" type="qcurve"/>
      <point x="257" y="474"/>
      <point x="329" y="450"/>
      <point x="396" y="411"/>
      <point x="454" y="351"/>
      <point x="477" y="306" type="qcurve"/>
      <point x="495" y="268"/>
      <point x="504" y="226"/>
      <point x="504" y="217" type="qcurve"/>
      <point x="503" y="207" type="line"/>
      <point x="503" y="156"/>
      <point x="460" y="74"/>
      <point x="399" y="15"/>
      <point x="330" y="-18"/>
      <point x="305" y="-20" type="qcurve"/>
      <point x="279" y="-23"/>
    </contour>
    <contour>
      <point x="373" y="214" type="qcurve"/>
      <point x="361" y="259"/>
      <point x="313" y="330"/>
      <point x="291" y="355" type="qcurve"/>
      <point x="258" y="392"/>
      <point x="188" y="439"/>
      <point x="149" y="457" type="qcurve"/>
      <point x="170" y="403"/>
      <point x="223" y="325"/>
      <point x="282" y="268"/>
      <point x="343" y="229"/>
    </contour>
  </outline>
</glyph>
<glyph name="copyright" format="2">
  <advance width="445"/>
  <unicode hex="00A9"/>
  <outline>
    <contour>
      <point x="223" y="242" type="qcurve"/>
      <point x="180" y="242"/>
      <point x="104" y="275"/>
      <point x="47" y="331"/>
      <point x="14" y="407"/>
      <point x="14" y="450" type="qcurve"/>
      <point x="14" y="495"/>
      <point x="47" y="571"/>
      <point x="104" y="627"/>
      <point x="180" y="659"/>
      <point x="223" y="659" type="qcurve"/>
      <point x="267" y="659"/>
      <point x="343" y="626"/>
      <point x="399" y="570"/>
      <point x="431" y="493"/>
      <point x="431" y="450" type="qcurve"/>
      <point x="431" y="407"/>
      <point x="398" y="331"/>
      <point x="341" y="275"/>
      <point x="266" y="242"/>
    </contour>
    <contour>
      <point x="223" y="270" type="qcurve"/>
      <point x="260" y="270"/>
      <point x="326" y="298"/>
      <point x="375" y="346"/>
      <point x="403" y="412"/>
      <point x="403" y="450" type="qcurve"/>
      <point x="403" y="488"/>
      <point x="375" y="554"/>
      <point x="327" y="603"/>
      <point x="261" y="631"/>
      <point x="223" y="631" type="qcurve"/>
      <point x="186" y="631"/>
      <point x="120" y="603"/>
      <point x="71" y="554"/>
      <point x="42" y="488"/>
      <point x="42" y="450" type="qcurve"/>
      <point x="42" y="411"/>
      <point x="72" y="345"/>
      <point x="121" y="297"/>
      <point x="187" y="270"/>
    </contour>
    <contour>
      <point x="223" y="306" type="qcurve"/>
      <point x="199" y="306"/>
      <point x="160" y="327"/>
      <point x="132" y="364"/>
      <point x="117" y="415"/>
      <point x="117" y="444" type="qcurve"/>
      <point x="117" y="472"/>
      <point x="131" y="525"/>
      <point x="158" y="567"/>
      <point x="198" y="592"/>
      <point x="224" y="592" type="qcurve"/>
      <point x="236" y="592"/>
      <point x="253" y="585"/>
      <point x="267" y="576"/>
      <point x="281" y="569"/>
      <point x="289" y="569" type="qcurve"/>
      <point x="298" y="569"/>
      <point x="300" y="581" type="qcurve"/>
      <point x="307" y="581" type="line"/>
      <point x="307" y="497" type="line"/>
      <point x="299" y="497" type="line"/>
      <point x="298" y="512"/>
      <point x="286" y="543"/>
      <point x="268" y="567"/>
      <point x="245" y="582"/>
      <point x="232" y="582" type="qcurve"/>
      <point x="212" y="582"/>
      <point x="189" y="551"/>
      <point x="177" y="507"/>
      <point x="173" y="460"/>
      <point x="173" y="444" type="qcurve"/>
      <point x="173" y="424"/>
      <point x="177" y="380"/>
      <point x="192" y="344"/>
      <point x="220" y="320"/>
      <point x="243" y="320" type="qcurve"/>
      <point x="255" y="320"/>
      <point x="275" y="338"/>
      <point x="290" y="365"/>
      <point x="299" y="396"/>
      <point x="301" y="409" type="qcurve"/>
      <point x="307" y="409" type="line"/>
      <point x="307" y="310" type="line"/>
      <point x="301" y="310" type="line"/>
      <point x="301" y="318"/>
      <point x="297" y="334"/>
      <point x="289" y="334" type="qcurve"/>
      <point x="286" y="334"/>
      <point x="275" y="325"/>
      <point x="258" y="315"/>
      <point x="237" y="306"/>
    </contour>
  </outline>
</glyph>
<glyph name="ordfeminine" format="2">
  <advance width="289"/>
  <unicode hex="00AA"/>
  <outline>
    <contour>
      <point x="271" y="327" type="line"/>
      <point x="257" y="332"/>
      <point x="224" y="342"/>
      <point x="213" y="342" type="qcurve"/>
      <point x="201" y="342"/>
      <point x="171" y="334"/>
      <point x="151" y="334" type="qcurve"/>
      <point x="117" y="336"/>
      <point x="72" y="346"/>
      <point x="49" y="366" type="qcurve"/>
      <point x="14" y="395"/>
      <point x="14" y="440" type="qcurve"/>
      <point x="14" y="474"/>
      <point x="45" y="511"/>
      <point x="93" y="528"/>
      <point x="154" y="531"/>
      <point x="184" y="531" type="qcurve"/>
      <point x="199" y="531" type="line"/>
      <point x="199" y="539" type="line"/>
      <point x="199" y="552"/>
      <point x="193" y="586"/>
      <point x="176" y="617"/>
      <point x="145" y="639"/>
      <point x="121" y="639" type="qcurve"/>
      <point x="111" y="639"/>
      <point x="86" y="635"/>
      <point x="64" y="626"/>
      <point x="49" y="612"/>
      <point x="49" y="603" type="qcurve"/>
      <point x="49" y="596"/>
      <point x="61" y="595"/>
      <point x="75" y="593"/>
      <point x="87" y="584"/>
      <point x="87" y="570" type="qcurve"/>
      <point x="87" y="559"/>
      <point x="73" y="541"/>
      <point x="59" y="541" type="qcurve"/>
      <point x="42" y="541"/>
      <point x="26" y="566"/>
      <point x="26" y="580" type="qcurve"/>
      <point x="26" y="600"/>
      <point x="42" y="628"/>
      <point x="69" y="646"/>
      <point x="105" y="655"/>
      <point x="124" y="655" type="qcurve"/>
      <point x="155" y="655"/>
      <point x="208" y="641"/>
      <point x="248" y="613"/>
      <point x="271" y="567"/>
      <point x="271" y="536" type="qcurve"/>
    </contour>
    <contour>
      <point x="155" y="352" type="qcurve"/>
      <point x="161" y="352"/>
      <point x="172" y="352"/>
      <point x="177" y="353" type="qcurve"/>
      <point x="186" y="353"/>
      <point x="199" y="358" type="qcurve"/>
      <point x="199" y="514" type="line"/>
      <point x="184" y="515" type="line"/>
      <point x="131" y="515"/>
      <point x="86" y="476"/>
      <point x="86" y="434" type="qcurve"/>
      <point x="86" y="421"/>
      <point x="94" y="392"/>
      <point x="111" y="368"/>
      <point x="137" y="352"/>
    </contour>
  </outline>
</glyph>
<glyph name="registered" format="2">
  <advance width="440"/>
  <unicode hex="00AE"/>
  <outline>
    <contour>
      <point x="222" y="254" type="qcurve"/>
      <point x="180" y="254"/>
      <point x="105" y="287"/>
      <point x="49" y="343"/>
      <point x="17" y="417"/>
      <point x="17" y="458" type="qcurve"/>
      <point x="17" y="500"/>
      <point x="50" y="573"/>
      <point x="107" y="626"/>
      <point x="181" y="657"/>
      <point x="222" y="657" type="qcurve"/>
      <point x="265" y="657"/>
      <point x="337" y="625"/>
      <point x="390" y="571"/>
      <point x="420" y="499"/>
      <point x="420" y="458" type="qcurve"/>
      <point x="420" y="416"/>
      <point x="390" y="342"/>
      <point x="336" y="286"/>
      <point x="264" y="254"/>
    </contour>
    <contour>
      <point x="219" y="284" type="qcurve"/>
      <point x="252" y="284"/>
      <point x="314" y="309"/>
      <point x="364" y="355"/>
      <point x="394" y="417"/>
      <point x="394" y="455" type="qcurve"/>
      <point x="394" y="491"/>
      <point x="364" y="554"/>
      <point x="315" y="601"/>
      <point x="252" y="629"/>
      <point x="219" y="629" type="qcurve"/>
      <point x="182" y="629"/>
      <point x="119" y="599"/>
      <point x="73" y="551"/>
      <point x="47" y="488"/>
      <point x="47" y="455" type="qcurve"/>
      <point x="47" y="419"/>
      <point x="74" y="357"/>
      <point x="120" y="310"/>
      <point x="183" y="284"/>
    </contour>
    <contour>
      <point x="298" y="345" type="qcurve"/>
      <point x="270" y="345"/>
      <point x="253" y="377"/>
      <point x="253" y="405" type="qcurve"/>
      <point x="253" y="411"/>
      <point x="251" y="420"/>
      <point x="251" y="424" type="qcurve"/>
      <point x="250" y="439"/>
      <point x="239" y="456"/>
      <point x="223" y="463"/>
      <point x="203" y="465"/>
      <point x="194" y="465" type="qcurve"/>
      <point x="194" y="352" type="line"/>
      <point x="212" y="352" type="line"/>
      <point x="212" y="347" type="line"/>
      <point x="135" y="347" type="line"/>
      <point x="135" y="352" type="line"/>
      <point x="154" y="352" type="line"/>
      <point x="154" y="574" type="line"/>
      <point x="135" y="574" type="line"/>
      <point x="135" y="581" type="line"/>
      <point x="236" y="581" type="line"/>
      <point x="259" y="581"/>
      <point x="297" y="556"/>
      <point x="297" y="524" type="qcurve"/>
      <point x="297" y="504"/>
      <point x="283" y="486"/>
      <point x="270" y="477" type="qcurve"/>
      <point x="263" y="472"/>
      <point x="251" y="470" type="qcurve"/>
      <point x="251" y="468" type="line"/>
      <point x="265" y="462"/>
      <point x="282" y="445"/>
      <point x="291" y="424"/>
      <point x="293" y="400"/>
      <point x="293" y="389" type="qcurve"/>
      <point x="295" y="373"/>
      <point x="297" y="352"/>
      <point x="308" y="352" type="qcurve"/>
      <point x="311" y="352"/>
      <point x="318" y="354"/>
      <point x="320" y="354" type="qcurve"/>
      <point x="322" y="348" type="line"/>
      <point x="318" y="346"/>
      <point x="305" y="345"/>
    </contour>
    <contour>
      <point x="204" y="471" type="line"/>
      <point x="224" y="471"/>
      <point x="256" y="492"/>
      <point x="256" y="522" type="qcurve"/>
      <point x="256" y="554"/>
      <point x="226" y="574"/>
      <point x="203" y="574" type="qcurve"/>
      <point x="194" y="574" type="line"/>
      <point x="194" y="471" type="line"/>
    </contour>
  </outline>
</glyph>
<glyph name="degree" format="2">
  <advance width="234"/>
  <unicode hex="00B0"/>
  <outline>
    <contour>
      <point x="122" y="487" type="qcurve"/>
      <point x="101" y="487"/>
      <point x="63" y="503"/>
      <point x="36" y="531"/>
      <point x="20" y="568"/>
      <point x="20" y="589" type="qcurve"/>
      <point x="20" y="610"/>
      <point x="36" y="646"/>
      <point x="64" y="673"/>
      <point x="101" y="689"/>
      <point x="122" y="689" type="qcurve"/>
      <point x="142" y="689"/>
      <point x="178" y="674"/>
      <point x="205" y="647"/>
      <point x="221" y="610"/>
      <point x="221" y="589" type="qcurve"/>
      <point x="221" y="568"/>
      <point x="206" y="530"/>
      <point x="179" y="503"/>
      <point x="143" y="487"/>
    </contour>
    <contour>
      <point x="122" y="527" type="qcurve"/>
      <point x="148" y="527"/>
      <point x="185" y="562"/>
      <point x="185" y="589" type="qcurve"/>
      <point x="185" y="614"/>
      <point x="148" y="651"/>
      <point x="122" y="651" type="qcurve"/>
      <point x="95" y="651"/>
      <point x="60" y="614"/>
      <point x="60" y="589" type="qcurve"/>
      <point x="60" y="562"/>
      <point x="96" y="527"/>
    </contour>
  </outline>
</glyph>
<glyph name="paragraph" format="2">
  <advance width="559"/>
  <unicode hex="00B6"/>
  <outline>
    <contour>
      <point x="418" y="-178" type="line"/>
      <point x="418" y="612" type="line"/>
      <point x="271" y="612" type="line"/>
      <point x="271" y="-178" type="line"/>
      <point x="229" y="-178" type="line"/>
      <point x="229" y="237" type="line"/>
      <point x="185" y="237"/>
      <point x="110" y="271"/>
      <point x="54" y="328"/>
      <point x="22" y="403"/>
      <point x="22" y="445" type="qcurve"/>
      <point x="22" y="488"/>
      <point x="54" y="564"/>
      <point x="110" y="621"/>
      <point x="186" y="654"/>
      <point x="229" y="654" type="qcurve"/>
      <point x="531" y="654" type="line"/>
      <point x="531" y="612" type="line"/>
      <point x="460" y="612" type="line"/>
      <point x="460" y="-178" type="line"/>
    </contour>
  </outline>
</glyph>
<glyph name="periodcentered" format="2">
  <advance width="189"/>
  <unicode hex="00B7"/>
  <outline>
    <contour>
      <point x="98" y="257" type="qcurve"/>
      <point x="66" y="257"/>
      <point x="23" y="305"/>
      <point x="23" y="337" type="qcurve"/>
      <point x="23" y="371"/>
      <point x="67" y="416"/>
      <point x="98" y="416" type="qcurve"/>
      <point x="129" y="416"/>
      <point x="173" y="371"/>
      <point x="173" y="337" type="qcurve"/>
      <point x="173" y="305"/>
      <point x="130" y="257"/>
    </contour>
  </outline>
</glyph>
<glyph name="cedilla" format="2">
  <advance width="345"/>
  <unicode hex="00B8"/>
  <outline>
    <contour>
      <point x="169" y="-236" type="qcurve"/>
      <point x="154" y="-236"/>
      <point x="122" y="-229"/>
      <point x="96" y="-213"/>
      <point x="79" y="-188"/>
      <point x="79" y="-170" type="qcurve"/>
      <point x="79" y="-156"/>
      <point x="99" y="-133"/>
      <point x="116" y="-133" type="qcurve"/>
      <point x="130" y="-133"/>
      <point x="149" y="-147"/>
      <point x="149" y="-161" type="qcurve"/>
      <point x="149" y="-175"/>
      <point x="131" y="-184"/>
      <point x="117" y="-186" type="qcurve"/>
      <point x="118" y="-195"/>
      <point x="130" y="-206"/>
      <point x="145" y="-214"/>
      <point x="161" y="-217"/>
      <point x="166" y="-217" type="qcurve"/>
      <point x="194" y="-217"/>
      <point x="220" y="-168"/>
      <point x="220" y="-136" type="qcurve"/>
      <point x="220" y="-120"/>
      <point x="215" y="-90"/>
      <point x="203" y="-66"/>
      <point x="183" y="-52"/>
      <point x="168" y="-52" type="qcurve"/>
      <point x="157" y="-52"/>
      <point x="133" y="-62"/>
      <point x="116" y="-76" type="qcurve"/>
      <point x="90" y="-65" type="line"/>
      <point x="152" y="7" type="line"/>
      <point x="175" y="7" type="line"/>
      <point x="134" y="-38" type="line"/>
      <point x="154" y="-31"/>
      <point x="176" y="-31" type="qcurve"/>
      <point x="197" y="-31"/>
      <point x="241" y="-43"/>
      <point x="276" y="-67"/>
      <point x="299" y="-105"/>
      <point x="299" y="-132" type="qcurve"/>
      <point x="299" y="-161"/>
      <point x="276" y="-200"/>
      <point x="239" y="-225"/>
      <point x="193" y="-236"/>
    </contour>
  </outline>
</glyph>
<glyph name="ordmasculine" format="2">
  <advance width="343"/>
  <unicode hex="00BA"/>
  <outline>
    <contour>
      <point x="166" y="326" type="qcurve"/>
      <point x="131" y="327"/>
      <point x="75" y="353"/>
      <point x="35" y="398"/>
      <point x="13" y="460"/>
      <point x="13" y="497" type="qcurve"/>
      <point x="13" y="526"/>
      <point x="37" y="582"/>
      <point x="79" y="627"/>
      <point x="134" y="655"/>
      <point x="166" y="655" type="qcurve"/>
      <point x="199" y="655"/>
      <point x="254" y="626"/>
      <point x="295" y="580"/>
      <point x="318" y="522"/>
      <point x="318" y="493" type="qcurve"/>
      <point x="318" y="457"/>
      <point x="295" y="396"/>
      <point x="255" y="352"/>
      <point x="199" y="327"/>
    </contour>
    <contour>
      <point x="165" y="341" type="qcurve"/>
      <point x="192" y="341"/>
      <point x="222" y="372"/>
      <point x="237" y="418"/>
      <point x="240" y="472"/>
      <point x="240" y="495" type="qcurve"/>
      <point x="240" y="510"/>
      <point x="235" y="559"/>
      <point x="220" y="606"/>
      <point x="191" y="639"/>
      <point x="167" y="639" type="qcurve"/>
      <point x="140" y="639"/>
      <point x="109" y="607"/>
      <point x="92" y="562"/>
      <point x="87" y="513"/>
      <point x="87" y="495" type="qcurve"/>
      <point x="87" y="472"/>
      <point x="91" y="419"/>
      <point x="106" y="372"/>
      <point x="137" y="341"/>
    </contour>
  </outline>
</glyph>
<glyph name="questiondown" format="2">
  <advance width="330"/>
  <unicode hex="00BF"/>
  <outline>
    <contour>
      <point x="226" y="581" type="qcurve"/>
      <point x="209" y="581"/>
      <point x="184" y="612"/>
      <point x="184" y="632" type="qcurve"/>
      <point x="184" y="656"/>
      <point x="210" y="684"/>
      <point x="227" y="684" type="qcurve"/>
      <point x="246" y="684"/>
      <point x="269" y="654"/>
      <point x="269" y="632" type="qcurve"/>
      <point x="269" y="612"/>
      <point x="245" y="581"/>
    </contour>
    <contour>
      <point x="224" y="524" type="line"/>
      <point x="227" y="517" type="line"/>
      <point x="216" y="514" type="line"/>
    </contour>
    <contour>
      <point x="182" y="-11" type="qcurve"/>
      <point x="122" y="-11"/>
      <point x="46" y="76"/>
      <point x="46" y="153" type="qcurve"/>
      <point x="46" y="171"/>
      <point x="49" y="209"/>
      <point x="55" y="227" type="qcurve"/>
      <point x="65" y="258"/>
      <point x="99" y="305"/>
      <point x="138" y="343"/>
      <point x="178" y="376"/>
      <point x="211" y="411"/>
      <point x="231" y="452"/>
      <point x="231" y="479" type="qcurve"/>
      <point x="231" y="502"/>
      <point x="227" y="517" type="qcurve"/>
      <point x="242" y="520" type="line"/>
      <point x="254" y="489"/>
      <point x="268" y="428"/>
      <point x="268" y="405" type="qcurve"/>
      <point x="268" y="366"/>
      <point x="239" y="307"/>
      <point x="196" y="258"/>
      <point x="145" y="216"/>
      <point x="102" y="176"/>
      <point x="73" y="134"/>
      <point x="73" y="109" type="qcurve"/>
      <point x="73" y="83"/>
      <point x="93" y="44"/>
      <point x="125" y="18"/>
      <point x="164" y="6"/>
      <point x="182" y="6" type="qcurve"/>
      <point x="191" y="6"/>
      <point x="219" y="13"/>
      <point x="247" y="26"/>
      <point x="267" y="48"/>
      <point x="267" y="63" type="qcurve"/>
      <point x="267" y="71"/>
      <point x="253" y="76"/>
      <point x="249" y="76" type="qcurve"/>
      <point x="214" y="84"/>
      <point x="214" y="123" type="qcurve"/>
      <point x="214" y="143"/>
      <point x="236" y="168"/>
      <point x="253" y="168" type="qcurve"/>
      <point x="273" y="168"/>
      <point x="297" y="126"/>
      <point x="297" y="101" type="qcurve"/>
      <point x="297" y="74"/>
      <point x="276" y="32"/>
      <point x="242" y="4"/>
      <point x="201" y="-11"/>
    </contour>
  </outline>
</glyph>
<glyph name="Agrave" format="2">
  <advance width="536"/>
  <unicode hex="00C0"/>
  <outline>
    <contour>
      <point x="380" y="700" type="line"/>
      <point x="362" y="709"/>
      <point x="323" y="726"/>
      <point x="286" y="742"/>
      <point x="254" y="757"/>
      <point x="244" y="763" type="qcurve"/>
      <point x="224" y="774"/>
      <point x="210" y="792"/>
      <point x="210" y="801" type="qcurve"/>
      <point x="210" y="812"/>
      <point x="218" y="837"/>
      <point x="230" y="841" type="qcurve"/>
      <point x="240" y="844"/>
      <point x="249" y="844" type="qcurve"/>
      <point x="250" y="844"/>
      <point x="261" y="843"/>
      <point x="276" y="840"/>
      <point x="292" y="836"/>
      <point x="299" y="833" type="qcurve"/>
      <point x="386" y="709" type="line"/>
    </contour>
    <contour>
      <point x="310" y="0" type="line"/>
      <point x="310" y="17" type="line"/>
      <point x="377" y="17" type="line"/>
      <point x="313" y="218" type="line"/>
      <point x="139" y="218" type="line"/>
      <point x="133" y="202"/>
      <point x="117" y="151"/>
      <point x="101" y="99"/>
      <point x="90" y="55"/>
      <point x="90" y="46" type="qcurve"/>
      <point x="90" y="29"/>
      <point x="129" y="17"/>
      <point x="149" y="17" type="qcurve"/>
      <point x="172" y="17" type="line"/>
      <point x="172" y="0" type="line"/>
      <point x="-5" y="0" type="line"/>
      <point x="-5" y="17" type="line"/>
      <point x="18" y="17"/>
      <point x="45" y="24"/>
      <point x="63" y="41"/>
      <point x="75" y="71"/>
      <point x="83" y="94" type="qcurve"/>
      <point x="128" y="246"/>
      <point x="214" y="533"/>
      <point x="258" y="677" type="qcurve"/>
      <point x="292" y="677" type="line"/>
      <point x="505" y="17" type="line"/>
      <point x="549" y="17" type="line"/>
      <point x="549" y="0" type="line"/>
    </contour>
    <contour>
      <point x="224" y="497" type="line"/>
      <point x="144" y="235" type="line"/>
      <point x="308" y="235" type="line"/>
    </contour>
  </outline>
</glyph>
<glyph name="Aacute" format="2">
  <advance width="536"/>
  <unicode hex="00C1"/>
  <outline>
    <contour>
      <point x="202" y="709" type="line"/>
      <point x="289" y="833" type="line"/>
      <point x="296" y="836"/>
      <point x="312" y="840"/>
      <point x="327" y="843"/>
      <point x="338" y="844"/>
      <point x="339" y="844" type="qcurve"/>
      <point x="348" y="844"/>
      <point x="368" y="838"/>
      <point x="373" y="827" type="qcurve"/>
      <point x="378" y="810"/>
      <point x="378" y="801" type="qcurve"/>
      <point x="378" y="779"/>
      <point x="305" y="742"/>
      <point x="236" y="713" type="qcurve"/>
      <point x="208" y="700" type="line"/>
    </contour>
    <contour>
      <point x="310" y="0" type="line"/>
      <point x="310" y="17" type="line"/>
      <point x="377" y="17" type="line"/>
      <point x="313" y="218" type="line"/>
      <point x="139" y="218" type="line"/>
      <point x="133" y="202"/>
      <point x="117" y="151"/>
      <point x="101" y="99"/>
      <point x="90" y="55"/>
      <point x="90" y="46" type="qcurve"/>
      <point x="90" y="29"/>
      <point x="129" y="17"/>
      <point x="149" y="17" type="qcurve"/>
      <point x="172" y="17" type="line"/>
      <point x="172" y="0" type="line"/>
      <point x="-5" y="0" type="line"/>
      <point x="-5" y="17" type="line"/>
      <point x="18" y="17"/>
      <point x="45" y="24"/>
      <point x="63" y="41"/>
      <point x="75" y="71"/>
      <point x="83" y="94" type="qcurve"/>
      <point x="128" y="246"/>
      <point x="214" y="533"/>
      <point x="258" y="677" type="qcurve"/>
      <point x="292" y="677" type="line"/>
      <point x="505" y="17" type="line"/>
      <point x="549" y="17" type="line"/>
      <point x="549" y="0" type="line"/>
    </contour>
    <contour>
      <point x="224" y="497" type="line"/>
      <point x="144" y="235" type="line"/>
      <point x="308" y="235" type="line"/>
    </contour>
  </outline>
</glyph>
<glyph name="Acircumflex" format="2">
  <advance width="536"/>
  <unicode hex="00C2"/>
  <outline>
    <contour>
      <point x="405" y="709" type="line"/>
      <point x="403" y="709" type="line"/>
      <point x="400" y="711" type="line"/>
      <point x="398" y="711" type="line"/>
      <point x="395" y="713" type="line"/>
      <point x="393" y="713" type="line"/>
      <point x="392" y="714" type="line"/>
      <point x="390" y="715"/>
      <point x="389" y="714"/>
      <point x="387" y="716" type="qcurve"/>
      <point x="385" y="717"/>
      <point x="384" y="716"/>
      <point x="382" y="718" type="qcurve"/>
      <point x="354" y="729"/>
      <point x="301" y="754"/>
      <point x="281" y="765" type="qcurve"/>
      <point x="276" y="763"/>
      <point x="269" y="757"/>
      <point x="262" y="755" type="qcurve"/>
      <point x="258" y="755"/>
      <point x="252" y="752"/>
      <point x="244" y="747" type="qcurve"/>
      <point x="179" y="717" type="line"/>
      <point x="177" y="717" type="line"/>
      <point x="174" y="715" type="line"/>
      <point x="172" y="715" type="line"/>
      <point x="169" y="713" type="line"/>
      <point x="167" y="713" type="line"/>
      <point x="164" y="711" type="line"/>
      <point x="162" y="711" type="line"/>
      <point x="159" y="709" type="line"/>
      <point x="157" y="709" type="line"/>
      <point x="156" y="708" type="line"/>
      <point x="150" y="717" type="line"/>
      <point x="237" y="841" type="line"/>
      <point x="250" y="848"/>
      <point x="266" y="852"/>
      <point x="274" y="852" type="qcurve"/>
      <point x="291" y="852"/>
      <point x="314" y="844"/>
      <point x="325" y="841" type="qcurve"/>
      <point x="412" y="717" type="line"/>
      <point x="406" y="708" type="line"/>
    </contour>
    <contour>
      <point x="310" y="0" type="line"/>
      <point x="310" y="17" type="line"/>
      <point x="377" y="17" type="line"/>
      <point x="313" y="218" type="line"/>
      <point x="139" y="218" type="line"/>
      <point x="133" y="202"/>
      <point x="117" y="151"/>
      <point x="101" y="99"/>
      <point x="90" y="55"/>
      <point x="90" y="46" type="qcurve"/>
      <point x="90" y="29"/>
      <point x="129" y="17"/>
      <point x="149" y="17" type="qcurve"/>
      <point x="172" y="17" type="line"/>
      <point x="172" y="0" type="line"/>
      <point x="-5" y="0" type="line"/>
      <point x="-5" y="17" type="line"/>
      <point x="18" y="17"/>
      <point x="45" y="24"/>
      <point x="63" y="41"/>
      <point x="75" y="71"/>
      <point x="83" y="94" type="qcurve"/>
      <point x="128" y="246"/>
      <point x="214" y="533"/>
      <point x="258" y="677" type="qcurve"/>
      <point x="292" y="677" type="line"/>
      <point x="505" y="17" type="line"/>
      <point x="549" y="17" type="line"/>
      <point x="549" y="0" type="line"/>
    </contour>
    <contour>
      <point x="224" y="497" type="line"/>
      <point x="144" y="235" type="line"/>
      <point x="308" y="235" type="line"/>
    </contour>
  </outline>
</glyph>
<glyph name="Atilde" format="2">
  <advance width="536"/>
  <unicode hex="00C3"/>
  <outline>
    <contour>
      <point x="155" y="699" type="line"/>
      <point x="158" y="712"/>
      <point x="170" y="745"/>
      <point x="189" y="775"/>
      <point x="216" y="798"/>
      <point x="234" y="801" type="qcurve"/>
      <point x="241" y="802" type="line"/>
      <point x="251" y="802"/>
      <point x="287" y="792"/>
      <point x="324" y="780"/>
      <point x="358" y="770"/>
      <point x="366" y="770" type="qcurve"/>
      <point x="370" y="770"/>
      <point x="371" y="771" type="qcurve"/>
      <point x="385" y="773"/>
      <point x="403" y="796"/>
      <point x="408" y="808" type="qcurve"/>
      <point x="408" y="805" type="line"/>
      <point x="419" y="804" type="line"/>
      <point x="416" y="790"/>
      <point x="404" y="755"/>
      <point x="384" y="723"/>
      <point x="355" y="701"/>
      <point x="336" y="701" type="qcurve"/>
      <point x="330" y="701"/>
      <point x="317" y="704"/>
      <point x="294" y="711"/>
      <point x="257" y="721"/>
      <point x="228" y="728" type="qcurve"/>
      <point x="213" y="732"/>
      <point x="205" y="732" type="qcurve"/>
      <point x="191" y="732"/>
      <point x="173" y="710"/>
      <point x="167" y="697" type="qcurve"/>
    </contour>
    <contour>
      <point x="310" y="0" type="line"/>
      <point x="310" y="17" type="line"/>
      <point x="377" y="17" type="line"/>
      <point x="313" y="218" type="line"/>
      <point x="139" y="218" type="line"/>
      <point x="133" y="202"/>
      <point x="117" y="151"/>
      <point x="101" y="99"/>
      <point x="90" y="55"/>
      <point x="90" y="46" type="qcurve"/>
      <point x="90" y="29"/>
      <point x="129" y="17"/>
      <point x="149" y="17" type="qcurve"/>
      <point x="172" y="17" type="line"/>
      <point x="172" y="0" type="line"/>
      <point x="-5" y="0" type="line"/>
      <point x="-5" y="17" type="line"/>
      <point x="18" y="17"/>
      <point x="45" y="24"/>
      <point x="63" y="41"/>
      <point x="75" y="71"/>
      <point x="83" y="94" type="qcurve"/>
      <point x="128" y="246"/>
      <point x="214" y="533"/>
      <point x="258" y="677" type="qcurve"/>
      <point x="292" y="677" type="line"/>
      <point x="505" y="17" type="line"/>
      <point x="549" y="17" type="line"/>
      <point x="549" y="0" type="line"/>
    </contour>
    <contour>
      <point x="224" y="497" type="line"/>
      <point x="144" y="235" type="line"/>
      <point x="308" y="235" type="line"/>
    </contour>
  </outline>
</glyph>
<glyph name="Aring" format="2">
  <advance width="536"/>
  <unicode hex="00C5"/>
  <outline>
    <contour>
      <point x="309" y="0" type="line"/>
      <point x="309" y="17" type="line"/>
      <point x="376" y="17" type="line"/>
      <point x="312" y="218" type="line"/>
      <point x="138" y="218" type="line"/>
      <point x="132" y="202"/>
      <point x="116" y="151"/>
      <point x="100" y="99"/>
      <point x="89" y="55"/>
      <point x="89" y="46" type="qcurve"/>
      <point x="89" y="29"/>
      <point x="128" y="17"/>
      <point x="148" y="17" type="qcurve"/>
      <point x="171" y="17" type="line"/>
      <point x="171" y="0" type="line"/>
      <point x="-6" y="0" type="line"/>
      <point x="-6" y="17" type="line"/>
      <point x="17" y="17"/>
      <point x="44" y="24"/>
      <point x="62" y="41"/>
      <point x="74" y="71"/>
      <point x="82" y="94" type="qcurve"/>
      <point x="127" y="246"/>
      <point x="213" y="533"/>
      <point x="257" y="677" type="qcurve"/>
      <point x="291" y="677" type="line"/>
      <point x="504" y="17" type="line"/>
      <point x="548" y="17" type="line"/>
      <point x="548" y="0" type="line"/>
    </contour>
    <contour>
      <point x="223" y="497" type="line"/>
      <point x="143" y="235" type="line"/>
      <point x="307" y="235" type="line"/>
    </contour>
    <contour>
      <point x="285" y="716" type="qcurve"/>
      <point x="250" y="716"/>
      <point x="206" y="760"/>
      <point x="206" y="791" type="qcurve"/>
      <point x="206" y="823"/>
      <point x="250" y="868"/>
      <point x="285" y="868" type="qcurve"/>
      <point x="319" y="868"/>
      <point x="363" y="823"/>
      <point x="363" y="791" type="qcurve"/>
      <point x="363" y="760"/>
      <point x="319" y="716"/>
    </contour>
    <contour>
      <point x="284" y="759" type="qcurve"/>
      <point x="298" y="759"/>
      <point x="316" y="778"/>
      <point x="316" y="792" type="qcurve"/>
      <point x="316" y="806"/>
      <point x="298" y="827"/>
      <point x="284" y="827" type="qcurve"/>
      <point x="270" y="827"/>
      <point x="251" y="806"/>
      <point x="251" y="792" type="qcurve"/>
      <point x="251" y="778"/>
      <point x="270" y="759"/>
    </contour>
  </outline>
</glyph>
<glyph name="Ccedilla" format="2">
  <advance width="551"/>
  <unicode hex="00C7"/>
  <outline>
    <contour>
      <point x="291" y="-236" type="qcurve"/>
      <point x="276" y="-236"/>
      <point x="244" y="-229"/>
      <point x="218" y="-213"/>
      <point x="201" y="-188"/>
      <point x="201" y="-170" type="qcurve"/>
      <point x="201" y="-156"/>
      <point x="221" y="-133"/>
      <point x="238" y="-133" type="qcurve"/>
      <point x="252" y="-133"/>
      <point x="271" y="-147"/>
      <point x="271" y="-161" type="qcurve"/>
      <point x="271" y="-175"/>
      <point x="253" y="-184"/>
      <point x="239" y="-186" type="qcurve"/>
      <point x="240" y="-195"/>
      <point x="252" y="-206"/>
      <point x="267" y="-214"/>
      <point x="283" y="-217"/>
      <point x="288" y="-217" type="qcurve"/>
      <point x="316" y="-217"/>
      <point x="342" y="-168"/>
      <point x="342" y="-136" type="qcurve"/>
      <point x="342" y="-120"/>
      <point x="337" y="-90"/>
      <point x="325" y="-66"/>
      <point x="305" y="-52"/>
      <point x="290" y="-52" type="qcurve"/>
      <point x="279" y="-52"/>
      <point x="255" y="-62"/>
      <point x="238" y="-76" type="qcurve"/>
      <point x="212" y="-65" type="line"/>
      <point x="261" y="-8" type="line"/>
      <point x="211" y="-2"/>
      <point x="130" y="56"/>
      <point x="72" y="146"/>
      <point x="41" y="259"/>
      <point x="41" y="321" type="qcurve"/>
      <point x="41" y="385"/>
      <point x="74" y="512"/>
      <point x="138" y="614"/>
      <point x="235" y="677"/>
      <point x="300" y="677" type="qcurve"/>
      <point x="327" y="677"/>
      <point x="369" y="660"/>
      <point x="405" y="640"/>
      <point x="437" y="623"/>
      <point x="455" y="623" type="qcurve"/>
      <point x="476" y="623"/>
      <point x="481" y="650" type="qcurve"/>
      <point x="499" y="650" type="line"/>
      <point x="499" y="448" type="line"/>
      <point x="479" y="448" type="line"/>
      <point x="477" y="483"/>
      <point x="451" y="556"/>
      <point x="409" y="615"/>
      <point x="352" y="653"/>
      <point x="319" y="653" type="qcurve"/>
      <point x="287" y="653"/>
      <point x="241" y="619"/>
      <point x="210" y="564"/>
      <point x="190" y="494"/>
      <point x="180" y="420"/>
      <point x="176" y="349"/>
      <point x="176" y="321" type="qcurve"/>
      <point x="176" y="271"/>
      <point x="187" y="166"/>
      <point x="223" y="79"/>
      <point x="289" y="23"/>
      <point x="344" y="23" type="qcurve"/>
      <point x="373" y="23"/>
      <point x="421" y="67"/>
      <point x="457" y="131"/>
      <point x="480" y="206"/>
      <point x="484" y="238" type="qcurve"/>
      <point x="499" y="238" type="line"/>
      <point x="499" y="0" type="line"/>
      <point x="484" y="0" type="line"/>
      <point x="484" y="9"/>
      <point x="482" y="29"/>
      <point x="476" y="46"/>
      <point x="465" y="58"/>
      <point x="456" y="58" type="qcurve"/>
      <point x="448" y="58"/>
      <point x="421" y="36"/>
      <point x="382" y="11"/>
      <point x="330" y="-11"/>
      <point x="297" y="-11" type="qcurve"/>
      <point x="281" y="-11" type="line"/>
      <point x="256" y="-38" type="line"/>
      <point x="276" y="-31"/>
      <point x="298" y="-31" type="qcurve"/>
      <point x="319" y="-31"/>
      <point x="363" y="-43"/>
      <point x="398" y="-67"/>
      <point x="421" y="-105"/>
      <point x="421" y="-132" type="qcurve"/>
      <point x="421" y="-161"/>
      <point x="398" y="-200"/>
      <point x="361" y="-225"/>
      <point x="315" y="-236"/>
    </contour>
  </outline>
</glyph>
<glyph name="Egrave" format="2">
  <advance width="558"/>
  <unicode hex="00C8"/>
  <outline>
    <contour>
      <point x="380" y="700" type="line"/>
      <point x="362" y="709"/>
      <point x="323" y="726"/>
      <point x="286" y="742"/>
      <point x="254" y="757"/>
      <point x="244" y="763" type="qcurve"/>
      <point x="224" y="774"/>
      <point x="210" y="792"/>
      <point x="210" y="801" type="qcurve"/>
      <point x="210" y="812"/>
      <point x="218" y="837"/>
      <point x="230" y="841" type="qcurve"/>
      <point x="240" y="844"/>
      <point x="249" y="844" type="qcurve"/>
      <point x="250" y="844"/>
      <point x="261" y="843"/>
      <point x="276" y="840"/>
      <point x="292" y="836"/>
      <point x="299" y="833" type="qcurve"/>
      <point x="386" y="709" type="line"/>
    </contour>
    <contour>
      <point x="27" y="0" type="line"/>
      <point x="27" y="17" type="line"/>
      <point x="77" y="17" type="line"/>
      <point x="77" y="650" type="line"/>
      <point x="27" y="650" type="line"/>
      <point x="27" y="667" type="line"/>
      <point x="528" y="667" type="line"/>
      <point x="529" y="503" type="line"/>
      <point x="512" y="503" type="line"/>
      <point x="504" y="557"/>
      <point x="465" y="615"/>
      <point x="406" y="642"/>
      <point x="330" y="647"/>
      <point x="286" y="647" type="qcurve"/>
      <point x="198" y="647" type="line"/>
      <point x="198" y="352" type="line"/>
      <point x="224" y="352" type="line"/>
      <point x="255" y="352"/>
      <point x="302" y="356"/>
      <point x="333" y="378"/>
      <point x="350" y="424"/>
      <point x="351" y="467" type="qcurve"/>
      <point x="367" y="467" type="line"/>
      <point x="367" y="215" type="line"/>
      <point x="351" y="215" type="line"/>
      <point x="350" y="253"/>
      <point x="336" y="298"/>
      <point x="312" y="321"/>
      <point x="278" y="328"/>
      <point x="257" y="328" type="qcurve"/>
      <point x="198" y="328" type="line"/>
      <point x="198" y="20" type="line"/>
      <point x="295" y="20" type="line"/>
      <point x="341" y="20"/>
      <point x="420" y="26"/>
      <point x="478" y="59"/>
      <point x="512" y="131"/>
      <point x="512" y="197" type="qcurve"/>
      <point x="529" y="197" type="line"/>
      <point x="529" y="0" type="line"/>
    </contour>
  </outline>
</glyph>
<glyph name="Eacute" format="2">
  <advance width="558"/>
  <unicode hex="00C9"/>
  <outline>
    <contour>
      <point x="205" y="709" type="line"/>
      <point x="292" y="833" type="line"/>
      <point x="299" y="836"/>
      <point x="315" y="840"/>
      <point x="330" y="843"/>
      <point x="341" y="844"/>
      <point x="342" y="844" type="qcurve"/>
      <point x="351" y="844"/>
      <point x="371" y="838"/>
      <point x="376" y="827" type="qcurve"/>
      <point x="381" y="810"/>
      <point x="381" y="801" type="qcurve"/>
      <point x="381" y="779"/>
      <point x="308" y="742"/>
      <point x="239" y="713" type="qcurve"/>
      <point x="211" y="700" type="line"/>
    </contour>
    <contour>
      <point x="27" y="0" type="line"/>
      <point x="27" y="17" type="line"/>
      <point x="77" y="17" type="line"/>
      <point x="77" y="650" type="line"/>
      <point x="27" y="650" type="line"/>
      <point x="27" y="667" type="line"/>
      <point x="528" y="667" type="line"/>
      <point x="529" y="503" type="line"/>
      <point x="512" y="503" type="line"/>
      <point x="504" y="557"/>
      <point x="465" y="615"/>
      <point x="406" y="642"/>
      <point x="330" y="647"/>
      <point x="286" y="647" type="qcurve"/>
      <point x="198" y="647" type="line"/>
      <point x="198" y="352" type="line"/>
      <point x="224" y="352" type="line"/>
      <point x="255" y="352"/>
      <point x="302" y="356"/>
      <point x="333" y="378"/>
      <point x="350" y="424"/>
      <point x="351" y="467" type="qcurve"/>
      <point x="367" y="467" type="line"/>
      <point x="367" y="215" type="line"/>
      <point x="351" y="215" type="line"/>
      <point x="350" y="253"/>
      <point x="336" y="298"/>
      <point x="312" y="321"/>
      <point x="278" y="328"/>
      <point x="257" y="328" type="qcurve"/>
      <point x="198" y="328" type="line"/>
      <point x="198" y="20" type="line"/>
      <point x="295" y="20" type="line"/>
      <point x="341" y="20"/>
      <point x="420" y="26"/>
      <point x="478" y="59"/>
      <point x="512" y="131"/>
      <point x="512" y="197" type="qcurve"/>
      <point x="529" y="197" type="line"/>
      <point x="529" y="0" type="line"/>
    </contour>
  </outline>
</glyph>
<glyph name="Ecircumflex" format="2">
  <advance width="558"/>
  <unicode hex="00CA"/>
  <outline>
    <contour>
      <point x="405" y="709" type="line"/>
      <point x="403" y="709" type="line"/>
      <point x="400" y="711" type="line"/>
      <point x="398" y="711" type="line"/>
      <point x="395" y="713" type="line"/>
      <point x="393" y="713" type="line"/>
      <point x="392" y="714" type="line"/>
      <point x="390" y="715"/>
      <point x="389" y="714"/>
      <point x="387" y="716" type="qcurve"/>
      <point x="385" y="717"/>
      <point x="384" y="716"/>
      <point x="382" y="718" type="qcurve"/>
      <point x="354" y="729"/>
      <point x="301" y="754"/>
      <point x="281" y="765" type="qcurve"/>
      <point x="276" y="763"/>
      <point x="269" y="757"/>
      <point x="262" y="755" type="qcurve"/>
      <point x="258" y="755"/>
      <point x="252" y="752"/>
      <point x="244" y="747" type="qcurve"/>
      <point x="179" y="717" type="line"/>
      <point x="177" y="717" type="line"/>
      <point x="174" y="715" type="line"/>
      <point x="172" y="715" type="line"/>
      <point x="169" y="713" type="line"/>
      <point x="167" y="713" type="line"/>
      <point x="164" y="711" type="line"/>
      <point x="162" y="711" type="line"/>
      <point x="159" y="709" type="line"/>
      <point x="157" y="709" type="line"/>
      <point x="156" y="708" type="line"/>
      <point x="150" y="717" type="line"/>
      <point x="237" y="841" type="line"/>
      <point x="250" y="848"/>
      <point x="266" y="852"/>
      <point x="274" y="852" type="qcurve"/>
      <point x="291" y="852"/>
      <point x="314" y="844"/>
      <point x="325" y="841" type="qcurve"/>
      <point x="412" y="717" type="line"/>
      <point x="406" y="708" type="line"/>
    </contour>
    <contour>
      <point x="27" y="0" type="line"/>
      <point x="27" y="17" type="line"/>
      <point x="77" y="17" type="line"/>
      <point x="77" y="650" type="line"/>
      <point x="27" y="650" type="line"/>
      <point x="27" y="667" type="line"/>
      <point x="528" y="667" type="line"/>
      <point x="529" y="503" type="line"/>
      <point x="512" y="503" type="line"/>
      <point x="504" y="557"/>
      <point x="465" y="615"/>
      <point x="406" y="642"/>
      <point x="330" y="647"/>
      <point x="286" y="647" type="qcurve"/>
      <point x="198" y="647" type="line"/>
      <point x="198" y="352" type="line"/>
      <point x="224" y="352" type="line"/>
      <point x="255" y="352"/>
      <point x="302" y="356"/>
      <point x="333" y="378"/>
      <point x="350" y="424"/>
      <point x="351" y="467" type="qcurve"/>
      <point x="367" y="467" type="line"/>
      <point x="367" y="215" type="line"/>
      <point x="351" y="215" type="line"/>
      <point x="350" y="253"/>
      <point x="336" y="298"/>
      <point x="312" y="321"/>
      <point x="278" y="328"/>
      <point x="257" y="328" type="qcurve"/>
      <point x="198" y="328" type="line"/>
      <point x="198" y="20" type="line"/>
      <point x="295" y="20" type="line"/>
      <point x="341" y="20"/>
      <point x="420" y="26"/>
      <point x="478" y="59"/>
      <point x="512" y="131"/>
      <point x="512" y="197" type="qcurve"/>
      <point x="529" y="197" type="line"/>
      <point x="529" y="0" type="line"/>
    </contour>
  </outline>
</glyph>
<glyph name="Idieresis" format="2">
  <advance width="308"/>
  <unicode hex="00CF"/>
  <outline>
    <contour>
      <point x="76" y="708" type="qcurve"/>
      <point x="51" y="708"/>
      <point x="18" y="743"/>
      <point x="18" y="766" type="qcurve"/>
      <point x="18" y="789"/>
      <point x="51" y="824"/>
      <point x="76" y="824" type="qcurve"/>
      <point x="101" y="824"/>
      <point x="134" y="789"/>
      <point x="134" y="766" type="qcurve"/>
      <point x="134" y="743"/>
      <point x="101" y="708"/>
    </contour>
    <contour>
      <point x="231" y="708" type="qcurve"/>
      <point x="206" y="708"/>
      <point x="173" y="743"/>
      <point x="173" y="766" type="qcurve"/>
      <point x="173" y="789"/>
      <point x="206" y="824"/>
      <point x="231" y="824" type="qcurve"/>
      <point x="256" y="824"/>
      <point x="289" y="789"/>
      <point x="289" y="766" type="qcurve"/>
      <point x="289" y="743"/>
      <point x="256" y="708"/>
    </contour>
    <contour>
      <point x="31" y="0" type="line"/>
      <point x="31" y="17" type="line"/>
      <point x="94" y="17" type="line"/>
      <point x="94" y="650" type="line"/>
      <point x="31" y="650" type="line"/>
      <point x="31" y="667" type="line"/>
      <point x="280" y="667" type="line"/>
      <point x="280" y="650" type="line"/>
      <point x="208" y="650" type="line"/>
      <point x="208" y="17" type="line"/>
      <point x="280" y="17" type="line"/>
      <point x="280" y="0" type="line"/>
    </contour>
  </outline>
</glyph>
<glyph name="Ograve" format="2">
  <advance width="595"/>
  <unicode hex="00D2"/>
  <outline>
    <contour>
      <point x="380" y="700" type="line"/>
      <point x="362" y="709"/>
      <point x="323" y="726"/>
      <point x="286" y="742"/>
      <point x="254" y="757"/>
      <point x="244" y="763" type="qcurve"/>
      <point x="224" y="774"/>
      <point x="210" y="792"/>
      <point x="210" y="801" type="qcurve"/>
      <point x="210" y="812"/>
      <point x="218" y="837"/>
      <point x="230" y="841" type="qcurve"/>
      <point x="240" y="844"/>
      <point x="249" y="844" type="qcurve"/>
      <point x="250" y="844"/>
      <point x="261" y="843"/>
      <point x="276" y="840"/>
      <point x="292" y="836"/>
      <point x="299" y="833" type="qcurve"/>
      <point x="386" y="709" type="line"/>
    </contour>
    <contour>
      <point x="301" y="-12" type="qcurve"/>
      <point x="241" y="-12"/>
      <point x="145" y="51"/>
      <point x="78" y="151"/>
      <point x="41" y="277"/>
      <point x="41" y="340" type="qcurve"/>
      <point x="41" y="402"/>
      <point x="82" y="524"/>
      <point x="152" y="620"/>
      <point x="247" y="680"/>
      <point x="301" y="680" type="qcurve"/>
      <point x="360" y="680"/>
      <point x="456" y="617"/>
      <point x="523" y="517"/>
      <point x="560" y="393"/>
      <point x="560" y="332" type="qcurve"/>
      <point x="560" y="269"/>
      <point x="522" y="146"/>
      <point x="454" y="48"/>
      <point x="359" y="-12"/>
    </contour>
    <contour>
      <point x="300" y="4" type="qcurve"/>
      <point x="333" y="4"/>
      <point x="378" y="38"/>
      <point x="408" y="93"/>
      <point x="425" y="164"/>
      <point x="433" y="238"/>
      <point x="435" y="308"/>
      <point x="435" y="336" type="qcurve"/>
      <point x="435" y="369"/>
      <point x="430" y="457"/>
      <point x="413" y="546"/>
      <point x="381" y="624"/>
      <point x="354" y="647" type="qcurve"/>
      <point x="332" y="664"/>
      <point x="303" y="664" type="qcurve"/>
      <point x="271" y="664"/>
      <point x="225" y="631"/>
      <point x="193" y="576"/>
      <point x="174" y="506"/>
      <point x="163" y="433"/>
      <point x="159" y="363"/>
      <point x="159" y="335" type="qcurve"/>
      <point x="159" y="306"/>
      <point x="162" y="235"/>
      <point x="171" y="162"/>
      <point x="190" y="92"/>
      <point x="221" y="37"/>
      <point x="267" y="4"/>
    </contour>
  </outline>
</glyph>
<glyph name="Otilde" format="2">
  <advance width="595"/>
  <unicode hex="00D5"/>
  <outline>
    <contour>
      <point x="183" y="699" type="line"/>
      <point x="186" y="712"/>
      <point x="198" y="745"/>
      <point x="217" y="775"/>
      <point x="244" y="798"/>
      <point x="262" y="801" type="qcurve"/>
      <point x="269" y="802" type="line"/>
      <point x="279" y="802"/>
      <point x="315" y="792"/>
      <point x="352" y="780"/>
      <point x="386" y="770"/>
      <point x="394" y="770" type="qcurve"/>
      <point x="398" y="770"/>
      <point x="399" y="771" type="qcurve"/>
      <point x="413" y="773"/>
      <point x="431" y="796"/>
      <point x="436" y="808" type="qcurve"/>
      <point x="436" y="805" type="line"/>
      <point x="447" y="804" type="line"/>
      <point x="444" y="790"/>
      <point x="432" y="755"/>
      <point x="412" y="723"/>
      <point x="383" y="701"/>
      <point x="364" y="701" type="qcurve"/>
      <point x="358" y="701"/>
      <point x="345" y="704"/>
      <point x="322" y="711"/>
      <point x="285" y="721"/>
      <point x="256" y="728" type="qcurve"/>
      <point x="241" y="732"/>
      <point x="233" y="732" type="qcurve"/>
      <point x="219" y="732"/>
      <point x="201" y="710"/>
      <point x="195" y="697" type="qcurve"/>
    </contour>
    <contour>
      <point x="301" y="-12" type="qcurve"/>
      <point x="241" y="-12"/>
      <point x="145" y="51"/>
      <point x="78" y="151"/>
      <point x="41" y="277"/>
      <point x="41" y="340" type="qcurve"/>
      <point x="41" y="402"/>
      <point x="82" y="524"/>
      <point x="152" y="620"/>
      <point x="247" y="680"/>
      <point x="301" y="680" type="qcurve"/>
      <point x="360" y="680"/>
      <point x="456" y="617"/>
      <point x="523" y="517"/>
      <point x="560" y="393"/>
      <point x="560" y="332" type="qcurve"/>
      <point x="560" y="269"/>
      <point x="522" y="146"/>
      <point x="454" y="48"/>
      <point x="359" y="-12"/>
    </contour>
    <contour>
      <point x="300" y="4" type="qcurve"/>
      <point x="333" y="4"/>
      <point x="378" y="38"/>
      <point x="408" y="93"/>
      <point x="425" y="164"/>
      <point x="433" y="238"/>
      <point x="435" y="308"/>
      <point x="435" y="336" type="qcurve"/>
      <point x="435" y="369"/>
      <point x="430" y="457"/>
      <point x="413" y="546"/>
      <point x="381" y="624"/>
      <point x="354" y="647" type="qcurve"/>
      <point x="332" y="664"/>
      <point x="303" y="664" type="qcurve"/>
      <point x="271" y="664"/>
      <point x="225" y="631"/>
      <point x="193" y="576"/>
      <point x="174" y="506"/>
      <point x="163" y="433"/>
      <point x="159" y="363"/>
      <point x="159" y="335" type="qcurve"/>
      <point x="159" y="306"/>
      <point x="162" y="235"/>
      <point x="171" y="162"/>
      <point x="190" y="92"/>
      <point x="221" y="37"/>
      <point x="267" y="4"/>
    </contour>
  </outline>
</glyph>
<glyph name="multiply" format="2">
  <advance width="289"/>
  <unicode hex="00D7"/>
  <outline>
    <contour>
      <point x="146" y="305" type="line"/>
      <point x="54" y="213" type="line"/>
      <point x="24" y="242" type="line"/>
      <point x="117" y="335" type="line"/>
      <point x="24" y="427" type="line"/>
      <point x="53" y="457" type="line"/>
      <point x="146" y="364" type="line"/>
      <point x="239" y="457" type="line"/>
      <point x="268" y="427" type="line"/>
      <point x="176" y="335" type="line"/>
      <point x="268" y="242" type="line"/>
      <point x="238" y="213" type="line"/>
    </contour>
  </outline>
</glyph>
<glyph name="Oslash" format="2">
  <advance width="595"/>
  <unicode hex="00D8"/>
  <outline>
    <contour>
      <point x="141" y="-66" type="line"/>
      <point x="174" y="34" type="line"/>
      <point x="112" y="85"/>
      <point x="41" y="247"/>
      <point x="41" y="341" type="qcurve"/>
      <point x="41" y="402"/>
      <point x="82" y="524"/>
      <point x="152" y="621"/>
      <point x="247" y="681"/>
      <point x="301" y="681" type="qcurve"/>
      <point x="345" y="681"/>
      <point x="378" y="665" type="qcurve"/>
      <point x="403" y="741" type="line"/>
      <point x="423" y="735" type="line"/>
      <point x="397" y="655" type="line"/>
      <point x="408" y="651"/>
      <point x="453" y="612"/>
      <point x="470" y="593" type="qcurve"/>
      <point x="512" y="542"/>
      <point x="560" y="406"/>
      <point x="560" y="332" type="qcurve"/>
      <point x="560" y="269"/>
      <point x="522" y="146"/>
      <point x="454" y="48"/>
      <point x="359" y="-12"/>
      <point x="301" y="-12" type="qcurve"/>
      <point x="241" y="-12"/>
      <point x="195" y="19" type="qcurve"/>
      <point x="193" y="19"/>
      <point x="191" y="21" type="qcurve"/>
      <point x="161" y="-72" type="line"/>
    </contour>
    <contour>
      <point x="368" y="633" type="line"/>
      <point x="351" y="649"/>
      <point x="327" y="664"/>
      <point x="303" y="664" type="qcurve"/>
      <point x="271" y="664"/>
      <point x="225" y="631"/>
      <point x="193" y="576"/>
      <point x="174" y="506"/>
      <point x="163" y="433"/>
      <point x="159" y="362"/>
      <point x="159" y="335" type="qcurve"/>
      <point x="159" y="292"/>
      <point x="167" y="182"/>
      <point x="181" y="128" type="qcurve"/>
      <point x="186" y="110"/>
      <point x="193" y="93" type="qcurve"/>
    </contour>
    <contour>
      <point x="300" y="5" type="qcurve"/>
      <point x="333" y="5"/>
      <point x="378" y="39"/>
      <point x="408" y="94"/>
      <point x="425" y="165"/>
      <point x="433" y="239"/>
      <point x="435" y="309"/>
      <point x="435" y="337" type="qcurve"/>
      <point x="435" y="361"/>
      <point x="432" y="429"/>
      <point x="423" y="501"/>
      <point x="405" y="572"/>
      <point x="390" y="601" type="qcurve"/>
      <point x="383" y="613" type="line"/>
      <point x="206" y="65" type="line"/>
      <point x="221" y="38"/>
      <point x="267" y="5"/>
    </contour>
  </outline>
</glyph>
<glyph name="Udieresis" format="2">
  <advance width="623"/>
  <unicode hex="00DC"/>
  <outline>
    <contour>
      <point x="249" y="708" type="qcurve"/>
      <point x="224" y="708"/>
      <point x="191" y="743"/>
      <point x="191" y="766" type="qcurve"/>
      <point x="191" y="789"/>
      <point x="224" y="824"/>
      <point x="249" y="824" type="qcurve"/>
      <point x="274" y="824"/>
      <point x="307" y="789"/>
      <point x="307" y="766" type="qcurve"/>
      <point x="307" y="743"/>
      <point x="274" y="708"/>
    </contour>
    <contour>
      <point x="404" y="708" type="qcurve"/>
      <point x="379" y="708"/>
      <point x="346" y="743"/>
      <point x="346" y="766" type="qcurve"/>
      <point x="346" y="789"/>
      <point x="379" y="824"/>
      <point x="404" y="824" type="qcurve"/>
      <point x="429" y="824"/>
      <point x="462" y="789"/>
      <point x="462" y="766" type="qcurve"/>
      <point x="462" y="743"/>
      <point x="429" y="708"/>
    </contour>
    <contour>
      <point x="325" y="-14" type="qcurve"/>
      <point x="294" y="-14"/>
      <point x="215" y="-4"/>
      <point x="143" y="26"/>
      <point x="89" y="82"/>
      <point x="83" y="129" type="qcurve"/>
      <point x="82" y="134"/>
      <point x="81" y="149"/>
      <point x="81" y="157" type="qcurve"/>
      <point x="81" y="650" type="line"/>
      <point x="18" y="650" type="line"/>
      <point x="18" y="667" type="line"/>
      <point x="271" y="667" type="line"/>
      <point x="271" y="650" type="line"/>
      <point x="207" y="650" type="line"/>
      <point x="207" y="219" type="line"/>
      <point x="207" y="172"/>
      <point x="219" y="95"/>
      <point x="249" y="39"/>
      <point x="303" y="8"/>
      <point x="345" y="8" type="qcurve"/>
      <point x="392" y="8"/>
      <point x="456" y="42"/>
      <point x="496" y="103"/>
      <point x="513" y="189"/>
      <point x="513" y="242" type="qcurve"/>
      <point x="513" y="568" type="line"/>
      <point x="513" y="599"/>
      <point x="504" y="634"/>
      <point x="489" y="649"/>
      <point x="472" y="652"/>
      <point x="463" y="652" type="qcurve"/>
      <point x="459" y="652" type="line"/>
      <point x="450" y="652"/>
      <point x="435" y="650"/>
      <point x="422" y="650" type="qcurve"/>
      <point x="422" y="667" type="line"/>
      <point x="616" y="667" type="line"/>
      <point x="616" y="650" type="line"/>
      <point x="600" y="650" type="line"/>
      <point x="579" y="650"/>
      <point x="553" y="647"/>
      <point x="540" y="632"/>
      <point x="535" y="598"/>
      <point x="535" y="568" type="qcurve"/>
      <point x="535" y="227" type="line"/>
      <point x="535" y="102"/>
      <point x="435" y="-14"/>
    </contour>
  </outline>
</glyph>
<glyph name="Yacute" format="2">
  <advance width="483"/>
  <unicode hex="00DD"/>
  <outline>
    <contour>
      <point x="187" y="709" type="line"/>
      <point x="274" y="833" type="line"/>
      <point x="281" y="836"/>
      <point x="297" y="840"/>
      <point x="312" y="843"/>
      <point x="323" y="844"/>
      <point x="324" y="844" type="qcurve"/>
      <point x="333" y="844"/>
      <point x="353" y="838"/>
      <point x="358" y="827" type="qcurve"/>
      <point x="363" y="810"/>
      <point x="363" y="801" type="qcurve"/>
      <point x="363" y="779"/>
      <point x="290" y="742"/>
      <point x="221" y="713" type="qcurve"/>
      <point x="193" y="700" type="line"/>
    </contour>
    <contour>
      <point x="124" y="0" type="line"/>
      <point x="124" y="17" type="line"/>
      <point x="187" y="17" type="line"/>
      <point x="187" y="243" type="line"/>
      <point x="30" y="650" type="line"/>
      <point x="-23" y="650" type="line"/>
      <point x="-23" y="667" type="line"/>
      <point x="216" y="667" type="line"/>
      <point x="216" y="650" type="line"/>
      <point x="153" y="650" type="line"/>
      <point x="286" y="304" type="line"/>
      <point x="383" y="541" type="line"/>
      <point x="386" y="547"/>
      <point x="395" y="570"/>
      <point x="402" y="596"/>
      <point x="408" y="619"/>
      <point x="408" y="625" type="qcurve"/>
      <point x="408" y="642"/>
      <point x="376" y="651"/>
      <point x="359" y="651" type="qcurve"/>
      <point x="333" y="650" type="line"/>
      <point x="333" y="667" type="line"/>
      <point x="510" y="667" type="line"/>
      <point x="510" y="651" type="line"/>
      <point x="489" y="651" type="line"/>
      <point x="475" y="651"/>
      <point x="457" y="646"/>
      <point x="443" y="631"/>
      <point x="429" y="604"/>
      <point x="420" y="581" type="qcurve"/>
      <point x="295" y="266" type="line"/>
      <point x="295" y="17" type="line"/>
      <point x="359" y="17" type="line"/>
      <point x="359" y="0" type="line"/>
    </contour>
  </outline>
</glyph>
<glyph name="germandbls" format="2">
  <advance width="694"/>
  <unicode hex="00DF"/>
  <outline>
    <contour>
      <point x="481" y="-12" type="qcurve"/>
      <point x="461" y="-12"/>
      <point x="435" y="-5"/>
      <point x="411" y="6"/>
      <point x="387" y="18"/>
      <point x="370" y="24" type="qcurve"/>
      <point x="359" y="27"/>
      <point x="348" y="27" type="qcurve"/>
      <point x="337" y="27"/>
      <point x="328" y="2"/>
      <point x="327" y="-7" type="qcurve"/>
      <point x="311" y="-7" type="line"/>
      <point x="311" y="183" type="line"/>
      <point x="327" y="183" type="line"/>
      <point x="331" y="139"/>
      <point x="349" y="74"/>
      <point x="384" y="29"/>
      <point x="440" y="7"/>
      <point x="484" y="7" type="qcurve"/>
      <point x="502" y="7"/>
      <point x="543" y="14"/>
      <point x="578" y="31"/>
      <point x="602" y="60"/>
      <point x="602" y="81" type="qcurve"/>
      <point x="602" y="109"/>
      <point x="557" y="144"/>
      <point x="491" y="173"/>
      <point x="415" y="202"/>
      <point x="383" y="223" type="qcurve"/>
      <point x="350" y="246"/>
      <point x="306" y="311"/>
      <point x="306" y="362" type="qcurve"/>
      <point x="306" y="397"/>
      <point x="325" y="444"/>
      <point x="354" y="477"/>
      <point x="388" y="502"/>
      <point x="417" y="529"/>
      <point x="436" y="564"/>
      <point x="436" y="591" type="qcurve"/>
      <point x="436" y="610"/>
      <point x="417" y="636"/>
      <point x="388" y="652"/>
      <point x="353" y="659"/>
      <point x="338" y="659" type="qcurve"/>
      <point x="292" y="659"/>
      <point x="237" y="622"/>
      <point x="209" y="562"/>
      <point x="200" y="486"/>
      <point x="200" y="448" type="qcurve"/>
      <point x="200" y="17" type="line"/>
      <point x="264" y="17" type="line"/>
      <point x="264" y="0" type="line"/>
      <point x="11" y="0" type="line"/>
      <point x="11" y="17" type="line"/>
      <point x="74" y="17" type="line"/>
      <point x="74" y="510" type="line"/>
      <point x="74" y="563"/>
      <point x="119" y="630"/>
      <point x="189" y="667"/>
      <point x="276" y="681"/>
      <point x="318" y="681" type="qcurve"/>
      <point x="343" y="681"/>
      <point x="391" y="673"/>
      <point x="429" y="651"/>
      <point x="453" y="612"/>
      <point x="453" y="582" type="qcurve"/>
      <point x="453" y="549"/>
      <point x="420" y="503"/>
      <point x="381" y="466"/>
      <point x="349" y="434"/>
      <point x="349" y="414" type="qcurve"/>
      <point x="349" y="399"/>
      <point x="376" y="366"/>
      <point x="414" y="338"/>
      <point x="452" y="317"/>
      <point x="463" y="314" type="qcurve"/>
      <point x="495" y="304"/>
      <point x="563" y="279"/>
      <point x="621" y="241"/>
      <point x="663" y="186"/>
      <point x="668" y="147" type="qcurve"/>
      <point x="668" y="106"/>
      <point x="638" y="47"/>
      <point x="586" y="7"/>
      <point x="518" y="-12"/>
    </contour>
  </outline>
</glyph>
<glyph name="ae" format="2">
  <advance width="930"/>
  <unicode hex="00E6"/>
  <outline>
    <contour>
      <point x="397" y="0" type="line"/>
      <point x="397" y="17" type="line"/>
      <point x="447" y="17" type="line"/>
      <point x="447" y="218" type="line"/>
      <point x="216" y="218" type="line"/>
      <point x="134" y="72" type="line"/>
      <point x="123" y="52"/>
      <point x="123" y="46" type="qcurve"/>
      <point x="123" y="29"/>
      <point x="161" y="17"/>
      <point x="181" y="17" type="qcurve"/>
      <point x="205" y="17" type="line"/>
      <point x="205" y="0" type="line"/>
      <point x="28" y="0" type="line"/>
      <point x="28" y="17" type="line"/>
      <point x="44" y="17"/>
      <point x="67" y="19"/>
      <point x="84" y="27"/>
      <point x="98" y="42"/>
      <point x="105" y="55" type="qcurve"/>
      <point x="108" y="59"/>
      <point x="149" y="132"/>
      <point x="230" y="278"/>
      <point x="354" y="498"/>
      <point x="438" y="650" type="qcurve"/>
      <point x="396" y="650" type="line"/>
      <point x="396" y="667" type="line"/>
      <point x="898" y="667" type="line"/>
      <point x="899" y="503" type="line"/>
      <point x="882" y="503" type="line"/>
      <point x="874" y="557"/>
      <point x="835" y="615"/>
      <point x="776" y="642"/>
      <point x="700" y="647"/>
      <point x="656" y="647" type="qcurve"/>
      <point x="568" y="647" type="line"/>
      <point x="568" y="352" type="line"/>
      <point x="594" y="352" type="line"/>
      <point x="625" y="352"/>
      <point x="672" y="356"/>
      <point x="703" y="378"/>
      <point x="720" y="424"/>
      <point x="721" y="467" type="qcurve"/>
      <point x="737" y="467" type="line"/>
      <point x="737" y="215" type="line"/>
      <point x="721" y="215" type="line"/>
      <point x="720" y="253"/>
      <point x="706" y="298"/>
      <point x="682" y="321"/>
      <point x="648" y="328"/>
      <point x="627" y="328" type="qcurve"/>
      <point x="568" y="328" type="line"/>
      <point x="568" y="20" type="line"/>
      <point x="665" y="20" type="line"/>
      <point x="711" y="20"/>
      <point x="790" y="26"/>
      <point x="848" y="59"/>
      <point x="882" y="131"/>
      <point x="882" y="197" type="qcurve"/>
      <point x="899" y="197" type="line"/>
      <point x="899" y="0" type="line"/>
    </contour>
    <contour>
      <point x="447" y="628" type="line"/>
      <point x="228" y="235" type="line"/>
      <point x="447" y="235" type="line"/>
    </contour>
  </outline>
</glyph>
<glyph name="igrave" format="2">
  <advance width="308"/>
  <unicode hex="00EC"/>
  <outline>
    <contour>
      <point x="212" y="700" type="line"/>
      <point x="194" y="709"/>
      <point x="155" y="726"/>
      <point x="118" y="742"/>
      <point x="86" y="757"/>
      <point x="76" y="763" type="qcurve"/>
      <point x="56" y="774"/>
      <point x="42" y="792"/>
      <point x="42" y="801" type="qcurve"/>
      <point x="42" y="812"/>
      <point x="50" y="837"/>
      <point x="62" y="841" type="qcurve"/>
      <point x="72" y="844"/>
      <point x="81" y="844" type="qcurve"/>
      <point x="82" y="844"/>
      <point x="93" y="843"/>
      <point x="108" y="840"/>
      <point x="124" y="836"/>
      <point x="131" y="833" type="qcurve"/>
      <point x="218" y="709" type="line"/>
    </contour>
    <contour>
      <point x="31" y="0" type="line"/>
      <point x="31" y="17" type="line"/>
      <point x="94" y="17" type="line"/>
      <point x="94" y="650" type="line"/>
      <point x="31" y="650" type="line"/>
      <point x="31" y="667" type="line"/>
      <point x="280" y="667" type="line"/>
      <point x="280" y="650" type="line"/>
      <point x="208" y="650" type="line"/>
      <point x="208" y="17" type="line"/>
      <point x="280" y="17" type="line"/>
      <point x="280" y="0" type="line"/>
    </contour>
  </outline>
</glyph>
<glyph name="iacute" format="2">
  <advance width="308"/>
  <unicode hex="00ED"/>
  <outline>
    <contour>
      <point x="77" y="709" type="line"/>
      <point x="164" y="833" type="line"/>
      <point x="171" y="836"/>
      <point x="187" y="840"/>
      <point x="202" y="843"/>
      <point x="213" y="844"/>
      <point x="214" y="844" type="qcurve"/>
      <point x="223" y="844"/>
      <point x="243" y="838"/>
      <point x="248" y="827" type="qcurve"/>
      <point x="253" y="810"/>
      <point x="253" y="801" type="qcurve"/>
      <point x="253" y="779"/>
      <point x="180" y="742"/>
      <point x="111" y="713" type="qcurve"/>
      <point x="83" y="700" type="line"/>
    </contour>
    <contour>
      <point x="31" y="0" type="line"/>
      <point x="31" y="17" type="line"/>
      <point x="94" y="17" type="line"/>
      <point x="94" y="650" type="line"/>
      <point x="31" y="650" type="line"/>
      <point x="31" y="667" type="line"/>
      <point x="280" y="667" type="line"/>
      <point x="280" y="650" type="line"/>
      <point x="208" y="650" type="line"/>
      <point x="208" y="17" type="line"/>
      <point x="280" y="17" type="line"/>
      <point x="280" y="0" type="line"/>
    </contour>
  </outline>
</glyph>
<glyph name="icircumflex" format="2">
  <advance width="308"/>
  <unicode hex="00EE"/>
  <outline>
    <contour>
      <point x="151" y="708" type="qcurve"/>
      <point x="143" y="708"/>
      <point x="127" y="712"/>
      <point x="114" y="719" type="qcurve"/>
      <point x="27" y="843" type="line"/>
      <point x="33" y="852" type="line"/>
      <point x="35" y="850"/>
      <point x="36" y="851"/>
      <point x="38" y="850" type="qcurve"/>
      <point x="39" y="849" type="line"/>
      <point x="41" y="849" type="line"/>
      <point x="44" y="847" type="line"/>
      <point x="46" y="847" type="line"/>
      <point x="49" y="845" type="line"/>
      <point x="51" y="845" type="line"/>
      <point x="54" y="843" type="line"/>
      <point x="56" y="843" type="line"/>
      <point x="57" y="842" type="line"/>
      <point x="84" y="831"/>
      <point x="138" y="805"/>
      <point x="158" y="795" type="qcurve"/>
      <point x="178" y="806"/>
      <point x="231" y="831"/>
      <point x="259" y="842" type="qcurve"/>
      <point x="260" y="843" type="line"/>
      <point x="262" y="843" type="line"/>
      <point x="265" y="845" type="line"/>
      <point x="267" y="845" type="line"/>
      <point x="270" y="847" type="line"/>
      <point x="272" y="847" type="line"/>
      <point x="275" y="849" type="line"/>
      <point x="277" y="849" type="line"/>
      <point x="280" y="851" type="line"/>
      <point x="282" y="851" type="line"/>
      <point x="283" y="852" type="line"/>
      <point x="289" y="843" type="line"/>
      <point x="202" y="719" type="line"/>
      <point x="191" y="716"/>
      <point x="168" y="708"/>
    </contour>
    <contour>
      <point x="31" y="0" type="line"/>
      <point x="31" y="17" type="line"/>
      <point x="94" y="17" type="line"/>
      <point x="94" y="650" type="line"/>
      <point x="31" y="650" type="line"/>
      <point x="31" y="667" type="line"/>
      <point x="280" y="667" type="line"/>
      <point x="280" y="650" type="line"/>
      <point x="208" y="650" type="line"/>
      <point x="208" y="17" type="line"/>
      <point x="280" y="17" type="line"/>
      <point x="280" y="0" type="line"/>
    </contour>
  </outline>
</glyph>
<glyph name="ntilde" format="2">
  <advance width="626"/>
  <unicode hex="00F1"/>
  <outline>
    <contour>
      <point x="183" y="699" type="line"/>
      <point x="186" y="712"/>
      <point x="198" y="745"/>
      <point x="217" y="775"/>
      <point x="244" y="798"/>
      <point x="262" y="801" type="qcurve"/>
      <point x="269" y="802" type="line"/>
      <point x="279" y="802"/>
      <point x="315" y="792"/>
      <point x="352" y="780"/>
      <point x="386" y="770"/>
      <point x="394" y="770" type="qcurve"/>
      <point x="398" y="770"/>
      <point x="399" y="771" type="qcurve"/>
      <point x="413" y="773"/>
      <point x="431" y="796"/>
      <point x="436" y="808" type="qcurve"/>
      <point x="436" y="805" type="line"/>
      <point x="447" y="804" type="line"/>
      <point x="444" y="790"/>
      <point x="432" y="755"/>
      <point x="412" y="723"/>
      <point x="383" y="701"/>
      <point x="364" y="701" type="qcurve"/>
      <point x="358" y="701"/>
      <point x="345" y="704"/>
      <point x="322" y="711"/>
      <point x="285" y="721"/>
      <point x="256" y="728" type="qcurve"/>
      <point x="241" y="732"/>
      <point x="233" y="732" type="qcurve"/>
      <point x="219" y="732"/>
      <point x="201" y="710"/>
      <point x="195" y="697" type="qcurve"/>
    </contour>
    <contour>
      <point x="481" y="-5" type="line"/>
      <point x="122" y="589" type="line"/>
      <point x="122" y="122" type="line"/>
      <point x="123" y="61" type="line"/>
      <point x="124" y="44"/>
      <point x="132" y="27"/>
      <point x="150" y="18"/>
      <point x="181" y="17"/>
      <point x="205" y="17" type="qcurve"/>
      <point x="205" y="0" type="line"/>
      <point x="21" y="0" type="line"/>
      <point x="21" y="17" type="line"/>
      <point x="45" y="17"/>
      <point x="75" y="19"/>
      <point x="93" y="27"/>
      <point x="101" y="42"/>
      <point x="102" y="55" type="qcurve"/>
      <point x="103" y="105" type="line"/>
      <point x="103" y="637" type="line"/>
      <point x="90" y="650" type="line"/>
      <point x="21" y="650" type="line"/>
      <point x="21" y="667" type="line"/>
      <point x="222" y="667" type="line"/>
      <point x="512" y="191" type="line"/>
      <point x="512" y="567" type="line"/>
      <point x="512" y="591"/>
      <point x="510" y="622"/>
      <point x="504" y="640"/>
      <point x="494" y="648"/>
      <point x="486" y="649" type="qcurve"/>
      <point x="454" y="650" type="line"/>
      <point x="432" y="650" type="line"/>
      <point x="432" y="667" type="line"/>
      <point x="613" y="667" type="line"/>
      <point x="613" y="650" type="line"/>
      <point x="590" y="650" type="line"/>
      <point x="558" y="649" type="line"/>
      <point x="549" y="648"/>
      <point x="538" y="640"/>
      <point x="533" y="622"/>
      <point x="531" y="591"/>
      <point x="531" y="567" type="qcurve"/>
      <point x="531" y="-5" type="line"/>
    </contour>
  </outline>
</glyph>
<glyph name="ocircumflex" format="2">
  <advance width="595"/>
  <unicode hex="00F4"/>
  <outline>
    <contour>
      <point x="424" y="709" type="line"/>
      <point x="422" y="709" type="line"/>
      <point x="419" y="711" type="line"/>
      <point x="417" y="711" type="line"/>
      <point x="414" y="713" type="line"/>
      <point x="412" y="713" type="line"/>
      <point x="411" y="714" type="line"/>
      <point x="409" y="715"/>
      <point x="408" y="714"/>
      <point x="406" y="716" type="qcurve"/>
      <point x="404" y="717"/>
      <point x="403" y="716"/>
      <point x="401" y="718" type="qcurve"/>
      <point x="373" y="729"/>
      <point x="320" y="754"/>
      <point x="300" y="765" type="qcurve"/>
      <point x="293" y="762"/>
      <point x="286" y="758"/>
      <point x="280" y="755"/>
      <point x="275" y="753"/>
      <point x="271" y="750" type="qcurve"/>
      <point x="266" y="750"/>
      <point x="268" y="749"/>
      <point x="263" y="747" type="qcurve"/>
      <point x="198" y="717" type="line"/>
      <point x="194" y="716" type="line"/>
      <point x="193" y="715"/>
      <point x="189" y="714" type="qcurve"/>
      <point x="188" y="713" type="line"/>
      <point x="186" y="713" type="line"/>
      <point x="183" y="711" type="line"/>
      <point x="181" y="711" type="line"/>
      <point x="178" y="709" type="line"/>
      <point x="176" y="709" type="line"/>
      <point x="175" y="708" type="line"/>
      <point x="169" y="717" type="line"/>
      <point x="256" y="841" type="line"/>
      <point x="269" y="848"/>
      <point x="285" y="852"/>
      <point x="293" y="852" type="qcurve"/>
      <point x="310" y="852"/>
      <point x="333" y="844"/>
      <point x="344" y="841" type="qcurve"/>
      <point x="431" y="717" type="line"/>
      <point x="425" y="708" type="line"/>
    </contour>
    <contour>
      <point x="301" y="-12" type="qcurve"/>
      <point x="241" y="-12"/>
      <point x="145" y="51"/>
      <point x="78" y="151"/>
      <point x="41" y="277"/>
      <point x="41" y="340" type="qcurve"/>
      <point x="41" y="402"/>
      <point x="82" y="524"/>
      <point x="152" y="620"/>
      <point x="247" y="680"/>
      <point x="301" y="680" type="qcurve"/>
      <point x="360" y="680"/>
      <point x="456" y="617"/>
      <point x="523" y="517"/>
      <point x="560" y="393"/>
      <point x="560" y="332" type="qcurve"/>
      <point x="560" y="269"/>
      <point x="522" y="146"/>
      <point x="454" y="48"/>
      <point x="359" y="-12"/>
    </contour>
    <contour>
      <point x="300" y="4" type="qcurve"/>
      <point x="333" y="4"/>
      <point x="378" y="38"/>
      <point x="408" y="93"/>
      <point x="425" y="164"/>
      <point x="433" y="238"/>
      <point x="435" y="308"/>
      <point x="435" y="336" type="qcurve"/>
      <point x="435" y="369"/>
      <point x="430" y="457"/>
      <point x="413" y="546"/>
      <point x="381" y="624"/>
      <point x="354" y="647" type="qcurve"/>
      <point x="332" y="664"/>
      <point x="303" y="664" type="qcurve"/>
      <point x="271" y="664"/>
      <point x="225" y="631"/>
      <point x="193" y="576"/>
      <point x="174" y="506"/>
      <point x="163" y="433"/>
      <point x="159" y="363"/>
      <point x="159" y="335" type="qcurve"/>
      <point x="159" y="306"/>
      <point x="162" y="235"/>
      <point x="171" y="162"/>
      <point x="190" y="92"/>
      <point x="221" y="37"/>
      <point x="267" y="4"/>
    </contour>
  </outline>
</glyph>
<glyph name="divide" format="2">
  <advance width="368"/>
  <unicode hex="00F7"/>
  <outline>
    <contour>
      <point x="185" y="391" type="qcurve"/>
      <point x="160" y="391"/>
      <point x="127" y="426"/>
      <point x="127" y="449" type="qcurve"/>
      <point x="127" y="472"/>
      <point x="160" y="507"/>
      <point x="185" y="507" type="qcurve"/>
      <point x="210" y="507"/>
      <point x="243" y="472"/>
      <point x="243" y="449" type="qcurve"/>
      <point x="243" y="426"/>
      <point x="210" y="391"/>
    </contour>
    <contour>
      <point x="33" y="317" type="line"/>
      <point x="33" y="359" type="line"/>
      <point x="336" y="359" type="line"/>
      <point x="336" y="317" type="line"/>
    </contour>
    <contour>
      <point x="185" y="167" type="qcurve"/>
      <point x="160" y="167"/>
      <point x="127" y="202"/>
      <point x="127" y="225" type="qcurve"/>
      <point x="127" y="250"/>
      <point x="162" y="283"/>
      <point x="185" y="283" type="qcurve"/>
      <point x="210" y="283"/>
      <point x="243" y="248"/>
      <point x="243" y="225" type="qcurve"/>
      <point x="243" y="200"/>
      <point x="208" y="167"/>
    </contour>
  </outline>
</glyph>
<glyph name="ugrave" format="2">
  <advance width="623"/>
  <unicode hex="00F9"/>
  <outline>
    <contour>
      <point x="380" y="700" type="line"/>
      <point x="362" y="709"/>
      <point x="323" y="726"/>
      <point x="286" y="742"/>
      <point x="254" y="757"/>
      <point x="244" y="763" type="qcurve"/>
      <point x="224" y="774"/>
      <point x="210" y="792"/>
      <point x="210" y="801" type="qcurve"/>
      <point x="210" y="812"/>
      <point x="218" y="837"/>
      <point x="230" y="841" type="qcurve"/>
      <point x="240" y="844"/>
      <point x="249" y="844" type="qcurve"/>
      <point x="250" y="844"/>
      <point x="261" y="843"/>
      <point x="276" y="840"/>
      <point x="292" y="836"/>
      <point x="299" y="833" type="qcurve"/>
      <point x="386" y="709" type="line"/>
    </contour>
    <contour>
      <point x="325" y="-14" type="qcurve"/>
      <point x="294" y="-14"/>
      <point x="215" y="-4"/>
      <point x="143" y="26"/>
      <point x="89" y="82"/>
      <point x="83" y="129" type="qcurve"/>
      <point x="82" y="134"/>
      <point x="81" y="149"/>
      <point x="81" y="157" type="qcurve"/>
      <point x="81" y="650" type="line"/>
      <point x="18" y="650" type="line"/>
      <point x="18" y="667" type="line"/>
      <point x="271" y="667" type="line"/>
      <point x="271" y="650" type="line"/>
      <point x="207" y="650" type="line"/>
      <point x="207" y="219" type="line"/>
      <point x="207" y="172"/>
      <point x="219" y="95"/>
      <point x="249" y="39"/>
      <point x="303" y="8"/>
      <point x="345" y="8" type="qcurve"/>
      <point x="392" y="8"/>
      <point x="456" y="42"/>
      <point x="496" y="103"/>
      <point x="513" y="189"/>
      <point x="513" y="242" type="qcurve"/>
      <point x="513" y="568" type="line"/>
      <point x="513" y="599"/>
      <point x="504" y="634"/>
      <point x="489" y="649"/>
      <point x="472" y="652"/>
      <point x="463" y="652" type="qcurve"/>
      <point x="459" y="652" type="line"/>
      <point x="450" y="652"/>
      <point x="435" y="650"/>
      <point x="422" y="650" type="qcurve"/>
      <point x="422" y="667" type="line"/>
      <point x="616" y="667" type="line"/>
      <point x="616" y="650" type="line"/>
      <point x="600" y="650" type="line"/>
      <point x="579" y="650"/>
      <point x="553" y="647"/>
      <point x="540" y="632"/>
      <point x="535" y="598"/>
      <point x="535" y="568" type="qcurve"/>
      <point x="535" y="227" type="line"/>
      <point x="535" y="102"/>
      <point x="435" y="-14"/>
    </contour>
  </outline>
</glyph>
